# Blender 4.5.4 LTS
# www.blender.org
mtllib patdelde.mtl
g pdder_Mesh
v 0.197241 -0.660095 -0.693770
v 0.713522 -0.719318 0.634769
v 0.325149 -0.786534 0.535406
v 0.110742 -0.757500 0.010720
v 0.371311 -2.711487 -0.061449
v 0.533270 -2.693167 -0.235970
v 0.779099 -2.683809 -0.103365
v 0.825897 -2.708678 0.211105
v 0.744519 -2.737674 0.564440
v 0.536289 -2.764050 0.739057
v 0.369254 -2.764418 0.589681
v 0.309212 -2.744390 0.358011
v 0.674677 -4.883332 0.557024
v 0.597937 -4.918996 0.683857
v 0.434724 -3.734809 0.262538
v 0.388134 -3.752128 0.512403
v 0.428390 -3.770447 0.776702
v 0.601992 -3.777635 0.880413
v 0.707860 -3.762663 0.664421
v 0.735224 -3.743849 0.392970
v 0.666748 -3.731001 0.207617
v 0.549875 -3.727232 0.153233
v 0.296769 -1.614667 -0.427718
v 0.358519 -1.682837 0.550843
v 0.626054 -1.689124 0.646684
v 0.809367 -1.671053 0.391711
v 0.901163 -1.642356 -0.020548
v 0.805022 -1.611860 -0.461176
v 0.520280 -1.597920 -0.664308
v 0.471576 -0.218661 -0.960640
v 0.826477 -0.138532 -0.734001
v 0.950499 -0.264711 0.422202
v 0.646240 -0.487531 0.738903
v 0.266511 -0.705234 0.540347
v 0.053343 -0.680626 -0.039009
v 0.260119 -1.120647 -0.595201
v 0.348143 -1.246797 0.527459
v 0.667298 -1.198985 0.587913
v 0.862154 -1.139635 0.333257
v 0.937629 -1.098689 -0.109882
v 0.813997 -1.069225 -0.568921
v 0.527351 -1.073952 -0.785892
v 0.331218 -2.066318 -0.271398
v 0.263755 -2.103312 0.262308
v 0.366251 -2.124215 0.563873
v 0.585623 -2.133903 0.703670
v 0.773037 -2.117140 0.461843
v 0.380308 -4.266199 0.567722
v 0.438248 -4.277882 0.736276
v 0.594244 -4.280421 0.772917
v 0.709682 -4.271177 0.639552
v 0.714704 -4.254526 0.399329
v 0.644020 -4.243506 0.240330
v 0.071891 -0.270336 -0.758652
v 0.000404 -0.551618 -0.037252
v 0.190460 -0.563189 0.650637
v 0.632337 -0.348233 0.888879
v 0.958811 -0.111322 0.474363
v 1.048878 0.068383 -0.192363
v 0.813637 0.062746 -0.796084
v 0.434931 -0.069645 -1.011116
v 0.358135 -5.867567 -0.037901
v 0.494726 -5.833864 -0.144689
v 0.616971 -5.843104 -0.080987
v 0.674764 -5.887163 0.067519
v 0.686237 -5.901197 0.274593
v 0.585346 -5.925011 0.439342
v 0.437566 -5.932413 0.422055
v 0.345791 -5.911495 0.212485
v 0.177566 -6.341278 -0.169908
v 0.478259 -6.319561 -0.483228
v 0.772808 -6.333506 -0.282039
v 0.731855 -6.347777 -0.076153
v 0.714481 -6.373919 0.301007
v 0.596537 -6.388719 0.514540
v 0.398333 -6.386159 0.477601
v 0.252406 -6.364390 0.163536
v 0.148255 -6.212399 -0.165602
v 0.216209 -6.238624 0.215078
v 0.374807 -6.269723 0.544780
v 0.626095 -6.284952 0.570019
v 0.806382 -6.233499 0.339616
v 0.813463 -6.166195 -0.049210
v 0.798789 -6.154823 -0.350312
v 0.483477 -6.170388 -0.526612
v 0.401844 -5.662564 0.135176
v 0.377866 -5.697216 0.335622
v 0.453697 -5.722136 0.519530
v 0.585135 -5.719403 0.537959
v 0.664781 -5.691734 0.389471
v 0.653209 -5.673590 0.217597
v 0.598379 -5.651595 0.101352
v 0.507228 -5.640940 0.057971
v 0.553168 -3.077318 -0.043479
v 0.430639 -3.150174 0.092344
v 0.357075 -3.259055 0.439852
v 0.400765 -3.270712 0.487142
v 0.541426 -3.259651 0.624781
v 0.725622 -3.225161 0.467237
v 0.782433 -3.212385 0.318850
v 0.701877 -3.099930 0.039165
v 0.444030 -3.448825 0.183896
v 0.554657 -3.466976 0.086900
v 0.678269 -3.425317 0.127580
v 0.767378 -3.386331 0.348072
v 0.718386 -3.395689 0.481863
v 0.543113 -3.423186 0.637674
v 0.408801 -3.429840 0.507203
v 0.368525 -3.420762 0.466840
v 0.035830 -0.206660 -0.766905
v -0.043856 -0.487590 -0.034775
v 0.126524 -0.538847 0.790834
v 0.649373 -0.270488 1.034418
v 0.969837 0.091476 0.549084
v 1.064600 0.312476 -0.223351
v 0.770413 0.316740 -0.892940
v 0.372469 0.079515 -1.063901
v 0.399063 -6.177612 -0.623745
v 0.218815 -6.208454 -0.424891
v 0.244751 -6.339203 -0.401217
v 0.393846 -6.326786 -0.580361
v 0.725161 -6.157139 -0.516460
v 0.551875 -6.174872 -0.632239
v 0.546657 -6.324045 -0.588855
v 0.698657 -6.329894 -0.504460
v 0.420139 -5.264731 0.231143
v 0.389343 -5.322933 0.413764
v 0.661319 -5.295474 0.464527
v 0.652259 -5.279293 0.296511
v 0.598396 -5.266653 0.187177
v 0.521275 -5.263338 0.148716
v 0.274069 -6.159282 -0.150498
v 0.254257 -6.205388 0.208786
v 0.393903 -6.235110 0.514123
v 0.617058 -6.235540 0.538493
v 0.773052 -6.195006 0.310471
v 0.766824 -6.155686 -0.017543
v 0.683448 -6.115674 -0.262068
v 0.485006 -6.114665 -0.388183
v 0.326959 -6.013297 -0.089937
v 0.311896 -6.058452 0.200858
v 0.421238 -6.082642 0.445850
v 0.596712 -6.077874 0.465775
v 0.717773 -6.048013 0.277342
v 0.707993 -6.025070 0.026153
v 0.640718 -5.981940 -0.157206
v 0.490768 -5.975451 -0.243210
v 0.647954 -3.199780 0.022162
v 0.557560 -3.207225 -0.006280
v 0.479239 -3.225020 0.055487
v 0.484576 -3.373298 0.101463
v 0.557950 -3.368913 0.048904
v 0.637433 -3.358426 0.067082
vn 0.8468 -0.1115 -0.5201
vn 0.5305 -0.2078 -0.8218
vn 0.7558 -0.1241 -0.6430
vn 0.9713 0.0417 -0.2343
vn 0.9789 -0.0176 -0.2034
vn 0.9878 -0.0204 -0.1542
vn 0.5063 -0.7156 0.4812
vn 0.9302 -0.2094 0.3015
vn 0.9479 -0.1811 0.2620
vn -0.3285 -0.8766 0.3516
vn 0.4309 -0.4608 0.7759
vn 0.4168 -0.1318 0.8994
vn 0.9188 -0.0969 0.3827
vn 0.9479 0.0887 0.3059
vn 0.9946 -0.0890 -0.0543
vn 0.9454 -0.0676 -0.3187
vn 0.8662 -0.0822 -0.4929
vn 0.2396 -0.2435 -0.9398
vn 0.5118 -0.2526 -0.8212
vn 0.8103 -0.2779 -0.5159
vn -0.9844 -0.1653 0.0606
vn -0.9295 -0.3105 0.1988
vn -0.8922 -0.1734 -0.4170
vn 0.3856 0.0779 0.9194
vn 0.3991 0.1106 0.9102
vn 0.9346 -0.0574 0.3511
vn 0.8730 -0.0697 0.4828
vn 0.2368 0.0668 0.9693
vn 0.0381 -0.0793 0.9961
vn -0.8151 0.0156 0.5792
vn -0.8485 -0.0342 0.5281
vn -0.8712 0.0656 0.4865
vn -0.8886 0.0778 -0.4520
vn -0.9927 -0.0110 0.1199
vn -0.9954 -0.0368 0.0880
vn 0.9972 -0.0754 0.0004
vn 0.8473 -0.2294 -0.4791
vn 0.8493 -0.1468 -0.5071
vn -0.8671 -0.4902 0.0883
vn -0.6934 -0.4010 -0.5986
vn -0.8276 -0.2467 -0.5043
vn -0.8906 0.3612 -0.2764
vn -0.9744 0.1448 0.1722
vn -0.8978 0.2943 -0.3276
vn -0.9332 -0.0690 0.3526
vn -0.2162 0.3626 0.9065
vn -0.6599 -0.0944 0.7454
vn -0.6719 -0.2807 -0.6854
vn -0.2565 -0.4242 -0.8685
vn -0.6679 -0.1783 -0.7225
vn -0.1822 -0.3488 -0.9193
vn -0.1730 -0.2713 -0.9468
vn -0.1007 0.0151 0.9948
vn 0.8191 0.1204 0.5608
vn 0.8219 -0.1413 0.5518
vn -0.6770 0.0026 0.7360
vn 0.3601 -0.0194 0.9327
vn 0.5073 -0.2569 0.8226
vn 0.9808 -0.0249 0.1934
vn 0.9864 -0.0719 0.1481
vn -0.0408 -0.2712 -0.9617
vn 0.0641 -0.2623 -0.9628
vn -0.6894 -0.1652 0.7053
vn -0.5711 -0.6552 0.4945
vn -0.7125 -0.2169 0.6673
vn 0.4241 -0.2197 0.8785
vn 0.7308 -0.0429 0.6813
vn -0.2282 -0.3272 -0.9170
vn -0.7755 -0.0546 0.6290
vn -0.6587 0.1671 0.7336
vn -0.7861 0.0185 0.6178
vn 0.9995 0.0058 0.0297
vn 0.9878 -0.1539 0.0232
vn 0.9946 -0.0917 -0.0494
vn -0.8660 0.1635 0.4726
vn 0.4025 0.1557 0.9021
vn 0.9931 -0.0489 -0.1064
vn 0.8025 -0.1036 -0.5875
vn 0.1686 -0.2700 -0.9480
vn 0.7453 0.0829 -0.6615
vn -0.2229 -0.0794 -0.9716
vn -0.7901 -0.6046 -0.1012
vn -0.8466 -0.5320 -0.0120
vn 0.1422 -0.9870 0.0755
vn 0.6345 -0.7126 0.2994
vn 0.9668 -0.1432 0.2116
vn 0.4566 -0.3194 -0.8304
vn 0.9797 -0.0916 -0.1784
vn -0.6072 -0.5381 -0.5846
vn -0.1342 0.6833 -0.7177
vn -0.1942 0.4806 -0.8552
vn 0.7631 0.4647 -0.4491
vn 0.7493 0.3085 -0.5860
vn 0.9786 0.0839 0.1881
vn 0.9694 0.1546 -0.1908
vn -0.9954 -0.0167 0.0944
vn -0.8449 -0.2573 -0.4690
vn 0.5515 -0.0964 0.8286
vn -0.1447 -0.7797 -0.6093
vn -0.6971 0.6330 -0.3368
vn -0.2438 0.8208 -0.5165
vn 0.5595 -0.7284 -0.3956
vn 0.0071 0.6097 -0.7926
vn 0.6676 0.5567 -0.4943
vn 0.9739 0.1636 -0.1573
vn 0.8105 -0.5771 -0.1002
vn 0.8915 0.3853 -0.2382
vn 0.9933 0.1137 0.0206
vn 0.5166 -0.8025 0.2986
vn 0.7078 -0.1207 0.6960
vn 0.3540 -0.8652 0.3552
vn -0.4665 -0.0720 0.8816
vn -0.2065 -0.8907 0.4050
vn -0.8904 0.1879 0.4146
vn -0.5683 -0.8184 0.0854
vn -0.8951 0.4456 -0.0145
vn -0.6724 -0.7319 -0.1105
vn -0.6764 0.7199 -0.1557
vn -0.8243 0.5329 0.1913
vn -0.5312 0.5266 0.6637
vn 0.3683 0.4544 0.8111
vn 0.7987 0.5207 0.3017
vn 0.6865 0.7268 -0.0193
vn 0.4287 0.8384 -0.3365
vn -0.1492 0.9213 -0.3592
vn -0.2153 0.8383 -0.5009
vn -0.9940 -0.0094 0.1093
vn -0.2354 0.1254 -0.9638
vn 0.9507 0.2653 -0.1603
vn 0.7359 0.4609 -0.4960
vn 0.8785 0.0065 0.4777
vn -0.9028 -0.0956 -0.4194
vn -0.7810 -0.2690 -0.5636
vn -0.1723 -0.2771 -0.9453
vn 0.5834 -0.0823 0.8080
vn 0.3136 -0.4333 -0.8449
vn -0.8879 -0.2599 -0.3795
vn -0.9671 -0.1968 -0.1614
vn -0.0487 -0.9755 -0.2147
vn -0.7053 -0.6963 -0.1329
vn -0.4938 -0.8235 -0.2794
vn -0.3025 -0.7032 -0.6434
vn -0.6789 -0.0548 0.7322
vn -0.9335 0.3008 0.1952
vn -0.6274 0.3313 0.7047
vn 0.4288 0.3442 0.8353
vn 0.9068 0.3251 0.2682
vn 0.9225 0.3696 -0.1110
vn -0.2102 0.6473 -0.7327
vn -0.8727 0.3780 -0.3090
vn 0.9865 -0.1097 -0.1218
vn 0.2471 -0.2182 -0.9441
vn -0.9842 0.0323 0.1739
vt 0.391732 0.312073
vt 0.417071 0.349338
vt 0.406007 0.376120
vt 0.387777 0.104470
vt 0.391077 0.155999
vt 0.385170 0.155634
vt 0.335824 0.350654
vt 0.358326 0.353289
vt 0.357944 0.361161
vt 0.316233 0.331529
vt 0.339007 0.342052
vt 0.370977 0.154114
vt 0.380483 0.125144
vt 0.375829 0.179314
vt 0.375820 0.311564
vt 0.398445 0.355163
vt 0.401267 0.364448
vt 0.389136 0.197197
vt 0.391573 0.208486
vt 0.388920 0.213531
vt 0.420690 0.224947
vt 0.446591 0.313619
vt 0.421344 0.305324
vt 0.352345 0.279702
vt 0.365166 0.260074
vt 0.361397 0.309403
vt 0.368328 0.229752
vt 0.354130 0.257386
vt 0.357839 0.226727
vt 0.343066 0.255398
vt 0.349148 0.224433
vt 0.341633 0.223085
vt 0.332843 0.253806
vt 0.401332 0.105466
vt 0.411277 0.155126
vt 0.410393 0.179903
vt 0.376289 0.284932
vt 0.388062 0.234557
vt 0.390254 0.286388
vt 0.447855 0.317836
vt 0.437258 0.343626
vt 0.428111 0.326218
vt 0.413195 0.070035
vt 0.414039 0.080227
vt 0.403760 0.086193
vt 0.354616 0.194071
vt 0.365090 0.194584
vt 0.355863 0.200572
vt 0.399499 0.199224
vt 0.403632 0.209656
vt 0.400278 0.206465
vt 0.395597 0.199895
vt 0.396146 0.207916
vt 0.363883 0.202819
vt 0.375431 0.197384
vt 0.374269 0.205925
vt 0.335297 0.298492
vt 0.349527 0.304974
vt 0.376699 0.084441
vt 0.382832 0.084161
vt 0.382583 0.104463
vt 0.405214 0.285839
vt 0.407583 0.310129
vt 0.326600 0.320999
vt 0.322286 0.324329
vt 0.370390 0.084845
vt 0.375218 0.123493
vt 0.345307 0.329969
vt 0.396961 0.214277
vt 0.352193 0.177543
vt 0.363285 0.153165
vt 0.356853 0.193537
vt 0.339734 0.277039
vt 0.380328 0.198595
vt 0.379715 0.207250
vt 0.363455 0.282473
vt 0.360071 0.177058
vt 0.368323 0.177517
vt 0.383631 0.181015
vt 0.390027 0.181781
vt 0.420052 0.356124
vt 0.392024 0.104654
vt 0.395922 0.181821
vt 0.453808 0.325795
vt 0.451439 0.323057
vt 0.299515 0.314099
vt 0.312741 0.335726
vt 0.334304 0.356833
vt 0.357649 0.371658
vt 0.391620 0.200580
vt 0.381959 0.378827
vt 0.439374 0.346444
vt 0.401475 0.073260
vt 0.397949 0.085130
vt 0.395406 0.072255
vt 0.393080 0.084209
vt 0.311224 0.309167
vt 0.302617 0.312867
vt 0.382921 0.072479
vt 0.388303 0.083752
vt 0.412906 0.202024
vt 0.408886 0.230525
vt 0.375104 0.073648
vt 0.419806 0.045939
vt 0.422863 0.056450
vt 0.415445 0.051094
vt 0.400982 0.040423
vt 0.407996 0.048487
vt 0.400631 0.048356
vt 0.389020 0.053848
vt 0.392484 0.042543
vt 0.395938 0.050892
vt 0.378884 0.055336
vt 0.386089 0.044069
vt 0.369618 0.056169
vt 0.375402 0.048101
vt 0.359868 0.059828
vt 0.367077 0.051167
vt 0.349064 0.064869
vt 0.357746 0.054197
vt 0.425300 0.063612
vt 0.434604 0.071497
vt 0.428153 0.074073
vt 0.419217 0.064964
vt 0.425838 0.074626
vt 0.350972 0.066595
vt 0.360901 0.061518
vt 0.370351 0.058633
vt 0.379704 0.057575
vt 0.389022 0.056366
vt 0.397986 0.056575
vt 0.410643 0.052423
vt 0.408668 0.057471
vt 0.407377 0.104210
vt 0.395926 0.104768
vt 0.353186 0.200423
vt 0.389690 0.071234
vt 0.396682 0.064473
vt 0.378945 0.232422
vt 0.402435 0.181103
vt 0.401980 0.195118
vt 0.395618 0.194927
vt 0.377865 0.154934
vt 0.400115 0.233476
vt 0.414408 0.261073
vt 0.417696 0.282279
vt 0.332082 0.160160
vt 0.321338 0.146277
vt 0.330044 0.129064
vt 0.431142 0.061142
vt 0.343685 0.159042
vt 0.347751 0.152364
vt 0.414056 0.044364
vt 0.409860 0.042374
vt 0.321350 0.159526
vt 0.318603 0.152311
vt 0.364326 0.102450
vt 0.367214 0.075065
vt 0.419262 0.076887
vt 0.364286 0.068410
vt 0.355697 0.072367
vt 0.372851 0.066240
vt 0.381518 0.064957
vt 0.389580 0.063723
vt 0.404743 0.065705
vt 0.359527 0.077655
vt 0.408319 0.075571
vt 0.379756 0.367312
vt 0.424201 0.362839
vt 0.429685 0.254245
vt 0.410035 0.088229
vt 0.357366 0.152376
vt 0.307308 0.309695
vt 0.411551 0.194993
vt 0.427484 0.053001
vt 0.346557 0.058705
vt 0.339477 0.131346
vt 0.345365 0.141767
vt 0.323564 0.134884
vt 0.335825 0.163626
vt 0.328376 0.162988
vt 0.363763 0.085752
s 1
g off
g pdder_Girrafe_texture
usemtl Girrafe_texture
f 41/1/1 30/2/2 116/3/3
f 129/4/4 53/5/5 52/6/6
f 57/7/7 32/8/8 58/9/9
f 56/10/10 33/11/11 57/7/7
f 50/12/12 13/13/13 19/14/14
f 40/15/15 31/16/16 60/17/17
f 104/18/18 148/19/19 101/20/20
f 12/21/21 4/22/22 36/23/23
f 25/24/24 47/25/25 39/26/26
f 9/27/27 46/28/28 10/29/29
f 10/29/29 45/30/30 11/31/31
f 12/32/21 45/30/30 44/33/32
f 126/34/33 48/35/34 16/36/35
f 27/37/36 7/38/37 28/39/38
f 35/40/39 54/41/40 1/42/41
f 140/43/42 69/44/43 86/45/44
f 109/46/45 107/47/46 97/48/47
f 151/49/48 95/50/49 150/51/50
f 152/52/51 150/51/50 149/53/52
f 98/54/53 106/55/54 99/56/55
f 37/57/56 25/24/24 38/58/57
f 89/59/58 90/60/59 128/61/60
f 40/15/15 28/39/38 41/1/1
f 29/62/61 36/23/23 42/63/62
f 3/64/63 33/11/11 34/65/64
f 88/66/65 14/67/66 50/12/12
f 3/64/63 38/58/57 2/68/67
f 7/38/37 94/69/68 29/62/61
f 16/70/35 49/71/69 108/72/70
f 24/73/71 46/28/28 25/24/24
f 99/56/55 105/74/72 100/75/73
f 26/76/74 100/75/73 27/37/36
f 17/77/75 50/12/12 18/78/76
f 19/14/14 52/6/6 20/79/77
f 20/79/77 53/5/5 21/80/78
f 1/42/41 61/81/79 42/63/62
f 130/82/80 22/83/81 21/80/78
f 111/84/82 54/41/40 55/85/83
f 111/86/82 56/10/10 112/87/84
f 112/87/84 57/7/7 113/88/85
f 113/88/85 58/9/9 114/89/86
f 153/90/87 149/53/52 148/19/19
f 115/91/88 60/17/17 116/3/3
f 110/92/89 61/81/79 54/41/40
f 63/93/90 86/45/44 93/94/91
f 64/95/92 93/94/91 92/96/93
f 4/97/22 34/65/64 55/98/83
f 66/99/94 91/100/95 90/60/59
f 16/36/35 96/101/96 5/102/97
f 88/66/65 67/103/98 89/59/58
f 2/68/67 39/26/26 33/11/11
f 105/74/72 21/80/78 101/20/20
f 121/104/99 119/105/100 118/106/101
f 125/107/102 123/108/103 122/109/104
f 83/110/105 72/111/106 84/112/107
f 82/113/108 73/114/109 83/110/105
f 81/115/110 74/116/111 82/113/108
f 80/117/112 75/118/113 81/115/110
f 79/119/114 76/120/115 80/117/112
f 78/121/116 77/122/117 79/123/114
f 132/124/118 79/123/114 133/125/119
f 133/126/119 80/117/112 134/127/120
f 134/127/120 81/115/110 135/128/121
f 135/128/121 82/113/108 136/129/122
f 136/129/122 83/110/105 137/130/123
f 83/110/105 138/131/124 137/130/123
f 138/131/124 85/132/125 139/133/126
f 85/132/125 132/124/118 139/133/126
f 86/45/44 127/134/127 126/34/33
f 90/60/59 129/4/4 128/61/60
f 129/4/4 92/96/93 130/82/80
f 92/96/93 131/135/128 130/82/80
f 93/94/91 126/34/33 131/135/128
f 5/102/97 94/69/68 95/50/49
f 11/31/31 96/136/96 97/48/47
f 98/54/53 11/31/31 97/48/47
f 99/56/55 10/29/29 98/54/53
f 65/137/129 146/138/130 92/96/93
f 101/20/20 8/139/131 100/75/73
f 131/135/128 15/140/132 22/83/81
f 22/83/81 102/141/133 103/142/134
f 21/80/78 103/142/134 104/18/18
f 44/33/32 24/73/71 37/57/56
f 106/55/54 20/79/77 105/74/72
f 107/47/46 19/14/14 106/55/54
f 17/77/75 107/47/46 108/72/70
f 128/61/60 52/6/6 51/143/135
f 6/144/136 43/145/137 23/146/138
f 71/147/139 73/148/109 75/149/113
f 85/132/125 119/105/100 78/121/116
f 119/105/100 70/150/140 78/121/116
f 120/151/141 71/147/139 70/152/140
f 71/153/139 118/106/101 85/132/125
f 122/109/104 85/132/125 84/112/107
f 85/132/125 124/154/142 71/153/139
f 71/147/139 125/155/102 72/156/106
f 72/111/106 122/109/104 84/112/107
f 127/157/127 68/158/143 49/71/69
f 132/124/118 141/159/144 140/43/42
f 133/126/119 142/160/145 141/161/144
f 142/160/145 135/128/121 143/162/146
f 143/162/146 136/129/122 144/163/147
f 144/163/147 137/130/123 145/164/148
f 145/164/148 138/131/124 146/138/130
f 138/131/124 147/165/149 146/138/130
f 139/133/126 140/43/42 147/165/149
f 69/166/43 142/160/145 68/158/143
f 68/158/143 143/162/146 67/103/98
f 67/103/98 144/163/147 66/99/94
f 144/163/147 65/137/129 66/99/94
f 146/138/130 63/93/90 64/95/92
f 147/165/149 62/167/150 63/93/90
f 148/19/19 94/69/68 101/20/20
f 149/53/52 95/50/49 94/69/68
f 32/8/8 59/168/151 58/9/9
f 151/49/48 103/142/134 102/141/133
f 103/142/134 153/90/87 104/18/18
f 60/17/17 31/16/16 41/1/1
f 41/1/1 28/39/38 29/62/61
f 41/1/1 29/62/61 42/63/62
f 116/3/3 60/17/17 41/1/1
f 61/81/79 117/169/152 116/3/3
f 41/1/1 42/63/62 30/2/2
f 30/2/2 61/81/79 116/3/3
f 129/4/4 130/82/80 53/5/5
f 57/7/7 33/11/11 32/8/8
f 56/10/10 34/65/64 33/11/11
f 19/14/14 18/78/76 50/12/12
f 50/12/12 14/67/66 13/13/13
f 13/13/13 51/143/135 19/14/14
f 60/17/17 59/168/151 40/15/15
f 40/15/15 41/1/1 31/16/16
f 104/18/18 153/90/87 148/19/19
f 36/23/23 23/146/138 43/145/137
f 43/145/137 5/102/97 12/21/21
f 12/21/21 44/170/32 4/22/22
f 4/22/22 1/42/41 36/23/23
f 36/23/23 43/145/137 12/21/21
f 25/24/24 46/28/28 47/25/25
f 47/25/25 26/76/74 39/26/26
f 39/26/26 38/58/57 25/24/24
f 9/27/27 47/25/25 46/28/28
f 10/29/29 46/28/28 45/30/30
f 12/32/21 11/31/31 45/30/30
f 16/36/35 15/140/132 126/34/33
f 126/34/33 127/134/127 48/35/34
f 27/37/36 8/139/131 7/38/37
f 1/42/41 4/22/22 35/40/39
f 35/40/39 55/85/83 54/41/40
f 86/45/44 62/167/150 140/43/42
f 140/43/42 141/159/144 69/44/43
f 69/44/43 87/171/153 86/45/44
f 97/48/47 96/136/96 109/46/45
f 109/46/45 108/72/70 107/47/46
f 107/47/46 98/54/53 97/48/47
f 151/49/48 102/141/133 95/50/49
f 152/52/51 151/49/48 150/51/50
f 98/54/53 107/47/46 106/55/54
f 37/57/56 24/73/71 25/24/24
f 13/13/13 14/67/66 89/59/58
f 89/59/58 67/103/98 66/99/94
f 89/59/58 66/99/94 90/60/59
f 128/61/60 13/13/13 89/59/58
f 40/15/15 27/37/36 28/39/38
f 29/62/61 23/146/138 36/23/23
f 3/64/63 2/68/67 33/11/11
f 50/12/12 49/71/69 88/66/65
f 88/66/65 89/59/58 14/67/66
f 3/64/63 37/57/56 38/58/57
f 29/62/61 28/39/38 7/38/37
f 7/38/37 101/20/20 94/69/68
f 94/69/68 6/144/136 29/62/61
f 108/72/70 109/46/45 16/70/35
f 16/70/35 48/172/34 49/71/69
f 49/71/69 17/77/75 108/72/70
f 24/73/71 45/30/30 46/28/28
f 99/56/55 106/55/54 105/74/72
f 26/76/74 47/25/25 9/27/27
f 9/27/27 99/56/55 100/75/73
f 100/75/73 8/139/131 27/37/36
f 27/37/36 40/15/15 39/26/26
f 26/76/74 9/27/27 100/75/73
f 27/37/36 39/26/26 26/76/74
f 17/77/75 49/71/69 50/12/12
f 19/14/14 51/143/135 52/6/6
f 20/79/77 52/6/6 53/5/5
f 1/42/41 54/41/40 61/81/79
f 61/81/79 30/2/2 42/63/62
f 42/63/62 36/23/23 1/42/41
f 21/80/78 53/5/5 130/82/80
f 130/82/80 131/135/128 22/83/81
f 111/84/82 110/92/89 54/41/40
f 111/86/82 55/98/83 56/10/10
f 112/87/84 56/10/10 57/7/7
f 113/88/85 57/7/7 58/9/9
f 153/90/87 152/52/51 149/53/52
f 115/91/88 59/168/151 60/17/17
f 110/92/89 117/169/152 61/81/79
f 63/93/90 62/167/150 86/45/44
f 64/95/92 63/93/90 93/94/91
f 55/98/83 35/173/39 4/97/22
f 4/97/22 3/64/63 34/65/64
f 34/65/64 56/10/10 55/98/83
f 66/99/94 65/137/129 91/100/95
f 5/102/97 95/50/49 102/141/133
f 102/141/133 15/140/132 16/36/35
f 16/36/35 109/174/45 96/101/96
f 96/101/96 12/21/21 5/102/97
f 5/102/97 102/141/133 16/36/35
f 88/66/65 68/158/143 67/103/98
f 2/68/67 38/58/57 39/26/26
f 39/26/26 32/8/8 33/11/11
f 101/20/20 100/75/73 105/74/72
f 105/74/72 20/79/77 21/80/78
f 21/80/78 104/18/18 101/20/20
f 121/104/99 120/175/141 119/105/100
f 125/107/102 124/154/142 123/108/103
f 83/110/105 73/114/109 72/111/106
f 82/113/108 74/116/111 73/114/109
f 81/115/110 75/118/113 74/116/111
f 80/117/112 76/120/115 75/118/113
f 79/119/114 77/176/117 76/120/115
f 78/121/116 70/150/140 77/122/117
f 132/124/118 78/121/116 79/123/114
f 133/126/119 79/119/114 80/117/112
f 134/127/120 80/117/112 81/115/110
f 135/128/121 81/115/110 82/113/108
f 136/129/122 82/113/108 83/110/105
f 83/110/105 84/112/107 138/131/124
f 138/131/124 84/112/107 85/132/125
f 85/132/125 78/121/116 132/124/118
f 86/45/44 87/171/153 127/134/127
f 90/60/59 91/100/95 129/4/4
f 129/4/4 91/100/95 92/96/93
f 92/96/93 93/94/91 131/135/128
f 93/94/91 86/45/44 126/34/33
f 5/102/97 6/144/136 94/69/68
f 11/31/31 12/32/21 96/136/96
f 98/54/53 10/29/29 11/31/31
f 99/56/55 9/27/27 10/29/29
f 65/137/129 145/164/148 146/138/130
f 146/138/130 64/95/92 92/96/93
f 92/96/93 91/100/95 65/137/129
f 101/20/20 7/38/37 8/139/131
f 131/135/128 126/34/33 15/140/132
f 22/83/81 15/140/132 102/141/133
f 21/80/78 22/83/81 103/142/134
f 3/64/63 4/97/22 44/33/32
f 44/33/32 45/30/30 24/73/71
f 37/57/56 3/64/63 44/33/32
f 106/55/54 19/14/14 20/79/77
f 107/47/46 18/78/76 19/14/14
f 17/77/75 18/78/76 107/47/46
f 51/143/135 13/13/13 128/61/60
f 128/61/60 129/4/4 52/6/6
f 23/146/138 29/62/61 6/144/136
f 6/144/136 5/102/97 43/145/137
f 75/149/113 76/177/115 77/178/117
f 77/178/117 70/152/140 71/147/139
f 71/147/139 72/156/106 73/148/109
f 73/148/109 74/179/111 75/149/113
f 75/149/113 77/178/117 71/147/139
f 85/132/125 118/106/101 119/105/100
f 119/105/100 120/175/141 70/150/140
f 120/151/141 121/180/99 71/147/139
f 71/153/139 121/104/99 118/106/101
f 122/109/104 123/108/103 85/132/125
f 85/132/125 123/108/103 124/154/142
f 71/147/139 124/181/142 125/155/102
f 72/111/106 125/107/102 122/109/104
f 87/182/153 69/166/43 68/158/143
f 68/158/143 88/66/65 49/71/69
f 49/71/69 48/172/34 127/157/127
f 127/157/127 87/182/153 68/158/143
f 132/124/118 133/125/119 141/159/144
f 133/126/119 134/127/120 142/160/145
f 142/160/145 134/127/120 135/128/121
f 143/162/146 135/128/121 136/129/122
f 144/163/147 136/129/122 137/130/123
f 145/164/148 137/130/123 138/131/124
f 138/131/124 139/133/126 147/165/149
f 139/133/126 132/124/118 140/43/42
f 69/166/43 141/161/144 142/160/145
f 68/158/143 142/160/145 143/162/146
f 67/103/98 143/162/146 144/163/147
f 144/163/147 145/164/148 65/137/129
f 146/138/130 147/165/149 63/93/90
f 147/165/149 140/43/42 62/167/150
f 148/19/19 149/53/52 94/69/68
f 149/53/52 150/51/50 95/50/49
f 32/8/8 39/26/26 40/15/15
f 59/168/151 115/91/88 114/89/86
f 32/8/8 40/15/15 59/168/151
f 59/168/151 114/89/86 58/9/9
f 151/49/48 152/52/51 103/142/134
f 103/142/134 152/52/51 153/90/87
