# Blender 4.5.4 LTS
# www.blender.org
mtllib patdelizq.mtl
g pdizq_Mesh
v -1.358626 -0.659321 -0.467850
v -1.874907 -0.718544 0.860689
v -1.486533 -0.785760 0.761326
v -1.272127 -0.756725 0.236640
v -1.532696 -2.710712 0.164471
v -1.694654 -2.692393 -0.010050
v -1.940483 -2.683034 0.122555
v -1.987282 -2.707903 0.437025
v -1.905903 -2.736900 0.790360
v -1.697673 -2.763275 0.964977
v -1.530639 -2.763644 0.815601
v -1.470597 -2.743615 0.583931
v -1.836062 -4.882558 0.782944
v -1.759322 -4.918221 0.909777
v -1.596109 -3.734034 0.488458
v -1.549518 -3.751353 0.738323
v -1.589775 -3.769672 1.002622
v -1.763377 -3.776860 1.106333
v -1.869245 -3.761889 0.890341
v -1.896608 -3.743074 0.618890
v -1.828133 -3.730227 0.433537
v -1.711260 -3.726458 0.379153
v -1.458154 -1.613892 -0.201798
v -1.519903 -1.682062 0.776763
v -1.787438 -1.688349 0.872604
v -1.970752 -1.670279 0.617631
v -2.062547 -1.641581 0.205372
v -1.966407 -1.611086 -0.235256
v -1.681665 -1.597145 -0.438388
v -1.632960 -0.217887 -0.734720
v -1.987862 -0.137757 -0.508081
v -2.111884 -0.263937 0.648122
v -1.807624 -0.486756 0.964823
v -1.427895 -0.704460 0.766267
v -1.214728 -0.679851 0.186911
v -1.421503 -1.119873 -0.369281
v -1.509528 -1.246022 0.753379
v -1.828682 -1.198211 0.813833
v -2.023538 -1.138860 0.559177
v -2.099014 -1.097914 0.116038
v -1.975382 -1.068450 -0.343001
v -1.688736 -1.073177 -0.559972
v -1.492603 -2.065543 -0.045478
v -1.425140 -2.102538 0.488227
v -1.527635 -2.123441 0.789793
v -1.747008 -2.133128 0.929590
v -1.934421 -2.116365 0.687763
v -1.541693 -4.265424 0.793642
v -1.599633 -4.277107 0.962196
v -1.755628 -4.279646 0.998837
v -1.871066 -4.270402 0.865472
v -1.876088 -4.253751 0.625249
v -1.805404 -4.242732 0.466250
v -1.233276 -0.269562 -0.532732
v -1.161789 -0.550843 0.188668
v -1.351844 -0.562414 0.876557
v -1.793721 -0.347458 1.114799
v -2.120196 -0.110547 0.700283
v -2.210263 0.069157 0.033557
v -1.975021 0.063520 -0.570164
v -1.596316 -0.068871 -0.785196
v -1.519520 -5.866793 0.188019
v -1.656111 -5.833089 0.081231
v -1.778355 -5.842330 0.144933
v -1.836149 -5.886388 0.293439
v -1.847621 -5.900423 0.500513
v -1.746730 -5.924236 0.665262
v -1.598951 -5.931638 0.647975
v -1.507175 -5.910720 0.438405
v -1.338951 -6.340504 0.056012
v -1.639643 -6.318786 -0.257308
v -1.934193 -6.332731 -0.056119
v -1.893240 -6.347003 0.149767
v -1.875866 -6.373145 0.526927
v -1.757921 -6.387945 0.740460
v -1.559718 -6.385385 0.703521
v -1.413791 -6.363616 0.389456
v -1.309640 -6.211624 0.060318
v -1.377594 -6.237849 0.440998
v -1.536192 -6.268949 0.770700
v -1.787479 -6.284178 0.795938
v -1.967767 -6.232725 0.565536
v -1.974848 -6.165421 0.176710
v -1.960174 -6.154048 -0.124392
v -1.644861 -6.169614 -0.300692
v -1.563229 -5.661789 0.361096
v -1.539250 -5.696441 0.561542
v -1.615082 -5.721361 0.745450
v -1.746519 -5.718629 0.763879
v -1.826165 -5.690960 0.615391
v -1.814594 -5.672816 0.443517
v -1.759764 -5.650820 0.327272
v -1.668612 -5.640165 0.283891
v -1.714553 -3.076544 0.182441
v -1.592024 -3.149400 0.318264
v -1.518460 -3.258281 0.665772
v -1.562149 -3.269938 0.713062
v -1.702811 -3.258876 0.850701
v -1.887007 -3.224386 0.693157
v -1.943818 -3.211610 0.544770
v -1.863262 -3.099155 0.265085
v -1.605414 -3.448050 0.409816
v -1.716041 -3.466201 0.312820
v -1.839654 -3.424542 0.353500
v -1.928763 -3.385556 0.573992
v -1.879771 -3.394914 0.707783
v -1.704497 -3.422411 0.863594
v -1.570186 -3.429066 0.733123
v -1.529909 -3.419988 0.692760
v -1.810757 -0.269713 1.260338
v -2.131221 0.092251 0.775004
v -2.225984 0.313250 0.002569
v -1.931798 0.317515 -0.667020
v -1.533853 0.080290 -0.837981
v -1.560448 -6.176838 -0.397825
v -1.380200 -6.207679 -0.198971
v -1.406135 -6.338428 -0.175296
v -1.555230 -6.326011 -0.354441
v -1.886546 -6.156365 -0.290540
v -1.713260 -6.174098 -0.406319
v -1.708042 -6.323270 -0.362935
v -1.860042 -6.329119 -0.278540
v -1.581524 -5.263957 0.457063
v -1.550728 -5.322158 0.639684
v -1.822703 -5.294699 0.690447
v -1.813644 -5.278518 0.522431
v -1.759781 -5.265878 0.413097
v -1.682660 -5.262563 0.374636
v -1.435454 -6.158507 0.075422
v -1.415642 -6.204614 0.434706
v -1.555288 -6.234335 0.740043
v -1.778443 -6.234766 0.764413
v -1.934437 -6.194232 0.536391
v -1.928209 -6.154912 0.208377
v -1.844832 -6.114899 -0.036148
v -1.646391 -6.113891 -0.162263
v -1.488344 -6.012522 0.135983
v -1.473280 -6.057677 0.426778
v -1.582622 -6.081868 0.671769
v -1.758097 -6.077099 0.691695
v -1.879158 -6.047239 0.503262
v -1.869378 -6.024295 0.252073
v -1.802103 -5.981165 0.068714
v -1.652153 -5.974676 -0.017290
v -1.809338 -3.199005 0.248082
v -1.718945 -3.206451 0.219640
v -1.640623 -3.224246 0.281407
v -1.645961 -3.372524 0.327383
v -1.719334 -3.368139 0.274824
v -1.798817 -3.357652 0.293002
vn -0.8485 -0.1066 -0.5184
vn -0.7711 -0.1403 -0.6210
vn -0.3416 -0.2375 -0.9093
vn -0.9001 -0.0260 -0.4349
vn -0.9672 0.0200 -0.2532
vn -0.9880 -0.0205 -0.1532
vn -0.6390 -0.6238 0.4501
vn -0.9341 -0.1193 0.3364
vn -0.4758 -0.4687 0.7443
vn 0.5154 -0.7249 0.4570
vn 0.5577 -0.5874 0.5865
vn -0.9467 0.0828 0.3112
vn -0.9664 -0.0716 0.2469
vn -0.4442 -0.1717 0.8793
vn -0.9413 -0.0498 -0.3338
vn -0.9964 -0.0733 -0.0434
vn -0.8569 -0.0637 -0.5115
vn -0.7652 -0.1281 -0.6309
vn -0.4939 -0.2417 -0.8352
vn -0.4709 -0.3086 -0.8264
vn 0.8780 -0.2111 -0.4296
vn 0.8887 -0.1182 -0.4430
vn 0.8792 -0.4648 0.1048
vn -0.9079 0.0006 0.4191
vn -0.3746 0.0908 0.9227
vn -0.9384 -0.0819 0.3358
vn -0.2330 0.0628 0.9704
vn -0.9223 -0.0777 0.3785
vn -0.0379 -0.0789 0.9962
vn 0.8196 0.0001 0.5729
vn 0.8485 -0.0341 0.5281
vn 0.9990 -0.0430 -0.0075
vn 0.9983 0.0237 0.0526
vn 0.9944 -0.0113 0.1054
vn 0.8898 0.1005 -0.4452
vn -0.9949 -0.0677 -0.0750
vn -0.8512 -0.2381 -0.4678
vn -0.9910 -0.0799 0.1078
vn 0.8284 -0.2935 -0.4771
vn 0.9028 -0.4284 -0.0366
vn 0.8558 -0.5130 0.0666
vn 0.9731 0.1512 0.1737
vn 0.8838 0.3682 -0.2885
vn 0.9047 0.2632 -0.3351
vn 0.6898 -0.1442 0.7095
vn 0.1647 0.4551 0.8751
vn 0.9309 0.0918 0.3536
vn 0.3530 -0.2797 -0.8928
vn 0.6714 -0.2713 -0.6896
vn 0.6712 -0.1851 -0.7178
vn 0.1612 -0.3486 -0.9233
vn 0.1816 -0.2549 -0.9498
vn -0.8292 0.1472 0.5393
vn -0.0261 0.0246 0.9994
vn -0.8285 -0.0964 0.5517
vn 0.6668 -0.0076 0.7452
vn 0.8047 0.0059 0.5937
vn -0.9776 -0.0096 0.2100
vn -0.9760 0.0817 0.2021
vn -0.5046 -0.2629 0.8223
vn -0.8404 -0.1646 -0.5164
vn 0.1189 -0.2485 -0.9613
vn -0.0688 -0.2563 -0.9642
vn 0.6452 -0.1594 0.7472
vn 0.7250 -0.0799 0.6841
vn -0.4048 0.0491 0.9131
vn 0.1660 -0.4085 -0.8975
vn 0.7278 0.0384 0.6847
vn -0.9965 -0.0148 0.0817
vn -0.9949 -0.0853 0.0535
vn -0.9923 -0.1056 -0.0641
vn 0.8497 0.0857 0.5202
vn -0.5733 -0.0753 0.8159
vn -0.9931 -0.0498 -0.1061
vn 0.0215 0.1263 -0.9918
vn -0.8033 -0.1056 -0.5861
vn -0.7982 -0.5537 0.2373
vn -0.9422 -0.1826 0.2809
vn -0.9809 -0.0953 -0.1693
vn -0.9868 -0.1092 -0.1199
vn 0.1849 0.6462 -0.7404
vn 0.1942 0.4806 -0.8552
vn -0.7566 0.4553 -0.4693
vn -0.7493 0.3085 -0.5860
vn -0.9687 0.1572 -0.1923
vn 0.8998 -0.0980 0.4251
vn 0.9093 -0.1268 -0.3963
vn 0.8801 -0.1374 -0.4545
vn 0.7120 -0.1711 0.6810
vn -0.5514 -0.0971 0.8286
vn 0.7098 -0.0421 0.7032
vn -0.7306 0.0165 0.6826
vn 0.7671 0.5766 -0.2812
vn 0.1450 -0.8303 -0.5382
vn 0.2346 0.8260 -0.5125
vn 0.0711 0.7585 -0.6478
vn -0.5299 -0.7328 -0.4268
vn -0.6655 0.5573 -0.4965
vn -0.9645 0.1468 0.2195
vn -0.8105 -0.5769 -0.1011
vn -0.8390 -0.5436 0.0233
vn -0.8578 -0.3494 0.3770
vn -0.8044 -0.5757 0.1465
vn -0.3034 -0.3092 0.9013
vn -0.3949 -0.6305 0.6682
vn 0.7906 -0.0829 0.6067
vn 0.6170 -0.5414 0.5712
vn 0.9736 0.0774 0.2147
vn 0.8148 -0.5361 0.2208
vn 0.9092 0.4159 -0.0176
vn 0.7794 -0.6262 -0.0193
vn 0.6413 0.7414 -0.1976
vn 0.7670 0.5817 0.2708
vn 0.3900 0.5994 0.6991
vn -0.4080 0.5128 0.7553
vn -0.7386 0.6378 0.2184
vn -0.4887 0.8144 -0.3130
vn -0.5658 0.8227 -0.0548
vn 0.1478 0.9215 -0.3592
vn -0.7633 0.6193 -0.1839
vn 0.1795 0.8665 -0.4658
vn -0.9878 -0.0625 0.1429
vn -0.7420 0.0557 -0.6681
vn -0.3760 -0.3084 -0.8738
vn -0.7582 0.4544 -0.4677
vn -0.9524 0.2594 -0.1602
vn -0.7763 -0.1254 -0.6178
vn 0.9051 -0.0935 -0.4148
vn 0.1789 -0.1737 -0.9684
vn 0.1722 -0.2772 -0.9453
vn 0.8268 -0.0287 0.5618
vn -0.3884 0.2468 0.8878
vn 0.0136 -0.9770 -0.2129
vn 0.5086 -0.8170 -0.2719
vn 0.2945 -0.7038 -0.6465
vn 0.9341 0.2958 0.2000
vn 0.6107 0.3397 0.7153
vn -0.4242 0.3297 0.8434
vn -0.9160 0.2997 0.2667
vn -0.9282 0.3546 -0.1125
vn 0.1995 0.6078 -0.7686
vn 0.8735 0.3782 -0.3066
vn -0.9648 -0.1490 0.2169
vn 0.9655 -0.1417 -0.2183
vn -0.6379 -0.1090 -0.7624
vn -0.5248 -0.2003 -0.8273
vn 0.1391 -0.1475 0.9792
vn 0.9910 0.0194 0.1322
vn 0.6732 -0.3685 -0.6410
vn 0.9839 0.0338 0.1753
vt 0.598807 0.312073
vt 0.584532 0.376120
vt 0.570486 0.356124
vt 0.599461 0.155999
vt 0.602762 0.104470
vt 0.605369 0.155634
vt 0.654715 0.350654
vt 0.632213 0.353289
vt 0.651532 0.342052
vt 0.674306 0.331529
vt 0.668253 0.324329
vt 0.614710 0.179314
vt 0.610056 0.125144
vt 0.619562 0.154114
vt 0.592094 0.355163
vt 0.614718 0.311564
vt 0.589272 0.364448
vt 0.601403 0.197197
vt 0.598965 0.208486
vt 0.598919 0.200580
vt 0.576130 0.261073
vt 0.569195 0.305324
vt 0.543948 0.313619
vt 0.625373 0.260074
vt 0.638193 0.279702
vt 0.629142 0.309403
vt 0.636408 0.257386
vt 0.622211 0.229752
vt 0.632700 0.226727
vt 0.647473 0.255398
vt 0.641391 0.224433
vt 0.648906 0.223085
vt 0.580146 0.179903
vt 0.583162 0.104210
vt 0.589206 0.105466
vt 0.614250 0.284932
vt 0.602477 0.234557
vt 0.611594 0.232422
vt 0.562428 0.326218
vt 0.539100 0.323057
vt 0.542683 0.317836
vt 0.576499 0.080227
vt 0.577344 0.070035
vt 0.586779 0.086193
vt 0.634676 0.200572
vt 0.625449 0.194584
vt 0.635923 0.194071
vt 0.586907 0.209656
vt 0.591040 0.199224
vt 0.590261 0.206465
vt 0.594941 0.199895
vt 0.594393 0.207916
vt 0.615108 0.197384
vt 0.626655 0.202819
vt 0.616269 0.205925
vt 0.655242 0.298492
vt 0.650805 0.277039
vt 0.607706 0.084161
vt 0.607617 0.072479
vt 0.613840 0.084441
vt 0.600284 0.286388
vt 0.585325 0.285839
vt 0.582956 0.310129
vt 0.663938 0.320999
vt 0.627253 0.153165
vt 0.641011 0.304974
vt 0.593577 0.214277
vt 0.633686 0.193537
vt 0.638346 0.177543
vt 0.610210 0.198595
vt 0.610824 0.207250
vt 0.627084 0.282473
vt 0.630468 0.177058
vt 0.612673 0.154934
vt 0.606908 0.181015
vt 0.594613 0.104768
vt 0.600511 0.181781
vt 0.656234 0.356833
vt 0.632595 0.361161
vt 0.608579 0.378827
vt 0.610783 0.367312
vt 0.589064 0.073260
vt 0.592590 0.085130
vt 0.595132 0.072255
vt 0.597458 0.084209
vt 0.679315 0.309167
vt 0.687922 0.312867
vt 0.602235 0.083752
vt 0.577632 0.202024
vt 0.588559 0.195118
vt 0.581653 0.230525
vt 0.620148 0.084845
vt 0.615435 0.073648
vt 0.623325 0.075065
vt 0.645232 0.329969
vt 0.567676 0.056450
vt 0.570733 0.045939
vt 0.575094 0.051094
vt 0.582543 0.048487
vt 0.589557 0.040423
vt 0.589908 0.048356
vt 0.601519 0.053848
vt 0.598055 0.042543
vt 0.604450 0.044069
vt 0.611655 0.055336
vt 0.615136 0.048101
vt 0.620920 0.056169
vt 0.623462 0.051167
vt 0.630670 0.059828
vt 0.632793 0.054197
vt 0.641475 0.064869
vt 0.643982 0.058705
vt 0.565238 0.063612
vt 0.555935 0.071497
vt 0.559397 0.061142
vt 0.571322 0.064964
vt 0.562386 0.074073
vt 0.639567 0.066595
vt 0.629638 0.061518
vt 0.620187 0.058633
vt 0.610835 0.057575
vt 0.592553 0.056575
vt 0.601517 0.056366
vt 0.579896 0.052423
vt 0.594601 0.050892
vt 0.581870 0.057471
vt 0.607956 0.104463
vt 0.598515 0.104654
vt 0.590424 0.233476
vt 0.637353 0.200423
vt 0.593856 0.064473
vt 0.600849 0.071234
vt 0.601619 0.213531
vt 0.588104 0.181103
vt 0.594617 0.181821
vt 0.594921 0.194927
vt 0.657695 0.253806
vt 0.622216 0.177517
vt 0.651062 0.131346
vt 0.669201 0.146277
vt 0.658456 0.160160
vt 0.646854 0.159042
vt 0.642788 0.152364
vt 0.576483 0.044364
vt 0.580679 0.042374
vt 0.669188 0.159526
vt 0.662163 0.162988
vt 0.626212 0.102450
vt 0.571277 0.076887
vt 0.626252 0.068410
vt 0.634842 0.072367
vt 0.617687 0.066240
vt 0.609021 0.064957
vt 0.600958 0.063723
vt 0.585795 0.065705
vt 0.631012 0.077655
vt 0.582220 0.075571
vt 0.632890 0.371658
vt 0.572842 0.282279
vt 0.573468 0.349338
vt 0.566337 0.362839
vt 0.615320 0.123493
vt 0.560854 0.254245
vt 0.569848 0.224947
vt 0.579262 0.155126
vt 0.553281 0.343626
vt 0.580503 0.088229
vt 0.633173 0.152376
vt 0.683231 0.309695
vt 0.578988 0.194993
vt 0.563054 0.053001
vt 0.564701 0.074626
vt 0.645174 0.141767
vt 0.660495 0.129064
vt 0.666974 0.134884
vt 0.671935 0.152311
vt 0.654714 0.163626
vt 0.626776 0.085752
s 1
g off
g pdizq_Girrafe_texture
usemtl Girrafe_texture
f 41/1/1 113/2/2 61/3/3
f 53/4/4 126/5/5 52/6/6
f 57/7/7 32/8/8 33/9/9
f 56/10/10 33/9/9 34/11/11
f 19/12/12 13/13/13 50/14/14
f 31/15/15 40/16/16 60/17/17
f 104/18/18 145/19/19 150/20/20
f 43/21/21 36/22/22 4/23/23
f 47/24/24 25/25/25 39/26/26
f 46/27/27 9/28/28 10/29/29
f 45/30/30 10/29/29 11/31/31
f 12/32/32 45/30/30 11/31/31
f 16/33/33 124/34/34 123/35/35
f 27/36/36 7/37/37 8/38/38
f 1/39/39 55/40/40 35/41/41
f 69/42/42 137/43/43 86/44/44
f 97/45/45 107/46/46 109/47/47
f 95/48/48 148/49/49 147/50/50
f 147/50/50 149/51/51 146/52/52
f 106/53/53 98/54/54 99/55/55
f 37/56/56 25/25/25 24/57/57
f 90/58/58 66/59/59 89/60/60
f 40/16/16 28/61/61 27/36/36
f 36/22/22 29/62/62 42/63/63
f 33/9/9 3/64/64 34/11/11
f 89/60/60 49/65/65 50/14/14
f 3/64/64 38/66/66 37/56/56
f 29/62/62 94/67/67 7/37/37
f 108/68/68 49/65/65 16/69/33
f 24/57/57 46/27/27 45/30/30
f 105/70/69 99/55/55 100/71/70
f 99/55/55 26/72/71 40/16/16
f 17/73/72 50/14/14 49/65/65
f 19/12/12 52/6/6 51/74/73
f 20/75/74 53/4/4 52/6/6
f 61/3/3 1/39/39 42/63/63
f 128/76/75 53/4/4 21/77/76
f 110/78/77 58/79/78 57/7/7
f 146/52/52 150/20/20 145/19/19
f 112/80/79 60/17/17 59/81/80
f 86/44/44 63/82/81 93/83/82
f 93/83/82 64/84/83 92/85/84
f 34/11/11 4/86/23 55/87/40
f 91/88/85 66/59/59 90/58/58
f 96/89/86 102/90/87 5/91/88
f 88/92/89 67/93/90 68/94/91
f 39/26/26 2/95/92 33/9/9
f 104/18/18 20/75/74 100/71/70
f 116/96/93 118/97/94 115/98/95
f 120/99/96 122/100/97 119/101/98
f 83/102/99 72/103/100 73/104/101
f 82/105/102 73/104/101 74/106/103
f 81/107/104 74/106/103 75/108/105
f 80/109/106 75/108/105 76/110/107
f 79/111/108 76/110/107 77/112/109
f 78/113/110 77/114/109 70/115/111
f 129/116/112 79/117/108 78/113/110
f 130/118/113 80/109/106 79/111/108
f 131/119/114 81/107/104 80/109/106
f 132/120/115 82/105/102 81/107/104
f 133/121/116 83/102/99 82/105/102
f 135/122/117 83/102/99 134/123/118
f 135/122/117 85/124/119 84/125/120
f 129/116/112 85/124/119 136/126/121
f 124/34/34 86/44/44 123/35/35
f 126/5/5 90/58/58 125/127/122
f 126/5/5 92/85/84 91/88/85
f 128/76/75 92/85/84 127/128/123
f 123/35/35 93/83/82 128/76/75
f 5/91/88 94/67/67 6/129/124
f 96/130/86 11/31/31 97/45/45
f 98/54/54 11/31/31 10/29/29
f 99/55/55 10/29/29 9/28/28
f 143/131/125 65/132/126 92/85/84
f 101/133/127 8/38/38 7/37/37
f 128/76/75 15/134/128 123/35/35
f 102/90/87 22/135/129 103/136/130
f 103/136/130 21/77/76 104/18/18
f 37/56/56 45/30/30 44/137/131
f 106/53/53 20/75/74 19/12/12
f 107/46/46 19/12/12 18/138/132
f 107/46/46 17/73/72 108/68/68
f 126/5/5 13/13/13 51/74/73
f 76/139/107 73/140/101 71/141/133
f 85/124/119 116/96/93 115/98/95
f 70/115/111 116/96/93 78/113/110
f 71/141/133 117/142/134 70/143/111
f 71/144/133 115/98/95 118/97/94
f 85/124/119 119/101/98 84/125/120
f 85/124/119 121/145/135 120/99/96
f 71/141/133 122/146/97 121/147/135
f 72/103/100 119/101/98 122/100/97
f 68/94/91 124/148/34 49/65/65
f 138/149/136 129/116/112 137/43/43
f 139/150/137 130/118/113 138/151/136
f 139/150/137 132/120/115 131/119/114
f 140/152/138 133/121/116 132/120/115
f 141/153/139 134/123/118 133/121/116
f 142/154/140 135/122/117 134/123/118
f 144/155/141 135/122/117 143/131/125
f 137/43/43 136/126/121 144/155/141
f 69/156/42 139/150/137 138/151/136
f 68/94/91 140/152/138 139/150/137
f 67/93/90 141/153/139 140/152/138
f 65/132/126 141/153/139 66/59/59
f 63/82/81 143/131/125 64/84/83
f 62/157/142 144/155/141 63/82/81
f 94/67/67 145/19/19 101/133/127
f 95/48/48 146/52/52 94/67/67
f 59/81/80 58/79/78 111/158/143
f 103/136/130 148/49/49 102/90/87
f 103/136/130 150/20/20 149/51/51
f 23/159/144 43/21/21 6/129/124
f 42/63/63 29/62/62 28/61/61
f 41/1/1 31/15/15 60/17/17
f 42/63/63 28/61/61 41/1/1
f 30/160/145 42/63/63 41/1/1
f 41/1/1 60/17/17 113/2/2
f 113/2/2 114/161/146 61/3/3
f 61/3/3 30/160/145 41/1/1
f 53/4/4 127/128/123 126/5/5
f 57/7/7 58/79/78 32/8/8
f 56/10/10 57/7/7 33/9/9
f 50/14/14 18/138/132 19/12/12
f 19/12/12 51/74/73 13/13/13
f 13/13/13 14/162/147 50/14/14
f 31/15/15 41/1/1 40/16/16
f 40/16/16 59/81/80 60/17/17
f 104/18/18 101/133/127 145/19/19
f 4/23/23 44/163/131 12/164/32
f 12/164/32 5/91/88 43/21/21
f 43/21/21 23/159/144 36/22/22
f 36/22/22 1/39/39 4/23/23
f 4/23/23 12/164/32 43/21/21
f 39/26/26 26/72/71 47/24/24
f 47/24/24 46/27/27 25/25/25
f 25/25/25 38/66/66 39/26/26
f 46/27/27 47/24/24 9/28/28
f 45/30/30 46/27/27 10/29/29
f 12/32/32 44/137/131 45/30/30
f 123/35/35 15/134/128 16/33/33
f 16/33/33 48/165/148 124/34/34
f 27/36/36 28/61/61 7/37/37
f 35/41/41 4/23/23 1/39/39
f 1/39/39 54/166/149 55/40/40
f 69/42/42 138/149/136 137/43/43
f 137/43/43 62/157/142 86/44/44
f 86/44/44 87/167/150 69/42/42
f 97/45/45 98/54/54 107/46/46
f 107/46/46 108/68/68 109/47/47
f 109/47/47 96/130/86 97/45/45
f 95/48/48 102/90/87 148/49/49
f 147/50/50 148/49/49 149/51/51
f 106/53/53 107/46/46 98/54/54
f 37/56/56 38/66/66 25/25/25
f 89/60/60 14/162/147 13/13/13
f 89/60/60 13/13/13 125/127/122
f 66/59/59 67/93/90 89/60/60
f 89/60/60 125/127/122 90/58/58
f 40/16/16 41/1/1 28/61/61
f 36/22/22 23/159/144 29/62/62
f 33/9/9 2/95/92 3/64/64
f 50/14/14 14/162/147 89/60/60
f 89/60/60 88/92/89 49/65/65
f 3/64/64 2/95/92 38/66/66
f 7/37/37 28/61/61 29/62/62
f 29/62/62 6/129/124 94/67/67
f 94/67/67 101/133/127 7/37/37
f 16/69/33 109/47/47 108/68/68
f 108/68/68 17/73/72 49/65/65
f 49/65/65 48/168/148 16/69/33
f 24/57/57 25/25/25 46/27/27
f 105/70/69 106/53/53 99/55/55
f 40/16/16 27/36/36 8/38/38
f 8/38/38 100/71/70 99/55/55
f 99/55/55 9/28/28 47/24/24
f 26/72/71 39/26/26 40/16/16
f 99/55/55 47/24/24 26/72/71
f 40/16/16 8/38/38 99/55/55
f 17/73/72 18/138/132 50/14/14
f 19/12/12 20/75/74 52/6/6
f 20/75/74 21/77/76 53/4/4
f 42/63/63 30/160/145 61/3/3
f 61/3/3 54/166/149 1/39/39
f 1/39/39 36/22/22 42/63/63
f 21/77/76 22/135/129 128/76/75
f 128/76/75 127/128/123 53/4/4
f 110/78/77 111/158/143 58/79/78
f 146/52/52 149/51/51 150/20/20
f 112/80/79 113/2/2 60/17/17
f 86/44/44 62/157/142 63/82/81
f 93/83/82 63/82/81 64/84/83
f 34/11/11 3/64/64 4/86/23
f 4/86/23 35/169/41 55/87/40
f 55/87/40 56/10/10 34/11/11
f 91/88/85 65/132/126 66/59/59
f 96/89/86 109/170/47 16/33/33
f 16/33/33 15/134/128 102/90/87
f 102/90/87 95/48/48 5/91/88
f 5/91/88 12/164/32 96/89/86
f 96/89/86 16/33/33 102/90/87
f 88/92/89 89/60/60 67/93/90
f 33/9/9 32/8/8 39/26/26
f 39/26/26 38/66/66 2/95/92
f 100/71/70 101/133/127 104/18/18
f 104/18/18 21/77/76 20/75/74
f 20/75/74 105/70/69 100/71/70
f 116/96/93 117/171/134 118/97/94
f 120/99/96 121/145/135 122/100/97
f 83/102/99 84/125/120 72/103/100
f 82/105/102 83/102/99 73/104/101
f 81/107/104 82/105/102 74/106/103
f 80/109/106 81/107/104 75/108/105
f 79/111/108 80/109/106 76/110/107
f 78/113/110 79/117/108 77/114/109
f 129/116/112 130/172/113 79/117/108
f 130/118/113 131/119/114 80/109/106
f 131/119/114 132/120/115 81/107/104
f 132/120/115 133/121/116 82/105/102
f 133/121/116 134/123/118 83/102/99
f 135/122/117 84/125/120 83/102/99
f 135/122/117 136/126/121 85/124/119
f 129/116/112 78/113/110 85/124/119
f 124/34/34 87/167/150 86/44/44
f 126/5/5 91/88/85 90/58/58
f 126/5/5 127/128/123 92/85/84
f 128/76/75 93/83/82 92/85/84
f 123/35/35 86/44/44 93/83/82
f 5/91/88 95/48/48 94/67/67
f 96/130/86 12/32/32 11/31/31
f 98/54/54 97/45/45 11/31/31
f 99/55/55 98/54/54 10/29/29
f 92/85/84 64/84/83 143/131/125
f 143/131/125 142/154/140 65/132/126
f 65/132/126 91/88/85 92/85/84
f 101/133/127 100/71/70 8/38/38
f 128/76/75 22/135/129 15/134/128
f 102/90/87 15/134/128 22/135/129
f 103/136/130 22/135/129 21/77/76
f 44/137/131 4/86/23 3/64/64
f 37/56/56 24/57/57 45/30/30
f 44/137/131 3/64/64 37/56/56
f 106/53/53 105/70/69 20/75/74
f 107/46/46 106/53/53 19/12/12
f 107/46/46 18/138/132 17/73/72
f 51/74/73 52/6/6 126/5/5
f 126/5/5 125/127/122 13/13/13
f 70/143/111 77/173/109 76/139/107
f 76/139/107 75/174/105 74/175/103
f 73/140/101 72/176/100 71/141/133
f 76/139/107 74/175/103 73/140/101
f 71/141/133 70/143/111 76/139/107
f 85/124/119 78/113/110 116/96/93
f 70/115/111 117/171/134 116/96/93
f 71/141/133 118/177/94 117/142/134
f 71/144/133 85/124/119 115/98/95
f 85/124/119 120/99/96 119/101/98
f 85/124/119 71/144/133 121/145/135
f 71/141/133 72/176/100 122/146/97
f 72/103/100 84/125/120 119/101/98
f 49/65/65 88/92/89 68/94/91
f 68/94/91 69/156/42 87/178/150
f 124/148/34 48/168/148 49/65/65
f 68/94/91 87/178/150 124/148/34
f 138/149/136 130/172/113 129/116/112
f 139/150/137 131/119/114 130/118/113
f 139/150/137 140/152/138 132/120/115
f 140/152/138 141/153/139 133/121/116
f 141/153/139 142/154/140 134/123/118
f 142/154/140 143/131/125 135/122/117
f 144/155/141 136/126/121 135/122/117
f 137/43/43 129/116/112 136/126/121
f 69/156/42 68/94/91 139/150/137
f 68/94/91 67/93/90 140/152/138
f 67/93/90 66/59/59 141/153/139
f 65/132/126 142/154/140 141/153/139
f 63/82/81 144/155/141 143/131/125
f 62/157/142 137/43/43 144/155/141
f 94/67/67 146/52/52 145/19/19
f 95/48/48 147/50/50 146/52/52
f 59/81/80 40/16/16 39/26/26
f 59/81/80 39/26/26 32/8/8
f 111/158/143 112/80/79 59/81/80
f 59/81/80 32/8/8 58/79/78
f 103/136/130 149/51/51 148/49/49
f 103/136/130 104/18/18 150/20/20
f 6/129/124 29/62/62 23/159/144
f 43/21/21 5/91/88 6/129/124
