# Blender 4.5.4 LTS
# www.blender.org
o PastoSeco
v 6.824191 0.461643 -5.201849
v 5.389514 0.323693 -5.201849
v 4.613072 0.143453 -5.201850
v 4.513156 0.045908 -5.201850
v 8.718179 0.536301 -5.327447
v 7.761438 0.507848 -5.448219
v 6.879702 0.461643 -5.559524
v 6.106853 0.399461 -5.657084
v 5.472592 0.323693 -5.737148
v 5.001294 0.237250 -5.796642
v 4.711070 0.143453 -5.833278
v 4.613073 0.045908 -5.845649
v 8.775908 0.536301 -5.448219
v 7.874678 0.507848 -5.685122
v 7.044101 0.461643 -5.903454
v 6.316092 0.399461 -6.094823
v 5.718633 0.323693 -6.251876
v 5.274679 0.237250 -6.368577
v 5.001294 0.143453 -6.440441
v 4.908983 0.045908 -6.464706
v 8.869656 0.536301 -5.559523
v 8.058570 0.507848 -5.903454
v 7.311070 0.461643 -6.220422
v 6.655880 0.399461 -6.498247
v 6.118180 0.323693 -6.726251
v 5.718633 0.237250 -6.895674
v 5.472593 0.143453 -7.000005
v 5.389515 0.045908 -7.035233
v 8.995818 0.536301 -5.657082
v 8.306046 0.507848 -6.094822
v 7.670350 0.461643 -6.498246
v 7.113156 0.399461 -6.851850
v 6.655881 0.323693 -7.142045
v 6.316093 0.237250 -7.357679
v 6.106854 0.143453 -7.490466
v 6.036203 0.045908 -7.535303
v 9.149547 0.536301 -5.737147
v 8.607597 0.507848 -6.251875
v 8.108133 0.461643 -6.726251
v 7.670350 0.399461 -7.142045
v 7.311071 0.323693 -7.483277
v 7.044101 0.237250 -7.736836
v 6.879704 0.143453 -7.892978
v 6.824193 0.045908 -7.945700
v 9.713156 0.545908 -5.201848
v 9.324936 0.536301 -5.796640
v 8.951634 0.507848 -6.368575
v 8.607597 0.461643 -6.895673
v 8.306047 0.399461 -7.357678
v 8.058572 0.323693 -7.736836
v 7.874680 0.237250 -8.018576
v 7.761440 0.143453 -8.192071
v 7.723205 0.045908 -8.250652
v 9.515243 0.536301 -5.833276
v 9.324936 0.507848 -6.440438
v 9.149548 0.461643 -7.000003
v 8.995818 0.399461 -7.490465
v 8.869657 0.323693 -7.892977
v 8.775909 0.237250 -8.192070
v 8.718181 0.143453 -8.376251
v 8.698689 0.045908 -8.438440
v 9.713156 0.536301 -5.845646
v 9.713157 0.507848 -6.464704
v 9.713157 0.461643 -7.035230
v 9.713157 0.399461 -7.535301
v 9.713158 0.323693 -7.945698
v 9.713157 0.237250 -8.250651
v 9.713158 0.143453 -8.438440
v 9.713159 0.045908 -8.501848
v 9.713156 0.536301 -4.558050
v 9.713155 0.507848 -3.938992
v 9.713154 0.461643 -3.368466
v 9.713155 0.399461 -2.868394
v 9.713154 0.323693 -2.457998
v 9.713154 0.237250 -2.153044
v 9.713153 0.143453 -1.965255
v 9.713152 0.045908 -1.901849
v 9.515243 0.536301 -4.570420
v 9.324934 0.507848 -3.963258
v 9.149546 0.461643 -3.403694
v 8.995816 0.399461 -2.913231
v 8.869654 0.323693 -2.510721
v 8.775907 0.237250 -2.211627
v 8.718177 0.143453 -2.027447
v 8.698683 0.045908 -1.965258
v 9.324935 0.536301 -4.607056
v 8.951632 0.507848 -4.035121
v 8.607596 0.461643 -3.508025
v 8.306046 0.399461 -3.046019
v 8.058569 0.323693 -2.666862
v 7.874678 0.237250 -2.385122
v 7.761436 0.143453 -2.211628
v 7.723200 0.045908 -2.153048
v 9.149547 0.536301 -4.666550
v 8.607596 0.507848 -4.151822
v 8.108132 0.461643 -3.677448
v 7.670348 0.399461 -3.261653
v 7.311069 0.323693 -2.920421
v 7.044100 0.237250 -2.666862
v 6.879700 0.143453 -2.510722
v 6.824190 0.045908 -2.458001
v 8.995818 0.536301 -4.746614
v 8.306046 0.507848 -4.308875
v 7.670349 0.461643 -3.905453
v 7.113156 0.399461 -3.551848
v 6.655880 0.323693 -3.261655
v 6.316093 0.237250 -3.046020
v 6.106853 0.143453 -2.913234
v 6.036201 0.045908 -2.868399
v 8.869656 0.536301 -4.844173
v 8.058570 0.507848 -4.500244
v 7.311070 0.461643 -4.183277
v 6.655879 0.399461 -3.905452
v 6.118180 0.323693 -3.677449
v 5.718633 0.237250 -3.508025
v 5.472592 0.143453 -3.403696
v 5.389516 0.045908 -3.368470
v 8.775908 0.536301 -4.955477
v 7.874679 0.507848 -4.718575
v 7.044102 0.461643 -4.500245
v 6.316092 0.399461 -4.308876
v 5.718634 0.323693 -4.151824
v 5.274680 0.237250 -4.035123
v 5.001295 0.143453 -3.963261
v 4.908987 0.045908 -3.938997
v 8.718180 0.536301 -5.076250
v 7.761439 0.507848 -4.955478
v 6.879704 0.461643 -4.844175
v 6.106853 0.399461 -4.746615
v 5.472594 0.323693 -4.666552
v 5.001295 0.237250 -4.607058
v 4.711071 0.143453 -4.570423
v 4.613078 0.045908 -4.558054
v 8.698688 0.536301 -5.201848
v 7.723203 0.507848 -5.201849
v 6.036201 0.399461 -5.201849
v 4.908985 0.237250 -5.201850
vn -0.0663 0.9978 -0.0000
vn -0.1497 0.9887 -0.0000
vn -0.5305 0.8477 -0.0000
vn -0.6986 0.7155 -0.0000
vn -0.0198 0.9998 -0.0064
vn -0.0405 0.9991 -0.0129
vn -0.0650 0.9977 -0.0206
vn -0.0973 0.9948 -0.0308
vn -0.1465 0.9881 -0.0464
vn -0.2404 0.9677 -0.0763
vn -0.5140 0.8423 -0.1621
vn -0.6780 0.7068 -0.2019
vn -0.0185 0.9998 -0.0124
vn -0.0379 0.9990 -0.0251
vn -0.0609 0.9973 -0.0402
vn -0.0913 0.9940 -0.0602
vn -0.1373 0.9864 -0.0905
vn -0.2242 0.9632 -0.1481
vn -0.4689 0.8279 -0.3076
vn -0.6202 0.6829 -0.3859
vn -0.0165 0.9997 -0.0178
vn -0.0339 0.9988 -0.0362
vn -0.0546 0.9968 -0.0581
vn -0.0817 0.9929 -0.0869
vn -0.1226 0.9838 -0.1305
vn -0.1992 0.9567 -0.2121
vn -0.4047 0.8083 -0.4278
vn -0.5351 0.6504 -0.5391
vn -0.0139 0.9997 -0.0224
vn -0.0287 0.9985 -0.0458
vn -0.0462 0.9962 -0.0736
vn -0.0691 0.9915 -0.1100
vn -0.1035 0.9809 -0.1648
vn -0.1671 0.9494 -0.2661
vn -0.3297 0.7873 -0.5210
vn -0.4343 0.6164 -0.6568
vn -0.0108 0.9996 -0.0261
vn -0.0224 0.9983 -0.0536
vn -0.0361 0.9956 -0.0861
vn -0.0540 0.9902 -0.1287
vn -0.0808 0.9780 -0.1924
vn -0.1296 0.9422 -0.3089
vn -0.2495 0.7684 -0.5894
vn -0.3267 0.5865 -0.7412
vn -0.0051 1.0000 -0.0000
vn -0.0074 0.9996 -0.0288
vn -0.0154 0.9981 -0.0594
vn -0.0248 0.9951 -0.0954
vn -0.0371 0.9891 -0.1425
vn -0.0553 0.9756 -0.2127
vn -0.0884 0.9363 -0.3398
vn -0.1671 0.7535 -0.6359
vn -0.2174 0.5638 -0.7968
vn -0.0037 0.9995 -0.0305
vn -0.0078 0.9980 -0.0628
vn -0.0126 0.9948 -0.1010
vn -0.0188 0.9884 -0.1509
vn -0.0281 0.9739 -0.2250
vn -0.0448 0.9325 -0.3584
vn -0.0837 0.7440 -0.6629
vn -0.1084 0.5497 -0.8283
vn -0.0019 0.9995 -0.0310
vn -0.0040 0.9979 -0.0640
vn -0.0064 0.9947 -0.1029
vn -0.0096 0.9881 -0.1537
vn -0.0143 0.9733 -0.2291
vn -0.0228 0.9309 -0.3645
vn -0.0419 0.7402 -0.6711
vn -0.0523 0.5443 -0.8373
vn -0.0019 0.9995 0.0310
vn -0.0040 0.9979 0.0640
vn -0.0064 0.9947 0.1029
vn -0.0096 0.9881 0.1537
vn -0.0143 0.9733 0.2291
vn -0.0228 0.9309 0.3645
vn -0.0419 0.7402 0.6711
vn -0.0523 0.5443 0.8373
vn -0.0037 0.9995 0.0305
vn -0.0078 0.9980 0.0628
vn -0.0126 0.9948 0.1010
vn -0.0188 0.9884 0.1509
vn -0.0281 0.9739 0.2250
vn -0.0448 0.9325 0.3584
vn -0.0837 0.7440 0.6629
vn -0.1084 0.5497 0.8283
vn -0.0074 0.9996 0.0288
vn -0.0154 0.9981 0.0594
vn -0.0248 0.9951 0.0954
vn -0.0371 0.9891 0.1425
vn -0.0553 0.9756 0.2127
vn -0.0884 0.9363 0.3398
vn -0.1671 0.7535 0.6359
vn -0.2174 0.5637 0.7968
vn -0.0108 0.9996 0.0261
vn -0.0224 0.9983 0.0536
vn -0.0361 0.9956 0.0861
vn -0.0540 0.9902 0.1287
vn -0.0808 0.9780 0.1924
vn -0.1296 0.9422 0.3089
vn -0.2495 0.7684 0.5894
vn -0.3267 0.5865 0.7412
vn -0.0139 0.9997 0.0224
vn -0.0287 0.9985 0.0458
vn -0.0462 0.9962 0.0736
vn -0.0691 0.9915 0.1100
vn -0.1035 0.9809 0.1648
vn -0.1671 0.9494 0.2661
vn -0.3297 0.7873 0.5210
vn -0.4343 0.6164 0.6568
vn -0.0165 0.9997 0.0178
vn -0.0339 0.9988 0.0362
vn -0.0546 0.9968 0.0581
vn -0.0817 0.9929 0.0869
vn -0.1226 0.9838 0.1305
vn -0.1992 0.9567 0.2121
vn -0.4047 0.8083 0.4278
vn -0.5351 0.6504 0.5391
vn -0.0185 0.9998 0.0124
vn -0.0379 0.9990 0.0251
vn -0.0609 0.9973 0.0402
vn -0.0913 0.9940 0.0602
vn -0.1373 0.9864 0.0905
vn -0.2242 0.9632 0.1481
vn -0.4689 0.8279 0.3076
vn -0.6202 0.6829 0.3859
vn -0.0198 0.9998 0.0064
vn -0.0405 0.9991 0.0129
vn -0.0650 0.9977 0.0206
vn -0.0973 0.9948 0.0308
vn -0.1465 0.9881 0.0464
vn -0.2404 0.9677 0.0763
vn -0.5140 0.8423 0.1621
vn -0.6780 0.7068 0.2019
vn -0.0203 0.9998 -0.0000
vn -0.0413 0.9991 -0.0000
vn -0.0994 0.9951 -0.0000
vn -0.2460 0.9693 -0.0000
vt 0.422424 0.501097
vt 0.527104 0.435370
vt 0.537102 0.501400
vt 0.619730 0.424045
vt 0.631451 0.501648
vt 0.689227 0.415483
vt 0.702224 0.501835
vt 0.733556 0.409815
vt 0.747362 0.501954
vt 0.753667 0.406409
vt 0.767878 0.502008
vt 0.149031 0.500376
vt -0.000000 0.499983
vt 0.146228 0.481970
vt 0.286040 0.464834
vt 0.291499 0.500752
vt 0.414537 0.449119
vt 0.269685 0.430233
vt 0.390902 0.399028
vt 0.497123 0.371707
vt 0.584563 0.349184
vt 0.650191 0.332137
vt 0.692059 0.320848
vt 0.710952 0.314136
vt 0.137834 0.464245
vt 0.586463 0.254856
vt 0.624280 0.238298
vt 0.641213 0.228589
vt 0.124163 0.447873
vt 0.243043 0.398243
vt 0.352390 0.352685
vt 0.448249 0.312766
vt 0.527191 0.279821
vt 0.300425 0.311822
vt 0.382273 0.260752
vt 0.449698 0.218564
vt 0.500336 0.186559
vt 0.532642 0.165315
vt 0.546989 0.153052
vt 0.105733 0.433475
vt 0.207108 0.370066
vt 0.420549 0.104734
vt 0.431816 0.090429
vt 0.083242 0.421599
vt 0.163225 0.346765
vt 0.236938 0.277978
vt 0.301638 0.217628
vt 0.354955 0.167743
vt 0.395005 0.129872
vt 0.209353 0.185020
vt 0.246516 0.129284
vt 0.274437 0.086967
vt 0.292245 0.058889
vt 0.300072 0.043092
vt 0.057541 0.412701
vt 0.113037 0.329228
vt 0.164293 0.252435
vt 0.156814 0.012739
vt 0.029606 0.407122
vt 0.058430 0.318133
vt 0.085201 0.236169
vt 0.108851 0.164154
vt 0.128438 0.104598
vt 0.143200 0.059399
vt 0.152640 0.029446
vt 0.003825 0.155821
vt 0.004992 0.094539
vt 0.006026 0.047978
vt 0.006888 0.017117
vt 0.007758 -0.000000
vt 0.000500 0.405082
vt 0.001464 0.313916
vt 0.002615 0.229819
vt 0.003642 0.952014
vt 0.126351 0.896040
vt 0.140874 0.941316
vt 0.004342 0.982878
vt 0.150156 0.971318
vt 0.005122 1.000000
vt 0.154242 0.988048
vt -0.000000 0.594886
vt 0.029116 0.592999
vt 0.000483 0.686056
vt 0.057470 0.682139
vt 0.001190 0.770157
vt 0.083809 0.764243
vt 0.002010 0.844161
vt 0.107078 0.836382
vt 0.002854 0.905448
vt 0.057080 0.587568
vt 0.112135 0.671332
vt 0.162985 0.748395
vt 0.207689 0.816046
vt 0.244557 0.871977
vt 0.272255 0.914441
vt 0.289914 0.942613
vt 0.297658 0.958450
vt 0.353198 0.834091
vt 0.393047 0.872172
vt 0.418459 0.897445
vt 0.429650 0.911809
vt 0.082827 0.578805
vt 0.162414 0.654060
vt 0.235763 0.723234
vt 0.300145 0.783926
vt 0.206420 0.630991
vt 0.299428 0.689725
vt 0.381006 0.741227
vt 0.448207 0.783770
vt 0.498676 0.816042
vt 0.530870 0.837455
vt 0.545151 0.849794
vt 0.105381 0.567048
vt 0.585162 0.748200
vt 0.622891 0.764956
vt 0.639772 0.774755
vt 0.123887 0.552747
vt 0.242503 0.603004
vt 0.351608 0.649137
vt 0.447256 0.689562
vt 0.526022 0.722923
vt 0.269313 0.571155
vt 0.390364 0.602998
vt 0.496439 0.630880
vt 0.583759 0.653863
vt 0.649296 0.671256
vt 0.691104 0.682766
vt 0.709961 0.689577
vt 0.137643 0.536448
vt 0.688772 0.588117
vt 0.733070 0.594019
vt 0.753163 0.597530
vt 0.146131 0.518767
vt 0.285850 0.536640
vt 0.414263 0.553033
vt 0.526756 0.567375
vt 0.619321 0.579188
s 1
f 1/1/1 8/2/8 136/3/136
f 136/3/136 9/4/9 2/5/2
f 2/5/2 10/6/10 137/7/137
f 137/7/137 11/8/11 3/9/3
f 3/9/3 12/10/12 4/11/4
f 134/12/134 45/13/45 5/14/5
f 134/12/134 6/15/6 135/16/135
f 135/16/135 7/17/7 1/1/1
f 5/14/5 14/18/14 6/15/6
f 6/15/6 15/19/15 7/17/7
f 7/17/7 16/20/16 8/2/8
f 8/2/8 17/21/17 9/4/9
f 9/4/9 18/22/18 10/6/10
f 10/6/10 19/23/19 11/8/11
f 11/8/11 20/24/20 12/10/12
f 5/14/5 45/13/45 13/25/13
f 17/21/17 26/26/26 18/22/18
f 18/22/18 27/27/27 19/23/19
f 19/23/19 28/28/28 20/24/20
f 13/25/13 45/13/45 21/29/21
f 13/25/13 22/30/22 14/18/14
f 14/18/14 23/31/23 15/19/15
f 15/19/15 24/32/24 16/20/16
f 16/20/16 25/33/25 17/21/17
f 22/30/22 31/34/31 23/31/23
f 23/31/23 32/35/32 24/32/24
f 24/32/24 33/36/33 25/33/25
f 25/33/25 34/37/34 26/26/26
f 26/26/26 35/38/35 27/27/27
f 27/27/27 36/39/36 28/28/28
f 21/29/21 45/13/45 29/40/29
f 21/29/21 30/41/30 22/30/22
f 34/37/34 43/42/43 35/38/35
f 35/38/35 44/43/44 36/39/36
f 29/40/29 45/13/45 37/44/37
f 29/40/29 38/45/38 30/41/30
f 30/41/30 39/46/39 31/34/31
f 31/34/31 40/47/40 32/35/32
f 32/35/32 41/48/41 33/36/33
f 33/36/33 42/49/42 34/37/34
f 39/46/39 49/50/49 40/47/40
f 40/47/40 50/51/50 41/48/41
f 41/48/41 51/52/51 42/49/42
f 42/49/42 52/53/52 43/42/43
f 43/42/43 53/54/53 44/43/44
f 37/44/37 45/13/45 46/55/46
f 37/44/37 47/56/47 38/45/38
f 38/45/38 48/57/48 39/46/39
f 52/53/52 61/58/61 53/54/53
f 46/55/46 45/13/45 54/59/54
f 46/55/46 55/60/55 47/56/47
f 47/56/47 56/61/56 48/57/48
f 48/57/48 57/62/57 49/50/49
f 49/50/49 58/63/58 50/51/50
f 50/51/50 59/64/59 51/52/51
f 51/52/51 60/65/60 52/53/52
f 56/61/56 65/66/65 57/62/57
f 57/62/57 66/67/66 58/63/58
f 58/63/58 67/68/67 59/64/59
f 59/64/59 68/69/68 60/65/60
f 60/65/60 69/70/69 61/58/61
f 54/59/54 45/13/45 62/71/62
f 54/59/54 63/72/63 55/60/55
f 55/60/55 64/73/64 56/61/56
f 75/74/75 82/75/82 83/76/83
f 76/77/76 83/76/83 84/78/84
f 77/79/77 84/78/84 85/80/85
f 70/81/70 45/13/45 78/82/78
f 71/83/71 78/82/78 79/84/79
f 72/85/72 79/84/79 80/86/80
f 73/87/73 80/86/80 81/88/81
f 74/89/74 81/88/81 82/75/82
f 79/84/79 86/90/86 87/91/87
f 80/86/80 87/91/87 88/92/88
f 81/88/81 88/92/88 89/93/89
f 82/75/82 89/93/89 90/94/90
f 83/76/83 90/94/90 91/95/91
f 84/78/84 91/95/91 92/96/92
f 85/80/85 92/96/92 93/97/93
f 78/82/78 45/13/45 86/90/86
f 91/95/91 98/98/98 99/99/99
f 92/96/92 99/99/99 100/100/100
f 93/97/93 100/100/100 101/101/101
f 86/90/86 45/13/45 94/102/94
f 87/91/87 94/102/94 95/103/95
f 88/92/88 95/103/95 96/104/96
f 89/93/89 96/104/96 97/105/97
f 90/94/90 97/105/97 98/98/98
f 96/104/96 103/106/103 104/107/104
f 97/105/97 104/107/104 105/108/105
f 98/98/98 105/108/105 106/109/106
f 99/99/99 106/109/106 107/110/107
f 100/100/100 107/110/107 108/111/108
f 101/101/101 108/111/108 109/112/109
f 94/102/94 45/13/45 102/113/102
f 95/103/95 102/113/102 103/106/103
f 108/111/108 115/114/115 116/115/116
f 109/112/109 116/115/116 117/116/117
f 102/113/102 45/13/45 110/117/110
f 103/106/103 110/117/110 111/118/111
f 104/107/104 111/118/111 112/119/112
f 105/108/105 112/119/112 113/120/113
f 106/109/106 113/120/113 114/121/114
f 107/110/107 114/121/114 115/114/115
f 112/119/112 119/122/119 120/123/120
f 113/120/113 120/123/120 121/124/121
f 114/121/114 121/124/121 122/125/122
f 115/114/115 122/125/122 123/126/123
f 116/115/116 123/126/123 124/127/124
f 117/116/117 124/127/124 125/128/125
f 110/117/110 45/13/45 118/129/118
f 111/118/111 118/129/118 119/122/119
f 124/127/124 131/130/131 132/131/132
f 125/128/125 132/131/132 133/132/133
f 118/129/118 45/13/45 126/133/126
f 119/122/119 126/133/126 127/134/127
f 120/123/120 127/134/127 128/135/128
f 121/124/121 128/135/128 129/136/129
f 122/125/122 129/136/129 130/137/130
f 123/126/123 130/137/130 131/130/131
f 129/136/129 1/1/1 136/3/136
f 130/137/130 136/3/136 2/5/2
f 131/130/131 2/5/2 137/7/137
f 132/131/132 137/7/137 3/9/3
f 133/132/133 3/9/3 4/11/4
f 126/133/126 45/13/45 134/12/134
f 127/134/127 134/12/134 135/16/135
f 128/135/128 135/16/135 1/1/1
f 1/1/1 7/17/7 8/2/8
f 136/3/136 8/2/8 9/4/9
f 2/5/2 9/4/9 10/6/10
f 137/7/137 10/6/10 11/8/11
f 3/9/3 11/8/11 12/10/12
f 134/12/134 5/14/5 6/15/6
f 135/16/135 6/15/6 7/17/7
f 5/14/5 13/25/13 14/18/14
f 6/15/6 14/18/14 15/19/15
f 7/17/7 15/19/15 16/20/16
f 8/2/8 16/20/16 17/21/17
f 9/4/9 17/21/17 18/22/18
f 10/6/10 18/22/18 19/23/19
f 11/8/11 19/23/19 20/24/20
f 17/21/17 25/33/25 26/26/26
f 18/22/18 26/26/26 27/27/27
f 19/23/19 27/27/27 28/28/28
f 13/25/13 21/29/21 22/30/22
f 14/18/14 22/30/22 23/31/23
f 15/19/15 23/31/23 24/32/24
f 16/20/16 24/32/24 25/33/25
f 22/30/22 30/41/30 31/34/31
f 23/31/23 31/34/31 32/35/32
f 24/32/24 32/35/32 33/36/33
f 25/33/25 33/36/33 34/37/34
f 26/26/26 34/37/34 35/38/35
f 27/27/27 35/38/35 36/39/36
f 21/29/21 29/40/29 30/41/30
f 34/37/34 42/49/42 43/42/43
f 35/38/35 43/42/43 44/43/44
f 29/40/29 37/44/37 38/45/38
f 30/41/30 38/45/38 39/46/39
f 31/34/31 39/46/39 40/47/40
f 32/35/32 40/47/40 41/48/41
f 33/36/33 41/48/41 42/49/42
f 39/46/39 48/57/48 49/50/49
f 40/47/40 49/50/49 50/51/50
f 41/48/41 50/51/50 51/52/51
f 42/49/42 51/52/51 52/53/52
f 43/42/43 52/53/52 53/54/53
f 37/44/37 46/55/46 47/56/47
f 38/45/38 47/56/47 48/57/48
f 52/53/52 60/65/60 61/58/61
f 46/55/46 54/59/54 55/60/55
f 47/56/47 55/60/55 56/61/56
f 48/57/48 56/61/56 57/62/57
f 49/50/49 57/62/57 58/63/58
f 50/51/50 58/63/58 59/64/59
f 51/52/51 59/64/59 60/65/60
f 56/61/56 64/73/64 65/66/65
f 57/62/57 65/66/65 66/67/66
f 58/63/58 66/67/66 67/68/67
f 59/64/59 67/68/67 68/69/68
f 60/65/60 68/69/68 69/70/69
f 54/59/54 62/71/62 63/72/63
f 55/60/55 63/72/63 64/73/64
f 75/74/75 74/89/74 82/75/82
f 76/77/76 75/74/75 83/76/83
f 77/79/77 76/77/76 84/78/84
f 71/83/71 70/81/70 78/82/78
f 72/85/72 71/83/71 79/84/79
f 73/87/73 72/85/72 80/86/80
f 74/89/74 73/87/73 81/88/81
f 79/84/79 78/82/78 86/90/86
f 80/86/80 79/84/79 87/91/87
f 81/88/81 80/86/80 88/92/88
f 82/75/82 81/88/81 89/93/89
f 83/76/83 82/75/82 90/94/90
f 84/78/84 83/76/83 91/95/91
f 85/80/85 84/78/84 92/96/92
f 91/95/91 90/94/90 98/98/98
f 92/96/92 91/95/91 99/99/99
f 93/97/93 92/96/92 100/100/100
f 87/91/87 86/90/86 94/102/94
f 88/92/88 87/91/87 95/103/95
f 89/93/89 88/92/88 96/104/96
f 90/94/90 89/93/89 97/105/97
f 96/104/96 95/103/95 103/106/103
f 97/105/97 96/104/96 104/107/104
f 98/98/98 97/105/97 105/108/105
f 99/99/99 98/98/98 106/109/106
f 100/100/100 99/99/99 107/110/107
f 101/101/101 100/100/100 108/111/108
f 95/103/95 94/102/94 102/113/102
f 108/111/108 107/110/107 115/114/115
f 109/112/109 108/111/108 116/115/116
f 103/106/103 102/113/102 110/117/110
f 104/107/104 103/106/103 111/118/111
f 105/108/105 104/107/104 112/119/112
f 106/109/106 105/108/105 113/120/113
f 107/110/107 106/109/106 114/121/114
f 112/119/112 111/118/111 119/122/119
f 113/120/113 112/119/112 120/123/120
f 114/121/114 113/120/113 121/124/121
f 115/114/115 114/121/114 122/125/122
f 116/115/116 115/114/115 123/126/123
f 117/116/117 116/115/116 124/127/124
f 111/118/111 110/117/110 118/129/118
f 124/127/124 123/126/123 131/130/131
f 125/128/125 124/127/124 132/131/132
f 119/122/119 118/129/118 126/133/126
f 120/123/120 119/122/119 127/134/127
f 121/124/121 120/123/120 128/135/128
f 122/125/122 121/124/121 129/136/129
f 123/126/123 122/125/122 130/137/130
f 129/136/129 128/135/128 1/1/1
f 130/137/130 129/136/129 136/3/136
f 131/130/131 130/137/130 2/5/2
f 132/131/132 131/130/131 137/7/137
f 133/132/133 132/131/132 3/9/3
f 127/134/127 126/133/126 134/12/134
f 128/135/128 127/134/127 135/16/135
