# Blender 4.5.4 LTS
# www.blender.org
o PlataformaP
v -6.149157 0.221446 8.048297
v -6.354548 0.221446 7.526831
v -6.354548 0.521446 7.526831
v -6.149157 0.521446 8.048297
v -6.354548 0.221446 3.999762
v -6.149157 0.221446 3.478297
v -6.149157 0.521446 3.478297
v -6.354548 0.521446 3.999762
v -4.554548 0.221446 7.526831
v -4.759940 0.221446 8.048297
v -4.759940 0.521446 8.048297
v -4.554548 0.521446 7.526831
v -4.759940 0.221446 3.478297
v -4.554548 0.221446 3.999762
v -4.554548 0.521446 3.999762
v -4.759940 0.521446 3.478297
vn -0.9304 -0.0000 0.3665
vn -0.9304 -0.0000 -0.3665
vn 0.9304 -0.0000 -0.3665
vn 0.9304 -0.0000 0.3665
vn -0.0000 -1.0000 -0.0000
vn -1.0000 -0.0000 -0.0000
vn -0.0000 -0.0000 1.0000
vn -0.0000 1.0000 -0.0000
vn -0.0000 -0.0000 -1.0000
vn 1.0000 -0.0000 -0.0000
vt 0.514682 0.000000
vt 0.257341 0.029364
vt 0.257341 0.000000
vt 0.257341 0.286705
vt 0.514682 0.227977
vt 0.514682 0.286705
vt 0.257341 0.544046
vt 0.529678 0.500314
vt 0.514682 0.544046
vt 0.242345 0.786391
vt 0.514682 0.742659
vt 0.529678 0.786391
vt 0.000000 0.742659
vt 0.514682 0.029364
vt 0.257341 0.227977
vt 0.257341 1.000000
vt 0.772023 0.544046
vt 0.742659 0.772023
vt 0.242345 0.500314
vt 0.257341 0.742659
vt 0.000000 0.544046
vt 0.029364 0.514682
vt 0.029364 0.772023
vt 0.514682 1.000000
vt 0.742659 0.514682
vt 0.772023 0.742659
s 0
f 4/1/1 2/2/1 1/3/1
f 6/4/2 8/5/2 7/6/2
f 14/7/3 16/8/3 15/9/3
f 10/10/4 12/11/4 11/12/4
f 14/7/5 10/10/5 2/13/5
f 3/14/6 5/15/6 2/2/6
f 11/12/7 1/16/7 10/10/7
f 8/17/8 4/18/8 12/11/8
f 7/6/9 13/19/9 6/4/9
f 15/9/10 9/20/10 14/7/10
f 4/1/1 3/14/1 2/2/1
f 6/4/2 5/15/2 8/5/2
f 14/7/3 13/19/3 16/8/3
f 10/10/4 9/20/4 12/11/4
f 2/13/5 5/21/5 6/22/5
f 6/22/5 13/19/5 14/7/5
f 14/7/5 9/20/5 10/10/5
f 10/10/5 1/23/5 2/13/5
f 2/13/5 6/22/5 14/7/5
f 3/14/6 8/5/6 5/15/6
f 11/12/7 4/24/7 1/16/7
f 12/11/8 15/9/8 16/8/8
f 16/8/8 7/25/8 8/17/8
f 8/17/8 3/26/8 4/18/8
f 4/18/8 11/12/8 12/11/8
f 12/11/8 16/8/8 8/17/8
f 7/6/9 16/8/9 13/19/9
f 15/9/10 12/11/10 9/20/10
