# Blender 4.5.4 LTS
# www.blender.org
o AguaA
v 3.830348 0.072872 9.665666
v 9.730348 0.072872 9.665666
v 3.830348 0.072872 1.765665
v 9.730348 0.072872 1.765665
v 3.830348 2.285380 1.765665
v 3.830348 2.285380 9.665666
v 9.730348 2.285380 9.665666
v 9.730348 2.285380 1.765665
vn -0.0000 -1.0000 -0.0000
vn -0.0000 -0.0000 -1.0000
vn -0.0000 -0.0000 1.0000
vn 1.0000 -0.0000 -0.0000
vn -1.0000 -0.0000 -0.0000
vt 0.000000 1.000000
vt 1.000000 0.000000
vt 0.000000 0.000000
vt 1.000000 1.000000
s 0
f 3/1/1 2/2/1 1/3/1
f 3/1/2 8/4/2 4/4/2
f 2/2/3 6/3/3 1/3/3
f 4/4/4 7/2/4 2/2/4
f 1/3/5 5/1/5 3/1/5
f 3/1/1 4/4/1 2/2/1
f 3/1/2 5/1/2 8/4/2
f 2/2/3 7/2/3 6/3/3
f 4/4/4 8/4/4 7/2/4
f 1/3/5 6/3/5 5/1/5
o AguaA.001
v 3.830348 2.285380 1.765665
v 3.830348 2.285380 9.665666
v 9.730348 2.285380 9.665666
v 9.730348 2.285380 1.765665
vn -0.0000 1.0000 -0.0000
vt 1.000000 0.000000
vt 0.000000 1.000000
vt 0.000000 0.000000
vt 1.000000 1.000000
s 0
f 11/5/6 9/6/6 10/7/6
f 11/5/6 12/8/6 9/6/6
