# Blender 4.5.4 LTS
# www.blender.org
o CartelT
v 3.185775 0.042299 8.402336
v 3.708717 0.042299 8.422708
v 3.196924 0.042299 9.025519
v 3.719866 0.042299 9.045891
v 3.399127 0.218378 8.659416
v 3.185775 0.148040 8.402336
v 3.504272 0.218378 8.663512
v 3.708717 0.148040 8.422708
v 3.401369 0.218378 8.784716
v 3.196924 0.148040 9.025519
v 3.506513 0.218378 8.788811
v 3.719866 0.148040 9.045891
v 3.396755 0.203143 8.733197
v 3.396755 1.112875 8.733197
v 3.397832 0.203143 8.742930
v 3.397832 1.112875 8.742930
v 3.400673 0.203143 8.752359
v 3.400673 1.112875 8.752359
v 3.405169 0.203143 8.761124
v 3.405169 1.112875 8.761124
v 3.411148 0.203143 8.768884
v 3.411148 1.112875 8.768884
v 3.418379 0.203143 8.775344
v 3.418379 1.112875 8.775344
v 3.426585 0.203143 8.780253
v 3.426585 1.112875 8.780253
v 3.435451 0.203143 8.783426
v 3.435451 1.112875 8.783426
v 3.444635 0.203143 8.784739
v 3.444635 1.112875 8.784739
v 3.453786 0.203143 8.784141
v 3.453786 1.112875 8.784141
v 3.462550 0.203143 8.781655
v 3.462550 1.112875 8.781655
v 3.470592 0.203143 8.777378
v 3.470592 1.112875 8.777378
v 3.477602 0.203143 8.771473
v 3.477602 1.112875 8.771473
v 3.483311 0.203143 8.764168
v 3.483311 1.112875 8.764168
v 3.487500 0.203143 8.755742
v 3.487500 1.112875 8.755742
v 3.490007 0.203143 8.746521
v 3.490007 1.112875 8.746521
v 3.490736 0.203143 8.736858
v 3.490736 1.112875 8.736858
v 3.489660 0.203143 8.727124
v 3.489660 1.112875 8.727124
v 3.486819 0.203143 8.717695
v 3.486819 1.112875 8.717695
v 3.482323 0.203143 8.708932
v 3.482323 1.112875 8.708932
v 3.476344 0.203143 8.701171
v 3.476344 1.112875 8.701171
v 3.469113 0.203143 8.694712
v 3.469113 1.112875 8.694712
v 3.460907 0.203143 8.689801
v 3.460907 1.112875 8.689801
v 3.452041 0.203143 8.686629
v 3.452041 1.112875 8.686629
v 3.442857 0.203143 8.685317
v 3.442857 1.112875 8.685317
v 3.433706 0.203143 8.685915
v 3.433706 1.112875 8.685915
v 3.424942 0.203143 8.688400
v 3.424942 1.112875 8.688400
v 3.416900 0.203143 8.692677
v 3.416900 1.112875 8.692677
v 3.409890 0.203143 8.698583
v 3.409890 1.112875 8.698583
v 3.404181 0.203143 8.705888
v 3.404181 1.112875 8.705888
v 3.399992 0.203143 8.714313
v 3.399992 1.112875 8.714313
v 3.397485 0.203143 8.723534
v 3.397485 1.112875 8.723534
v 3.123693 0.800308 8.221663
v 3.104299 0.819702 8.221663
v 3.729558 1.406172 8.221663
v 3.710164 1.425567 8.221663
v 3.123693 0.800308 9.250022
v 3.104299 0.819702 9.250022
v 3.729558 1.406172 9.250022
v 3.710164 1.425567 9.250022
vn -0.5727 -0.5744 -0.5849
vn 0.5818 -0.5804 -0.5697
vn -0.5818 -0.5804 0.5697
vn 0.5727 -0.5744 0.5849
vn -0.1238 0.9873 -0.0995
vn -0.5974 0.5164 -0.6136
vn 0.1289 0.9865 -0.1009
vn 0.6092 0.5180 -0.6005
vn -0.1289 0.9865 0.1009
vn -0.6092 0.5180 0.6005
vn 0.1238 0.9873 0.0995
vn 0.5974 0.5164 0.6136
vn 0.7267 0.6869 -0.0126
vn 0.7267 -0.6868 -0.0126
vn 0.7118 0.6872 -0.1453
vn 0.7118 -0.6872 -0.1453
vn 0.6737 0.6873 -0.2717
vn 0.6737 -0.6873 -0.2717
vn 0.6135 0.6871 -0.3891
vn 0.6135 -0.6872 -0.3891
vn 0.5322 0.6869 -0.4949
vn 0.5322 -0.6869 -0.4949
vn 0.4309 0.6864 -0.5859
vn 0.4308 -0.6864 -0.5859
vn 0.3109 0.6858 -0.6580
vn 0.3109 -0.6858 -0.6581
vn 0.1751 0.6851 -0.7071
vn 0.1751 -0.6851 -0.7071
vn 0.0279 0.6846 -0.7284
vn 0.0279 -0.6846 -0.7284
vn -0.1240 0.6841 -0.7187
vn -0.1240 -0.6842 -0.7187
vn -0.2723 0.6840 -0.6767
vn -0.2723 -0.6840 -0.6768
vn -0.4085 0.6841 -0.6043
vn -0.4085 -0.6841 -0.6042
vn -0.5248 0.6845 -0.5059
vn -0.5248 -0.6845 -0.5059
vn -0.6163 0.6851 -0.3884
vn -0.6163 -0.6851 -0.3884
vn -0.6803 0.6857 -0.2587
vn -0.6803 -0.6857 -0.2587
vn -0.7167 0.6863 -0.1233
vn -0.7168 -0.6863 -0.1233
vn -0.7267 0.6868 0.0127
vn -0.7267 -0.6868 0.0126
vn -0.7118 0.6872 0.1453
vn -0.7119 -0.6871 0.1453
vn -0.6737 0.6873 0.2717
vn -0.6737 -0.6873 0.2717
vn -0.6135 0.6871 0.3891
vn -0.6135 -0.6871 0.3891
vn -0.5322 0.6869 0.4949
vn -0.5322 -0.6869 0.4949
vn -0.4309 0.6864 0.5859
vn -0.4309 -0.6864 0.5858
vn -0.3109 0.6858 0.6581
vn -0.3110 -0.6857 0.6581
vn -0.1751 0.6851 0.7071
vn -0.1751 -0.6851 0.7071
vn -0.0279 0.6846 0.7284
vn -0.0279 -0.6846 0.7284
vn 0.1240 0.6841 0.7187
vn 0.1240 -0.6842 0.7187
vn 0.2723 0.6840 0.6767
vn 0.2723 -0.6840 0.6768
vn 0.4085 0.6841 0.6043
vn 0.4085 -0.6841 0.6042
vn 0.5248 0.6845 0.5059
vn 0.5248 -0.6845 0.5059
vn 0.6163 0.6851 0.3884
vn 0.6163 -0.6851 0.3884
vn 0.6803 0.6857 0.2587
vn 0.6803 -0.6857 0.2588
vn 0.7167 0.6863 0.1233
vn 0.7168 -0.6863 0.1233
vn -0.0000 -0.8165 -0.5773
vn -0.8165 -0.0000 -0.5774
vn 0.8165 -0.0000 -0.5774
vn -0.0000 0.8165 -0.5773
vn -0.0000 -0.8165 0.5773
vn -0.8165 -0.0000 0.5773
vn 0.8165 -0.0000 0.5773
vn -0.0000 0.8165 0.5773
vt 0.703083 0.844916
vt 0.891932 0.539178
vt 0.891932 0.857718
vt 0.205996 0.658361
vt 0.050761 0.539879
vt 0.277703 0.525602
vt 0.160366 0.725282
vt 0.160366 0.661232
vt 0.593164 0.658652
vt 0.437928 0.540169
vt 0.664871 0.525893
vt 0.547534 0.725572
vt 0.547534 0.661522
vt 0.305934 0.844141
vt 0.344147 0.526085
vt 0.344147 0.844625
vt 0.945955 0.267470
vt 1.000000 0.000000
vt 1.000000 0.267470
vt 0.593163 0.722702
vt 0.664871 0.844432
vt 0.703083 0.526376
vt 0.344147 0.793072
vt 0.398192 0.525602
vt 0.398192 0.793072
vt 0.025043 0.559612
vt 0.041561 0.887630
vt 0.036603 0.888193
vt 0.030001 0.559049
vt 0.046342 0.886434
vt 0.034781 0.557853
vt 0.050761 0.884653
vt 0.891972 0.000000
vt 0.895142 0.464971
vt 0.891972 0.464971
vt 0.895142 0.000000
vt 0.898933 0.464971
vt 0.898933 0.000000
vt 0.903199 0.464971
vt 0.903199 0.000000
vt 0.907776 0.464971
vt 0.907776 0.000000
vt 0.912488 0.464971
vt 0.912488 0.000000
vt 0.917153 0.464971
vt 0.917153 0.000000
vt 0.921594 0.464971
vt 0.921594 0.000000
vt 0.925638 0.464971
vt 0.925638 0.000000
vt 0.929132 0.464971
vt 0.929132 0.000000
vt 0.931939 0.464971
vt 0.277703 0.525959
vt 0.282009 0.856259
vt 0.277703 0.854745
vt 0.282009 0.527473
vt 0.286722 0.857165
vt 0.286722 0.528379
vt 0.291661 0.857429
vt 0.291661 0.528643
vt 0.296636 0.857040
vt 0.296636 0.528254
vt 0.301455 0.856013
vt 0.301455 0.527227
vt 0.305934 0.854388
vt 0.891972 0.464971
vt 0.895142 0.929942
vt 0.891972 0.929942
vt 0.895142 0.464971
vt 0.898933 0.929942
vt 0.898933 0.464971
vt 0.903199 0.929942
vt 0.903199 0.464971
vt 0.907776 0.929942
vt 0.907776 0.464971
vt 0.912487 0.929942
vt 0.912487 0.464971
vt 0.917153 0.929942
vt 0.917153 0.464971
vt 0.921594 0.929942
vt 0.921594 0.464971
vt 0.925639 0.929942
vt 0.925639 0.464971
vt 0.929132 0.929942
vt 0.929132 0.464971
vt 0.931939 0.929942
vt 0.010999 0.557421
vt 0.026916 0.887364
vt 0.022560 0.886002
vt 0.015980 0.527362
vt 0.048959 0.534978
vt 0.015355 0.558783
vt 0.031658 0.888103
vt 0.020097 0.559523
vt 0.383828 0.810715
vt 0.370276 0.842764
vt 0.344925 0.826245
vt 0.931940 0.875676
vt 0.945955 0.437847
vt 0.945955 0.875682
vt 0.878323 0.525600
vt 0.891972 0.000009
vt 0.891972 0.525609
vt 0.931939 0.000006
vt 0.945955 0.437835
vt 0.931940 0.437841
vt 0.864305 0.525602
vt 0.878323 0.000000
vt 0.878323 0.525602
vt 0.000000 0.000000
vt 0.437928 0.525602
vt -0.000000 0.525602
vt 0.437928 0.000000
vt 0.864305 0.525893
vt 0.437928 0.525600
vt 0.050761 0.858437
vt 0.437928 0.858728
vt 0.305934 0.525602
vt 0.945955 0.000000
vt 0.664871 0.525893
vt 0.344147 0.525602
vt 0.039200 0.556072
vt 0.931939 0.000000
vt 0.305934 0.525602
vt 0.931939 0.464971
vt 0.007195 0.555491
vt 0.004090 0.553065
vt 0.001803 0.550237
vt 0.000422 0.547116
vt 0.000000 0.543822
vt 0.000554 0.540481
vt 0.002061 0.537222
vt 0.004465 0.534170
vt 0.007672 0.531442
vt 0.011561 0.529143
vt 0.020760 0.526166
vt 0.025718 0.525602
vt 0.030663 0.525692
vt 0.035405 0.526432
vt 0.039762 0.527793
vt 0.043566 0.529724
vt 0.046672 0.532150
vt 0.050339 0.538099
vt 0.050761 0.541393
vt 0.050208 0.544734
vt 0.048699 0.547993
vt 0.046296 0.551045
vt 0.043088 0.553773
vt 0.344147 0.821357
vt 0.344147 0.816360
vt 0.344925 0.811444
vt 0.346450 0.806798
vt 0.348664 0.802601
vt 0.351482 0.799015
vt 0.354795 0.796177
vt 0.358476 0.794195
vt 0.362385 0.793147
vt 0.366369 0.793072
vt 0.370277 0.793974
vt 0.373959 0.795817
vt 0.377272 0.798532
vt 0.380090 0.802013
vt 0.382304 0.806127
vt 0.384606 0.815602
vt 0.384606 0.820600
vt 0.383828 0.825516
vt 0.382303 0.830162
vt 0.380089 0.834358
vt 0.377271 0.837945
vt 0.373958 0.840783
vt 0.366368 0.843812
vt 0.362383 0.843887
vt 0.358475 0.842986
vt 0.354794 0.841142
vt 0.351481 0.838427
vt 0.348663 0.834946
vt 0.346449 0.830833
vt 0.931939 0.437841
vt 0.878323 -0.000000
vt 0.945955 -0.000000
vt 0.864305 0.000000
vt 0.437928 0.000000
vt 0.864305 0.000293
s 1
f 2/1/2 3/2/3 1/3/1
f 5/4/5 8/5/8 6/6/6
f 11/7/11 8/5/8 7/8/7
f 11/9/11 10/10/10 12/11/12
f 5/12/5 10/10/10 9/13/9
f 10/14/10 1/15/1 3/16/3
f 6/17/6 2/18/2 1/19/1
f 7/20/7 9/13/9 11/9/11
f 8/21/8 4/22/4 2/1/2
f 12/23/12 3/24/3 4/25/4
f 14/26/14 15/27/15 13/28/13
f 16/29/16 17/30/17 15/27/15
f 18/31/18 19/32/19 17/30/17
f 20/33/20 21/34/21 19/35/19
f 22/36/22 23/37/23 21/34/21
f 24/38/24 25/39/25 23/37/23
f 26/40/26 27/41/27 25/39/25
f 28/42/28 29/43/29 27/41/27
f 30/44/30 31/45/31 29/43/29
f 32/46/32 33/47/33 31/45/31
f 34/48/34 35/49/35 33/47/33
f 36/50/36 37/51/37 35/49/35
f 38/52/38 39/53/39 37/51/37
f 40/54/40 41/55/41 39/56/39
f 42/57/42 43/58/43 41/55/41
f 44/59/44 45/60/45 43/58/43
f 46/61/46 47/62/47 45/60/45
f 48/63/48 49/64/49 47/62/47
f 50/65/50 51/66/51 49/64/49
f 52/67/52 53/68/53 51/69/51
f 54/70/54 55/71/55 53/68/53
f 56/72/56 57/73/57 55/71/55
f 58/74/58 59/75/59 57/73/57
f 60/76/60 61/77/61 59/75/59
f 62/78/62 63/79/63 61/77/61
f 64/80/64 65/81/65 63/79/63
f 66/82/66 67/83/67 65/81/65
f 68/84/68 69/85/69 67/83/67
f 70/86/70 71/87/71 69/85/69
f 72/88/72 73/89/73 71/90/71
f 50/91/50 34/92/34 18/31/18
f 74/93/74 75/94/75 73/89/73
f 76/95/76 13/28/13 75/94/75
f 43/96/43 59/97/59 75/98/75
f 78/99/78 79/100/79 77/101/77
f 80/102/80 83/103/83 79/104/79
f 83/105/83 82/106/82 81/107/81
f 82/108/82 77/109/77 81/110/81
f 83/111/83 77/112/77 79/113/79
f 80/114/80 82/115/82 84/116/84
f 2/1/2 4/22/4 3/2/3
f 5/4/5 7/8/7 8/5/8
f 11/7/11 12/117/12 8/5/8
f 11/9/11 9/13/9 10/10/10
f 5/12/5 6/118/6 10/10/10
f 10/14/10 6/119/6 1/15/1
f 6/17/6 8/120/8 2/18/2
f 7/20/7 5/12/5 9/13/9
f 8/21/8 12/121/12 4/22/4
f 12/23/12 10/122/10 3/24/3
f 14/26/14 16/29/16 15/27/15
f 16/29/16 18/31/18 17/30/17
f 18/31/18 20/123/20 19/32/19
f 20/33/20 22/36/22 21/34/21
f 22/36/22 24/38/24 23/37/23
f 24/38/24 26/40/26 25/39/25
f 26/40/26 28/42/28 27/41/27
f 28/42/28 30/44/30 29/43/29
f 30/44/30 32/46/32 31/45/31
f 32/46/32 34/48/34 33/47/33
f 34/48/34 36/50/36 35/49/35
f 36/50/36 38/52/38 37/51/37
f 38/52/38 40/124/40 39/53/39
f 40/54/40 42/57/42 41/55/41
f 42/57/42 44/59/44 43/58/43
f 44/59/44 46/61/46 45/60/45
f 46/61/46 48/63/48 47/62/47
f 48/63/48 50/65/50 49/64/49
f 50/65/50 52/125/52 51/66/51
f 52/67/52 54/70/54 53/68/53
f 54/70/54 56/72/56 55/71/55
f 56/72/56 58/74/58 57/73/57
f 58/74/58 60/76/60 59/75/59
f 60/76/60 62/78/62 61/77/61
f 62/78/62 64/80/64 63/79/63
f 64/80/64 66/82/66 65/81/65
f 66/82/66 68/84/68 67/83/67
f 68/84/68 70/86/70 69/85/69
f 70/86/70 72/126/72 71/87/71
f 72/88/72 74/93/74 73/89/73
f 18/31/18 16/29/16 14/26/14
f 14/26/14 76/95/76 74/93/74
f 74/93/74 72/88/72 70/127/70
f 70/127/70 68/128/68 66/129/66
f 66/129/66 64/130/64 62/131/62
f 62/131/62 60/132/60 58/133/58
f 58/133/58 56/134/56 54/135/54
f 54/135/54 52/136/52 50/91/50
f 50/91/50 48/137/48 46/138/46
f 46/138/46 44/139/44 42/140/42
f 42/140/42 40/141/40 38/142/38
f 38/142/38 36/143/36 34/92/34
f 34/92/34 32/144/32 30/145/30
f 30/145/30 28/146/28 26/147/26
f 26/147/26 24/148/24 22/149/22
f 22/149/22 20/123/20 18/31/18
f 18/31/18 14/26/14 74/93/74
f 74/93/74 70/127/70 66/129/66
f 66/129/66 62/131/62 58/133/58
f 58/133/58 54/135/54 50/91/50
f 50/91/50 46/138/46 42/140/42
f 42/140/42 38/142/38 34/92/34
f 34/92/34 30/145/30 26/147/26
f 26/147/26 22/149/22 18/31/18
f 18/31/18 74/93/74 66/129/66
f 66/129/66 58/133/58 50/91/50
f 50/91/50 42/140/42 34/92/34
f 34/92/34 26/147/26 18/31/18
f 18/31/18 66/129/66 50/91/50
f 74/93/74 76/95/76 75/94/75
f 76/95/76 14/26/14 13/28/13
f 75/98/75 13/150/13 15/151/15
f 15/151/15 17/152/17 19/153/19
f 19/153/19 21/154/21 23/155/23
f 23/155/23 25/156/25 27/157/27
f 27/157/27 29/158/29 31/159/31
f 31/159/31 33/160/33 35/161/35
f 35/161/35 37/162/37 39/163/39
f 39/163/39 41/164/41 43/96/43
f 43/96/43 45/165/45 47/166/47
f 47/166/47 49/167/49 51/168/51
f 51/168/51 53/169/53 55/170/55
f 55/170/55 57/171/57 59/97/59
f 59/97/59 61/172/61 63/173/63
f 63/173/63 65/174/65 67/175/67
f 67/175/67 69/176/69 71/177/71
f 71/177/71 73/178/73 75/98/75
f 75/98/75 15/151/15 19/153/19
f 19/153/19 23/155/23 27/157/27
f 27/157/27 31/159/31 35/161/35
f 35/161/35 39/163/39 43/96/43
f 43/96/43 47/166/47 51/168/51
f 51/168/51 55/170/55 59/97/59
f 59/97/59 63/173/63 67/175/67
f 67/175/67 71/177/71 75/98/75
f 75/98/75 19/153/19 27/157/27
f 27/157/27 35/161/35 43/96/43
f 43/96/43 51/168/51 59/97/59
f 59/97/59 67/175/67 75/98/75
f 75/98/75 27/157/27 43/96/43
f 78/99/78 80/179/80 79/100/79
f 80/102/80 84/180/84 83/103/83
f 83/105/83 84/181/84 82/106/82
f 82/108/82 78/182/78 77/109/77
f 83/111/83 81/183/81 77/112/77
f 80/114/80 78/184/78 82/115/82
