# Blender 4.5.4 LTS
# www.blender.org
o VidrioA
v 3.767595 0.059563 9.708238
v 3.767595 2.559563 9.708238
v 9.777596 0.059563 9.708238
v 9.777596 2.559563 9.708238
v 3.767595 0.059563 1.703990
v 3.767595 2.559563 1.703990
v 9.777596 0.059563 1.703990
v 9.777596 2.559563 1.703990
v 3.770069 0.059563 9.712113
v 3.770069 2.559563 9.712113
v 3.770069 0.059563 1.702113
v 3.770069 2.559563 1.702113
vn -0.0000 -0.0000 1.0000
vn 1.0000 -0.0000 -0.0000
vt 0.312110 1.000000
vt 0.624220 0.249688
vt 0.624220 1.000000
vt 0.000000 1.000000
vt 0.312110 0.249688
vt 0.312110 1.000000
vt 0.936329 -0.000000
vt 0.936330 1.000000
vt 0.312110 0.249688
vt -0.000000 0.249688
vt 0.624220 0.000000
s 0
f 4/1/1 1/2/1 3/3/1
f 8/4/1 5/5/1 7/6/1
f 12/3/2 9/7/2 11/8/2
f 4/1/1 2/9/1 1/2/1
f 8/4/1 6/10/1 5/5/1
f 12/3/2 10/11/2 9/7/2
