# Blender 4.5.4 LTS
# www.blender.org
mtllib c.mtl
g cola1_Mesh
v 0.071074 0.265377 0.108471
v 0.044339 -0.015718 0.108471
v 0.071074 0.265377 -0.108471
v -0.189663 0.258523 0.096878
v -0.210445 0.040012 0.096878
v -0.189663 0.258523 -0.096878
v -0.210445 0.040012 -0.096878
v 0.058120 0.130710 0.130233
v 0.076415 0.324251 -0.068959
v 0.038485 -0.074543 0.068960
v 0.076415 0.324251 0.068960
v -0.126341 0.010138 0.105422
v -0.218806 0.155989 0.105622
v -0.218806 0.155989 -0.105622
v -0.205812 0.284692 -0.066331
v -0.231239 0.017357 0.066331
v -0.205812 0.284692 0.066331
v -0.231239 0.017357 -0.066331
v -0.126341 0.010139 -0.105422
v -0.101435 0.272006 -0.105422
v -0.101435 0.272006 0.105422
v -0.115521 0.146766 -0.125139
v -0.134502 -0.042408 0.067900
v -0.261066 0.160772 -0.067367
v -0.261066 0.160772 0.067367
v -0.099543 0.325149 0.067900
v -0.099543 0.325149 -0.067899
v -0.115521 0.146765 0.125140
v -0.134502 -0.042408 -0.067900
v 0.064357 0.195232 0.123779
v -0.207295 0.209210 0.102649
v -0.207295 0.209210 -0.102648
v -0.108362 0.207000 -0.119445
v -0.242962 0.221768 -0.066684
v -0.242962 0.221768 0.066685
v -0.108362 0.207000 0.119445
v 0.050419 0.048568 0.123062
v -0.218221 0.086804 0.102318
v -0.218221 0.086805 -0.102318
v -0.121254 0.069782 -0.118812
v -0.255043 0.080377 -0.066609
v -0.255044 0.080377 0.066609
v -0.121254 0.069782 0.118813
v -0.118702 0.108304 -0.123241
v -0.260764 0.120832 -0.067139
v -0.260764 0.120832 0.067140
v -0.118702 0.108304 0.123241
v 0.054247 0.089641 0.128082
v -0.219934 0.121532 0.104631
v -0.219933 0.121532 -0.104631
v -0.013645 0.345478 -0.034534
v -0.054659 -0.085751 -0.034534
v -0.301260 0.298393 -0.033794
v -0.328040 0.013687 -0.033794
v -0.360984 0.166088 -0.034004
v -0.190901 0.344808 -0.034182
v -0.228626 -0.051831 -0.034182
v -0.342237 0.228483 -0.033859
v -0.353514 0.081306 -0.033842
v -0.360080 0.124391 -0.033956
v -0.054659 -0.085751 0.034534
v -0.013645 0.345478 0.034534
v -0.328040 0.013687 0.033794
v -0.301260 0.298393 0.033794
v -0.228626 -0.051831 0.034182
v -0.360984 0.166088 0.034005
v -0.190901 0.344808 0.034183
v -0.342237 0.228483 0.033859
v -0.353514 0.081306 0.033843
v -0.360080 0.124390 0.033956
v -0.760278 0.847421 0.000003
v -1.078594 -0.355141 0.000000
v -0.993038 0.861317 0.000004
v -0.831492 -0.374089 0.000000
v -0.198057 0.413515 0.000001
v -0.247132 -0.134582 0.000000
v -0.822612 0.187402 0.000001
v -1.135522 -0.317032 0.000000
v -0.879203 0.880289 0.000004
v -0.838613 0.288829 0.000001
v -0.979647 -0.374689 0.000000
v -0.861856 0.111437 0.000000
v -0.417037 0.423952 -0.012014
v -0.470405 -0.103429 -0.012238
v -0.695397 0.375793 -0.011757
v -0.736706 -0.008650 -0.011976
v -0.236379 0.412781 -0.010159
v -0.285710 -0.126563 -0.010348
v -0.729370 0.182986 -0.010792
v -0.587778 0.423222 -0.011892
v -0.641806 -0.070561 -0.012113
v -0.759163 0.280858 -0.009794
v -0.761061 0.057838 -0.011993
v -0.782034 0.114266 -0.009954
v -0.470405 -0.103429 0.012238
v -0.417037 0.423952 0.012015
v -0.736706 -0.008650 0.011976
v -0.695397 0.375793 0.011758
v -0.236379 0.412781 0.010160
v -0.641805 -0.070561 0.012114
v -0.285710 -0.126563 0.010349
v -0.729370 0.182986 0.010793
v -0.587778 0.423222 0.011893
v -0.759163 0.280858 0.009795
v -0.761061 0.057838 0.011993
v -0.782034 0.114266 0.009955
v -0.518636 0.677168 0.000002
v -0.938175 0.595870 0.000002
v -0.689183 0.685297 -0.006106
v -0.905180 0.649508 -0.005975
v -0.548481 0.676597 -0.005163
v -0.822160 0.684728 -0.006044
v -0.933815 0.604559 -0.004983
v -0.689183 0.685297 0.006111
v -0.905180 0.649508 0.005980
v -0.548481 0.676597 0.005168
v -0.822160 0.684728 0.006049
v -0.933814 0.604559 0.004987
v -0.949234 0.879850 0.000004
v -0.997764 0.804396 0.000003
v -0.848793 0.851723 -0.003190
v -0.980542 0.830225 -0.003122
v -0.749458 0.832796 -0.003093
v -0.930003 0.851341 -0.003158
v -0.991295 0.790060 -0.002988
v -0.848793 0.851723 0.003197
v -0.980542 0.830225 0.003129
v -0.749458 0.832796 0.003100
v -0.930002 0.851341 0.003165
v -0.991295 0.790060 0.002995
v -0.588407 -0.287527 0.000000
v -1.039735 -0.092240 0.000000
v -0.788732 -0.259576 -0.007237
v -1.013265 -0.187279 -0.007082
v -0.623020 -0.280333 -0.006120
v -0.939636 -0.232635 -0.007163
v -1.032238 -0.130174 -0.007092
v -1.037661 -0.097327 -0.005927
v -0.788732 -0.259576 0.007238
v -1.013265 -0.187279 0.007083
v -0.939636 -0.232635 0.007164
v -0.623020 -0.280333 0.006120
v -1.032238 -0.130174 0.007093
v -1.037661 -0.097327 0.005927
v -1.150149 -0.277637 0.000000
v -1.138752 -0.232759 0.000000
v -0.951242 -0.357488 -0.004359
v -1.119048 -0.298465 -0.004265
v -0.825006 -0.363737 -0.004155
v -1.059947 -0.336826 -0.004315
v -1.134232 -0.256278 -0.004272
v -1.130298 -0.223105 -0.004029
v -0.951241 -0.357488 0.004359
v -1.119047 -0.298465 0.004266
v -1.059947 -0.336826 0.004315
v -0.825006 -0.363737 0.004155
v -1.134232 -0.256278 0.004272
v -1.130298 -0.223105 0.004029
vn -0.0321 0.0180 -0.9993
vn -0.2687 -0.0927 -0.9587
vn -0.0210 0.0062 -0.9998
vn -0.1771 0.0374 -0.9835
vn -0.4037 -0.0462 -0.9137
vn -0.3968 0.0599 -0.9159
vn 0.2916 0.9565 -0.0000
vn 0.0176 0.0868 -0.9961
vn 0.0571 0.9984 -0.0000
vn 0.0536 -0.1603 -0.9856
vn -0.0180 -0.1190 -0.9927
vn 0.1318 -0.3008 -0.9445
vn -0.0276 -0.0188 -0.9994
vn -0.0073 -0.0177 -0.9998
vn -0.0140 -0.0099 -0.9999
vn -0.0006 0.8053 -0.5929
vn -0.0768 0.6869 -0.7226
vn -0.0752 0.3713 -0.9255
vn -0.1312 0.1409 0.9813
vn -0.0175 0.0539 0.9984
vn -0.0321 0.0180 0.9993
vn -0.4779 -0.0426 0.8774
vn -0.1698 -0.0448 0.9845
vn -0.4740 -0.1267 0.8713
vn -0.1651 0.0696 0.9838
vn 0.0040 0.1380 0.9904
vn -0.0752 0.3713 0.9255
vn -0.0006 0.8053 0.5929
vn -0.0709 0.3837 0.9207
vn -0.0138 0.1568 0.9875
vn -0.0048 0.3757 0.9267
vn -0.3912 -0.3134 0.8653
vn -0.1108 -0.1523 0.9821
vn -0.4051 -0.1237 0.9059
vn -0.4740 -0.1267 -0.8713
vn -0.3912 -0.3134 -0.8653
vn -0.3917 -0.3655 -0.8444
vn -0.0777 0.0152 -0.9969
vn -0.1651 0.0696 -0.9838
vn -0.1710 0.0234 -0.9850
vn -0.1804 -0.1416 -0.9734
vn -0.4051 -0.1237 -0.9059
vn -0.3779 0.1837 -0.9074
vn -0.1519 0.1579 -0.9757
vn -0.1938 -0.6194 0.7608
vn -0.1354 -0.7013 0.6999
vn -0.1178 -0.6084 0.7848
vn -0.0758 -0.3726 0.9249
vn -0.1428 -0.3682 0.9187
vn -0.3917 -0.3655 0.8444
vn -0.1283 -0.3085 0.9425
vn -0.1473 -0.1109 0.9828
vn -0.1312 0.1409 -0.9813
vn 0.0008 0.5631 -0.8264
vn -0.0970 0.4548 -0.8853
vn -0.4653 0.0678 -0.8826
vn -0.4499 0.2022 -0.8699
vn -0.3278 0.4509 -0.8302
vn -0.1766 -0.0148 -0.9842
vn -0.4779 -0.0426 -0.8774
vn -0.3272 0.3772 -0.8664
vn -0.4037 -0.0462 0.9137
vn -0.4653 0.0678 0.8826
vn -0.9937 0.1121 -0.0000
vn -0.0963 0.0351 -0.9947
vn -0.3410 -0.0677 -0.9376
vn -0.4499 0.2022 0.8699
vn -0.3272 0.3772 0.8664
vn -0.3278 0.4509 0.8302
vn -0.1698 -0.0448 -0.9845
vn -0.1474 -0.1109 -0.9828
vn -0.0768 0.6869 0.7226
vn -0.1766 -0.0148 0.9842
vn -0.0777 0.0152 0.9969
vn -0.0818 0.0509 0.9953
vn 0.0040 0.1380 -0.9904
vn -0.0175 0.0539 -0.9984
vn -0.0816 0.1556 0.9845
vn -0.0407 0.0057 0.9992
vn -0.0841 -0.0127 -0.9964
vn -0.9193 -0.3937 -0.0000
vn -0.1095 -0.0716 0.9914
vn -0.0260 0.0255 0.9993
vn -0.1004 0.0308 0.9945
vn -0.0248 -0.0482 -0.9985
vn -0.3968 0.0599 0.9159
vn -0.2871 0.2228 0.9316
vn -0.7489 0.6627 -0.0000
vn -0.7791 0.6269 -0.0000
vn -0.0276 -0.0188 0.9994
vn -0.2972 -0.5017 -0.8124
vn -0.2196 -0.3589 -0.9072
vn -0.3779 0.1837 0.9074
vn -0.0818 0.0509 -0.9953
vn -0.9775 0.2110 -0.0000
vn -0.0407 0.0057 -0.9992
vn -0.0039 0.0163 -0.9999
vn -0.0101 0.0626 -0.9980
vn -0.4161 -0.9093 -0.0000
vn -0.0889 -0.0643 0.9940
vn -0.7686 -0.6397 -0.0000
vn -0.2871 0.2228 -0.9316
vn -0.0447 -0.1664 0.9850
vn -0.1710 0.0234 0.9850
vn -0.1851 -0.0639 -0.9806
vn -0.0362 -0.0828 0.9959
vn -0.1248 -0.2679 -0.9553
vn -0.0433 -0.2121 -0.9763
vn -0.0180 -0.1190 0.9927
vn -0.0248 -0.0482 0.9985
vn 0.6071 0.7946 -0.0000
vn 0.1840 0.2287 -0.9560
vn 0.0838 0.1224 -0.9889
vn -0.2687 -0.0927 0.9587
vn -0.0841 -0.0127 0.9964
vn 0.3724 -0.9281 -0.0000
vn 0.4090 -0.9125 -0.0000
vn 0.0036 0.0230 -0.9997
vn -0.0363 -0.1023 -0.9941
vn -0.1440 -0.9896 -0.0000
vn -0.3751 0.2097 -0.9030
vn -0.0344 0.0119 -0.9993
vn -0.1887 0.0214 -0.9818
vn 0.1840 0.2287 0.9560
vn 0.6352 0.7723 -0.0000
vn 0.0536 -0.1603 0.9856
vn -0.0013 -0.0267 0.9996
vn -0.0363 -0.1023 0.9941
vn -0.0140 -0.0099 0.9999
vn -0.3751 0.2097 0.9030
vn -0.9658 0.2592 -0.0000
vn -0.0073 -0.0177 0.9998
vn -0.0344 0.0119 0.9993
vn 0.0977 -0.9952 -0.0000
vn 0.0590 -0.2381 -0.9694
vn -0.0013 -0.0267 -0.9996
vn -0.3410 -0.0677 0.9376
vn -0.0101 0.0625 0.9980
vn -0.2423 0.9702 -0.0000
vn 0.1318 -0.3008 0.9445
vn 0.0036 0.0230 0.9997
vn 0.1167 0.1964 -0.9736
vn -0.0210 0.0061 0.9998
vn -0.0963 0.0351 0.9947
vn 0.1167 0.1964 0.9736
vn 0.0838 0.1224 0.9889
vn -0.1887 0.0214 0.9818
vn -0.0039 0.0163 0.9999
vn -0.7305 0.6829 -0.0000
vn 0.0176 0.0868 0.9961
vn -0.0061 -0.1316 0.9913
vn -0.0061 -0.1316 -0.9913
vn 0.0590 -0.2381 0.9694
vn -0.0889 -0.0643 -0.9940
vn -0.9845 -0.1755 -0.0000
vn -0.0013 0.6423 -0.7665
vn -0.0013 0.6423 0.7665
vn -0.9683 -0.2498 -0.0000
vt 0.914281 0.194377
vt 0.965258 0.211055
vt 0.960846 0.219824
vt 0.811222 0.194474
vt 0.827327 0.188577
vt 0.827773 0.194064
vt 0.953333 0.254354
vt 0.966182 0.252413
vt 0.972460 0.254877
vt 0.871143 0.080628
vt 0.872870 0.125132
vt 0.824864 0.149770
vt 0.910820 0.120044
vt 0.908508 0.071526
vt 0.920563 0.074405
vt 0.806237 0.225225
vt 0.811923 0.223062
vt 0.814056 0.226981
vt 0.844480 0.210383
vt 0.887246 0.204369
vt 0.914280 0.194377
vt 0.833792 0.187726
vt 0.850668 0.171923
vt 0.832150 0.181412
vt 0.852267 0.197606
vt 0.869329 0.210093
vt 0.824837 0.222431
vt 0.811259 0.214597
vt 0.783566 0.205426
vt 0.783773 0.216675
vt 0.824344 0.175818
vt 0.810735 0.182158
vt 0.826426 0.183100
vt 0.832150 0.181412
vt 0.824343 0.175818
vt 0.827231 0.171847
vt 0.927341 0.150835
vt 0.852267 0.197606
vt 0.854128 0.185442
vt 0.826426 0.183100
vt 0.826913 0.202715
vt 0.811179 0.204159
vt 0.810801 0.164121
vt 0.792758 0.153539
vt 0.782777 0.162161
vt 0.782916 0.171599
vt 0.810460 0.172605
vt 0.827231 0.171847
vt 0.827303 0.154440
vt 0.844907 0.162020
vt 0.844480 0.210383
vt 0.834564 0.194056
vt 0.832799 0.204060
vt 0.828047 0.214716
vt 0.824837 0.222431
vt 0.852828 0.178486
vt 0.833792 0.187726
vt 0.825010 0.210858
vt 0.827327 0.188577
vt 0.834564 0.194056
vt 0.979765 0.234928
vt 0.979733 0.240037
vt 0.978280 0.233393
vt 0.832799 0.204060
vt 0.850668 0.171923
vt 0.844907 0.162020
vt 0.811923 0.223061
vt 0.785643 0.228974
vt 0.927341 0.150835
vt 0.927488 0.134255
vt 0.869329 0.210093
vt 0.811179 0.204159
vt 0.918303 0.128418
vt 0.935188 0.173284
vt 0.966293 0.209488
vt 0.811029 0.188315
vt 0.783386 0.195077
vt 0.892298 0.116378
vt 0.930114 0.085816
vt 0.940504 0.126029
vt 0.930857 0.086320
vt 0.910820 0.120044
vt 0.810802 0.164121
vt 0.810460 0.172605
vt 0.927488 0.134255
vt 0.945965 0.142089
vt 0.918303 0.128418
vt 0.950960 0.230757
vt 0.977084 0.247499
vt 0.915258 0.045029
vt 0.923015 0.051639
vt 0.924169 0.047693
vt 0.930114 0.085816
vt 0.783117 0.181907
vt 0.854128 0.185442
vt 0.811029 0.188315
vt 0.783255 0.188492
vt 0.827303 0.154440
vt 0.851378 0.135550
vt 0.784316 0.159213
vt 0.892298 0.116378
vt 0.908605 0.242077
vt 0.845814 0.225356
vt 0.912481 0.241090
vt 0.965259 0.211055
vt 0.866264 0.081888
vt 0.823789 0.140047
vt 0.932197 0.238415
vt 0.913915 0.048982
vt 0.908008 0.044971
vt 0.929685 0.061813
vt 0.927132 0.081416
vt 0.928037 0.056741
vt 0.845814 0.225356
vt 0.840396 0.227744
vt 0.851378 0.135550
vt 0.892131 0.072996
vt 0.913915 0.048982
vt 0.920563 0.074405
vt 0.930334 0.059776
vt 0.908508 0.071526
vt 0.927132 0.081416
vt 0.892048 0.052303
vt 0.891912 0.054061
vt 0.892131 0.072996
vt 0.978280 0.233393
vt 0.977084 0.247499
vt 0.981673 0.250421
vt 0.932197 0.238415
vt 0.907157 0.197690
vt 0.950896 0.252774
vt 0.960846 0.219824
vt 0.979733 0.240037
vt 0.950896 0.252774
vt 0.912481 0.241090
vt 0.928037 0.056741
vt 0.950960 0.230757
vt 0.982878 0.243534
vt 0.966182 0.252413
vt 0.905618 0.048831
vt 0.905618 0.048831
vt 0.891912 0.054061
vt 0.923015 0.051639
vt 0.928962 0.052482
vt 0.783994 0.226111
vt 0.952320 0.167420
vt 0.880794 0.208473
vt 0.832475 0.153560
s 1
g Bone.004
g cola1_Material.001
usemtl Material.001
f 85/1/1 113/2/2 110/3/3
g Bone.003
f 22/4/4 50/5/5 14/6/6
g Bone.004
f 71/7/7 121/8/8 79/9/9
f 135/10/10 84/11/11 88/12/12
f 86/13/13 136/14/14 134/15/15
g Bone.003
f 51/16/16 27/17/17 56/18/18
g Bone.004
f 64/19/19 103/20/20 98/21/21
g Bone.003
f 46/22/22 69/23/23 42/24/24
f 98/21/21 68/25/25 64/19/19
f 96/26/26 67/27/27 62/16/28
f 21/28/29 30/29/30 1/30/31
f 5/31/32 43/32/33 38/33/34
f 41/34/35 7/35/36 18/36/37
g Bone.004
f 89/37/38 58/38/39 55/39/40
g Bone.003
f 40/32/41 7/35/36 39/40/42
f 22/4/4 32/41/43 33/42/44
f 23/43/45 61/44/46 10/45/47
f 23/43/45 2/46/48 12/47/49
f 23/43/45 5/31/32 16/48/50
f 65/49/51 16/48/50 63/50/52
f 58/38/39 85/1/1 53/51/53
f 27/17/17 3/30/54 20/28/55
f 32/41/43 24/52/56 34/53/57
f 15/54/58 56/55/18 27/17/17
f 60/56/59 24/52/56 45/57/60
f 6/58/61 27/17/17 20/28/55
f 34/53/57 53/51/53 15/54/58
f 34/53/57 6/58/61 32/41/43
f 50/5/5 24/52/56 14/6/6
f 49/59/62 25/60/63 46/22/22
g Bone.004
f 120/61/64 122/62/65 125/63/66
g Bone.003
f 35/64/67 4/58/68 17/54/69
f 86/13/13 59/65/70 54/66/71
f 26/67/72 62/68/28 67/27/27
f 6/58/61 33/42/44 32/41/43
g Bone.004
f 70/56/73 102/69/74 106/70/75
g Bone.003
f 83/71/76 56/55/18 90/20/77
f 4/58/68 36/72/78 21/28/29
g Bone.004
f 105/73/79 70/56/73 106/70/75
f 92/74/80 108/75/81 113/2/2
g Bone.003
f 4/58/68 26/67/72 17/54/69
f 47/76/82 8/77/83 28/4/84
g Bone.004
f 54/66/71 91/78/85 86/13/13
g Bone.003
f 49/59/62 28/4/84 13/6/86
g Bone.004
f 144/79/87 82/80/88 132/81/89
g Bone.003
f 69/23/23 97/82/90 63/50/52
f 24/52/56 58/38/39 34/53/57
f 29/83/91 7/35/36 19/84/92
f 31/41/93 25/60/63 13/6/86
g Bone.004
f 94/85/94 77/86/95 89/37/38
g Bone.003
f 31/41/93 28/4/84 36/72/78
f 36/72/78 8/77/83 30/29/30
g Bone.004
f 77/86/95 92/74/80 89/37/38
g Bone.003
f 93/87/96 60/56/59 59/65/70
f 59/65/70 45/57/60 41/34/35
g Bone.004
f 121/8/8 112/88/97 124/89/98
f 72/90/99 154/91/100 78/92/101
g Bone.003
f 45/57/60 39/40/42 41/34/35
g Bone.004
f 138/93/102 82/80/88 94/85/94
g Bone.003
f 38/33/34 46/22/22 42/24/24
f 12/47/49 37/94/103 43/32/33
f 35/64/67 64/19/19 68/25/25
f 41/34/35 54/66/71 59/65/70
f 25/60/63 68/25/25 66/95/104
f 44/96/105 39/40/42 50/5/5
g Bone.004
f 110/3/3 125/63/66 122/62/65
g Bone.003
f 47/76/82 38/33/34 43/32/33
f 43/32/33 48/97/106 47/76/82
f 25/60/63 70/56/73 46/22/22
f 18/36/37 57/98/107 54/66/71
f 84/99/11 57/98/107 52/100/108
f 95/11/109 65/49/51 100/101/110
f 17/54/69 67/27/27 64/19/19
g Bone.004
f 107/102/111 87/103/112 111/104/113
f 100/101/110 63/50/52 97/82/90
f 98/21/21 118/105/114 104/74/115
g Bone.003
f 131/106/116 88/12/12 76/107/117
g Bone.004
f 109/108/118 90/20/77 112/88/97
f 150/109/119 81/110/120 72/90/99
f 111/104/113 83/71/76 109/108/118
f 152/111/121 137/112/122 151/113/123
f 106/70/75 77/86/95 82/80/88
g Bone.003
f 107/102/111 99/114/124 75/115/125
g Bone.004
f 112/88/97 85/1/1 110/3/3
f 142/10/126 95/116/109 139/117/127
f 137/112/122 86/13/13 134/15/15
f 138/93/102 93/87/96 137/112/122
f 155/118/128 140/119/129 154/91/100
f 104/74/115 77/86/95 102/69/74
f 158/111/130 132/81/89 146/120/131
f 139/117/127 100/101/110 141/121/132
f 143/122/133 97/82/90 105/73/79
f 135/10/10 74/123/134 149/124/135
f 133/125/136 91/78/85 84/99/11
f 130/126/137 108/75/81 118/105/114
f 129/127/138 79/9/9 119/128/139
f 108/75/81 104/74/115 118/105/114
f 131/106/116 101/12/140 142/10/126
f 114/129/141 103/130/20 96/26/26
f 60/56/59 89/37/38 55/39/40
f 90/130/77 53/51/53 85/1/1
f 124/89/98 110/3/3 122/62/65
f 123/131/142 109/108/118 121/8/8
f 115/132/143 129/127/138 127/133/144
f 108/75/81 125/63/66 113/2/2
f 128/134/145 114/129/141 116/135/146
f 130/126/137 115/132/143 127/133/144
f 143/122/133 158/111/130 157/136/147
f 98/21/21 117/137/148 115/132/143
f 105/73/79 144/79/87 143/122/133
f 116/135/146 96/26/26 99/114/124
f 127/133/144 119/128/139 73/138/149
f 126/139/150 71/7/7 79/9/9
f 134/15/15 151/113/123 137/112/122
f 79/9/9 124/89/98 119/128/139
f 120/61/64 127/133/144 73/138/149
f 119/128/139 122/62/65 73/138/149
f 128/134/145 107/102/111 71/7/7
f 117/137/148 126/139/150 129/127/138
f 132/81/89 152/111/121 146/120/131
f 140/119/129 157/136/147 154/91/100
f 153/140/151 141/121/132 155/118/128
f 133/125/136 149/124/135 147/141/152
f 156/142/153 139/117/127 153/140/151
f 148/143/154 145/144/155 151/113/123
f 74/123/134 153/140/151 81/110/120
f 147/141/152 136/14/14 133/125/136
f 150/109/119 134/15/15 136/14/14
f 141/121/132 97/82/90 140/119/129
f 107/102/111 123/131/142 71/7/7
f 81/110/120 155/118/128 72/90/99
f 74/123/134 147/141/152 149/124/135
f 72/90/99 148/143/154 150/109/119
f 151/113/123 146/120/131 152/111/121
f 154/91/100 145/144/155 78/92/101
f 157/136/147 146/120/131 145/144/155
f 142/10/126 74/123/134 131/106/116
g Bone.003
f 5/31/32 42/24/24 16/48/50
f 1/30/31 26/67/72 21/28/29
g Bone.004
f 68/25/25 102/69/74 66/95/104
g Bone.003
f 63/50/52 42/24/24 69/23/23
g Bone.004
f 85/1/1 92/74/80 113/2/2
g Bone.003
f 22/4/4 44/96/105 50/5/5
g Bone.004
f 71/7/7 123/131/142 121/8/8
f 135/10/10 133/125/136 84/11/11
f 86/13/13 91/78/85 136/14/14
g Bone.003
f 51/16/16 9/145/156 27/17/17
f 64/19/19 67/18/27 103/20/20
f 46/22/22 70/56/73 69/23/23
g Bone.004
f 98/21/21 104/74/115 68/25/25
g Bone.003
f 96/26/26 103/20/20 67/27/27
f 21/28/29 36/72/78 30/29/30
f 5/31/32 12/47/49 43/32/33
f 41/34/35 39/40/42 7/35/36
g Bone.004
f 89/37/38 92/74/80 58/38/39
g Bone.003
f 40/32/41 19/84/92 7/35/36
f 22/4/4 14/6/6 32/41/43
f 23/43/45 65/49/51 61/44/46
f 23/43/45 10/45/47 2/46/48
f 23/43/45 12/47/49 5/31/32
f 65/49/51 23/43/45 16/48/50
g Bone.004
f 58/38/39 92/74/80 85/1/1
g Bone.003
f 27/17/17 9/145/156 3/30/54
f 32/41/43 14/6/6 24/52/56
f 15/54/58 53/51/53 56/55/18
f 60/56/59 55/39/40 24/52/56
f 6/58/61 15/54/58 27/17/17
f 34/53/57 58/38/39 53/51/53
f 34/53/57 15/54/58 6/58/61
f 50/5/5 45/57/60 24/52/56
f 49/59/62 13/6/86 25/60/63
g Bone.004
f 120/61/64 73/138/149 122/62/65
g Bone.003
f 35/64/67 31/41/93 4/58/68
g Bone.004
f 86/13/13 93/87/96 59/65/70
g Bone.003
f 26/67/72 11/145/157 62/68/28
f 6/58/61 20/28/55 33/42/44
g Bone.004
f 70/56/73 66/95/104 102/69/74
g Bone.003
f 83/71/76 51/16/16 56/55/18
f 4/58/68 31/41/93 36/72/78
f 105/73/79 69/23/23 70/56/73
g Bone.004
f 92/74/80 80/146/158 108/75/81
g Bone.003
f 4/58/68 21/28/29 26/67/72
f 47/76/82 48/97/106 8/77/83
f 54/66/71 57/98/107 91/78/85
f 49/59/62 47/76/82 28/4/84
g Bone.004
f 144/79/87 106/70/75 82/80/88
f 69/23/23 105/73/79 97/82/90
g Bone.003
f 24/52/56 55/39/40 58/38/39
f 29/83/91 18/36/37 7/35/36
f 31/41/93 35/64/67 25/60/63
g Bone.004
f 94/85/94 82/80/88 77/86/95
g Bone.003
f 31/41/93 13/6/86 28/4/84
f 36/72/78 28/4/84 8/77/83
g Bone.004
f 77/86/95 80/146/158 92/74/80
f 93/87/96 94/85/94 60/56/59
g Bone.003
f 59/65/70 60/56/59 45/57/60
g Bone.004
f 121/8/8 109/108/118 112/88/97
f 72/90/99 155/118/128 154/91/100
g Bone.003
f 45/57/60 50/5/5 39/40/42
g Bone.004
f 138/93/102 132/81/89 82/80/88
g Bone.003
f 38/33/34 49/59/62 46/22/22
f 12/47/49 2/46/48 37/94/103
f 35/64/67 17/54/69 64/19/19
f 41/34/35 18/36/37 54/66/71
f 25/60/63 35/64/67 68/25/25
f 44/96/105 40/32/41 39/40/42
g Bone.004
f 110/3/3 113/2/2 125/63/66
g Bone.003
f 47/76/82 49/59/62 38/33/34
f 43/32/33 37/94/103 48/97/106
f 25/60/63 66/95/104 70/56/73
f 18/36/37 29/83/91 57/98/107
f 84/99/11 91/78/85 57/98/107
f 95/11/109 61/44/46 65/49/51
f 17/54/69 26/67/72 67/27/27
f 107/102/111 75/115/125 87/103/112
f 100/101/110 65/49/51 63/50/52
g Bone.004
f 98/21/21 115/132/143 118/105/114
f 131/106/116 135/10/10 88/12/12
f 109/108/118 83/147/76 90/20/77
f 150/109/119 147/141/152 81/110/120
f 111/104/113 87/103/112 83/71/76
f 152/111/121 138/93/102 137/112/122
f 106/70/75 102/69/74 77/86/95
f 107/102/111 116/135/146 99/114/124
f 112/88/97 90/20/77 85/1/1
f 142/10/126 101/148/140 95/116/109
f 137/112/122 93/87/96 86/13/13
f 138/93/102 94/85/94 93/87/96
f 155/118/128 141/121/132 140/119/129
f 104/74/115 80/146/158 77/86/95
f 158/111/130 144/79/87 132/81/89
f 139/117/127 95/116/109 100/101/110
f 143/122/133 140/119/129 97/82/90
f 135/10/10 131/106/116 74/123/134
f 133/125/136 136/14/14 91/78/85
f 130/126/137 120/61/64 108/75/81
f 129/127/138 126/139/150 79/9/9
f 108/75/81 80/146/158 104/74/115
g Bone.003
f 131/106/116 76/107/117 101/12/140
g Bone.004
f 114/129/141 117/137/148 103/130/20
f 60/56/59 94/85/94 89/37/38
g Bone.003
f 90/130/77 56/55/18 53/51/53
g Bone.004
f 124/89/98 112/88/97 110/3/3
f 123/131/142 111/104/113 109/108/118
f 115/132/143 117/137/148 129/127/138
f 108/75/81 120/61/64 125/63/66
f 128/134/145 126/139/150 114/129/141
f 130/126/137 118/105/114 115/132/143
f 143/122/133 144/79/87 158/111/130
f 98/21/21 103/20/20 117/137/148
f 105/73/79 106/70/75 144/79/87
f 116/135/146 114/129/141 96/26/26
f 127/133/144 129/127/138 119/128/139
f 126/139/150 128/134/145 71/7/7
f 134/15/15 148/143/154 151/113/123
f 79/9/9 121/8/8 124/89/98
f 120/61/64 130/126/137 127/133/144
f 119/128/139 124/89/98 122/62/65
f 128/134/145 116/135/146 107/102/111
f 117/137/148 114/129/141 126/139/150
f 132/81/89 138/93/102 152/111/121
f 140/119/129 143/122/133 157/136/147
f 153/140/151 139/117/127 141/121/132
f 133/125/136 135/10/10 149/124/135
f 156/142/153 142/10/126 139/117/127
f 148/143/154 78/92/101 145/144/155
f 74/123/134 156/142/153 153/140/151
f 147/141/152 150/109/119 136/14/14
f 150/109/119 148/143/154 134/15/15
f 141/121/132 100/101/110 97/82/90
f 107/102/111 111/104/113 123/131/142
f 81/110/120 153/140/151 155/118/128
f 74/123/134 81/110/120 147/141/152
f 72/90/99 78/92/101 148/143/154
f 151/113/123 145/144/155 146/120/131
f 154/91/100 157/136/147 145/144/155
f 157/136/147 158/111/130 146/120/131
f 142/10/126 156/142/153 74/123/134
g Bone.003
f 5/31/32 38/33/34 42/24/24
f 1/30/31 11/145/157 26/67/72
g Bone.004
f 68/25/25 104/74/115 102/69/74
g Bone.003
f 63/50/52 16/48/50 42/24/24
