# Blender 4.5.4 LTS
# www.blender.org
o AguaP
v -2.940816 0.091558 8.739748
v -3.680086 0.091558 9.963368
v -7.279274 0.091558 9.963368
v -8.018545 0.091558 8.739748
v -8.018545 0.091558 2.782472
v -7.279275 0.091558 1.558851
v -3.680087 0.091558 1.558851
v -2.940816 0.091558 2.782472
v -2.940816 0.264206 8.739748
v -3.680086 0.264206 9.963368
v -7.279274 0.264206 9.963368
v -8.018545 0.264206 8.739748
v -8.018545 0.264206 2.782472
v -7.279275 0.264206 1.558851
v -3.680087 0.264206 1.558851
v -2.940816 0.264206 2.782472
vn 0.0782 -0.9967 0.0196
vn 0.0325 -0.9984 0.0473
vn -0.0325 -0.9984 0.0473
vn -0.0782 -0.9967 0.0196
vn -0.0782 -0.9967 -0.0196
vn -0.0325 -0.9984 -0.0473
vn 0.0325 -0.9984 -0.0473
vn 0.0782 -0.9967 -0.0196
vn 0.0782 0.9967 0.0196
vn 0.0325 0.9984 0.0473
vn -0.0325 0.9984 0.0473
vn -0.0782 0.9967 0.0196
vn -0.0782 0.9967 -0.0196
vn -0.0325 0.9984 -0.0473
vn 0.0325 0.9984 -0.0473
vn 0.0782 0.9967 -0.0196
vt 0.508800 0.551807
vt 0.509368 0.548523
vt 0.505841 0.547709
vt 0.505495 0.551285
vt 0.509368 0.551239
vt 0.505495 0.548477
vt 0.508800 0.547955
vt 0.505841 0.552054
s 1
f 1/1/1 3/2/3 5/3/5
f 11/2/11 9/1/9 15/4/15
f 2/5/2 11/2/11 3/2/3
f 5/3/5 14/6/14 6/6/6
f 1/1/1 10/5/10 2/5/2
f 4/7/4 13/3/13 5/3/5
f 8/8/8 9/1/9 1/1/1
f 7/4/7 16/8/16 8/8/8
f 3/2/3 12/7/12 4/7/4
f 6/6/6 15/4/15 7/4/7
f 5/3/5 6/6/6 7/4/7
f 7/4/7 8/8/8 1/1/1
f 1/1/1 2/5/2 3/2/3
f 3/2/3 4/7/4 5/3/5
f 5/3/5 7/4/7 1/1/1
f 15/4/15 14/6/14 13/3/13
f 13/3/13 12/7/12 11/2/11
f 11/2/11 10/5/10 9/1/9
f 9/1/9 16/8/16 15/4/15
f 15/4/15 13/3/13 11/2/11
f 2/5/2 10/5/10 11/2/11
f 5/3/5 13/3/13 14/6/14
f 1/1/1 9/1/9 10/5/10
f 4/7/4 12/7/12 13/3/13
f 8/8/8 16/8/16 9/1/9
f 7/4/7 15/4/15 16/8/16
f 3/2/3 11/2/11 12/7/12
f 6/6/6 14/6/14 15/4/15
