# Blender 4.5.4 LTS
# www.blender.org
o ParedLD
v 9.863323 0.011405 12.315163
v 9.863323 3.011405 12.315163
v 9.863323 0.011405 -17.684837
v 9.863323 3.011405 -17.684837
v 10.063324 0.011405 12.315163
v 10.063324 3.011405 12.315163
v 10.063324 0.011405 -17.684837
v 10.063324 3.011405 -17.684837
vn -0.9978 -0.0665 0.0067
vn -0.9978 0.0665 0.0067
vn -0.9978 -0.0665 -0.0067
vn -0.9978 0.0665 -0.0067
vn 0.9978 -0.0665 0.0067
vn 0.9978 0.0665 0.0067
vn 0.9978 -0.0665 -0.0067
vn 0.9978 0.0665 -0.0067
vt 0.889597 0.856288
vt 0.885228 0.860656
vt 0.885228 0.856288
vt 0.889597 0.860656
vt 0.885228 0.865025
vt 0.889597 0.865025
vt 0.885228 0.869393
vt 0.889597 0.869393
vt 0.885228 0.873762
vt 0.880860 0.869393
vt 0.880860 0.865025
vt 0.893965 0.865025
vt 0.889597 0.873762
vt 0.893965 0.869393
s 1
f 2/1/2 3/2/3 1/3/1
f 4/4/4 7/5/7 3/2/3
f 8/6/8 5/7/5 7/5/7
f 6/8/6 1/9/1 5/7/5
f 7/5/7 1/10/1 3/11/3
f 4/12/4 6/8/6 8/6/8
f 2/1/2 4/4/4 3/2/3
f 4/4/4 8/6/8 7/5/7
f 8/6/8 6/8/6 5/7/5
f 6/8/6 2/13/2 1/9/1
f 7/5/7 5/7/5 1/10/1
f 4/12/4 2/14/2 6/8/6
