# Blender 4.5.4 LTS
# www.blender.org
o ParedLI
v -9.947133 0.011447 12.311517
v -9.947133 3.011447 12.311517
v -9.947133 0.011447 -17.688484
v -9.947133 3.011447 -17.688484
v -9.747132 0.011447 12.311517
v -9.747132 3.011447 12.311517
v -9.747132 0.011447 -17.688484
v -9.747132 3.011447 -17.688484
vn -0.9978 -0.0665 0.0067
vn -0.9978 0.0665 0.0067
vn -0.9978 -0.0665 -0.0067
vn -0.9978 0.0665 -0.0067
vn 0.9978 -0.0665 0.0067
vn 0.9978 0.0665 0.0067
vn 0.9978 -0.0665 -0.0067
vn 0.9978 0.0665 -0.0067
vt 0.008737 0.877604
vt 0.004369 0.881972
vt 0.004369 0.877604
vt 0.008737 0.881972
vt 0.004369 0.886341
vt 0.008737 0.886341
vt 0.004369 0.890709
vt 0.008737 0.890709
vt 0.004369 0.895078
vt 0.000000 0.890709
vt 0.000000 0.886341
vt 0.013106 0.886341
vt 0.008737 0.895078
vt 0.013106 0.890709
s 1
f 2/1/2 3/2/3 1/3/1
f 4/4/4 7/5/7 3/2/3
f 8/6/8 5/7/5 7/5/7
f 6/8/6 1/9/1 5/7/5
f 7/5/7 1/10/1 3/11/3
f 4/12/4 6/8/6 8/6/8
f 2/1/2 4/4/4 3/2/3
f 4/4/4 8/6/8 7/5/7
f 8/6/8 6/8/6 5/7/5
f 6/8/6 2/13/2 1/9/1
f 7/5/7 5/7/5 1/10/1
f 4/12/4 2/14/2 6/8/6
