# Blender 4.5.4 LTS
# www.blender.org
o ParedLF
v -4.174259 0.015630 14.204543
v -4.174259 3.015630 14.204543
v -4.174259 0.015630 12.504542
v -4.174259 3.015630 12.504542
v -3.974259 0.015630 14.204543
v -3.974259 3.015630 14.204543
v -3.974259 0.015630 12.504542
v -3.974259 3.015630 12.504542
v 4.012883 0.015630 14.204543
v 4.012883 3.015630 14.204543
v 4.012883 0.015630 12.504542
v 4.012883 3.015630 12.504542
v 4.212883 0.015630 14.204543
v 4.212883 3.015630 14.204543
v 4.212883 0.015630 12.504542
v 4.212883 3.015630 12.504542
vn -0.9910 -0.0661 0.1166
vn -0.9910 0.0661 0.1166
vn -0.9910 -0.0661 -0.1166
vn -0.9910 0.0661 -0.1166
vn 0.9910 -0.0661 0.1166
vn 0.9910 0.0661 0.1166
vn 0.9910 -0.0661 -0.1166
vn 0.9910 0.0661 -0.1166
vt 0.100476 0.877604
vt 0.096107 0.881972
vt 0.096107 0.877604
vt 0.100476 0.881972
vt 0.096107 0.886341
vt 0.100476 0.886341
vt 0.096107 0.890709
vt 0.100476 0.890709
vt 0.096107 0.895078
vt 0.091739 0.890709
vt 0.091739 0.886341
vt 0.104844 0.886341
vt 0.113581 0.877604
vt 0.109213 0.881972
vt 0.109213 0.877604
vt 0.113581 0.881972
vt 0.109213 0.886341
vt 0.113581 0.886341
vt 0.109213 0.890709
vt 0.113581 0.890709
vt 0.109213 0.895078
vt 0.104844 0.890709
vt 0.117950 0.886341
vt 0.100476 0.895078
vt 0.113581 0.895078
vt 0.117950 0.890709
s 1
f 2/1/2 3/2/3 1/3/1
f 4/4/4 7/5/7 3/2/3
f 8/6/8 5/7/5 7/5/7
f 6/8/6 1/9/1 5/7/5
f 7/5/7 1/10/1 3/11/3
f 4/12/4 6/8/6 8/6/8
f 10/13/2 11/14/3 9/15/1
f 12/16/4 15/17/7 11/14/3
f 16/18/8 13/19/5 15/17/7
f 14/20/6 9/21/1 13/19/5
f 15/17/7 9/22/1 11/12/3
f 12/23/4 14/20/6 16/18/8
f 2/1/2 4/4/4 3/2/3
f 4/4/4 8/6/8 7/5/7
f 8/6/8 6/8/6 5/7/5
f 6/8/6 2/24/2 1/9/1
f 7/5/7 5/7/5 1/10/1
f 4/12/4 2/22/2 6/8/6
f 10/13/2 12/16/4 11/14/3
f 12/16/4 16/18/8 15/17/7
f 16/18/8 14/20/6 13/19/5
f 14/20/6 10/25/2 9/21/1
f 15/17/7 13/19/5 9/22/1
f 12/23/4 10/26/2 14/20/6
