# Blender 4.5.4 LTS
# www.blender.org
o ParedF2
v 4.012663 0.012531 12.505538
v 4.012663 3.012531 12.505538
v 4.012663 0.012531 12.305537
v 4.012663 3.012531 12.305537
v 10.062663 0.012531 12.505538
v 10.062663 3.012531 12.505538
v 10.062663 0.012531 12.305537
v 10.062663 3.012531 12.305537
v -9.944875 0.012531 12.505538
v -9.944875 3.012531 12.505538
v -9.944875 0.012531 12.305537
v -9.944875 3.012531 12.305537
v -3.974875 0.012531 12.505538
v -3.974875 3.012531 12.505538
v -3.974875 0.012531 12.305537
v -3.974875 3.012531 12.305537
vn -0.5742 -0.5790 0.5789
vn -0.5742 0.5789 0.5789
vn -0.5742 -0.5789 -0.5789
vn -0.5742 0.5790 -0.5789
vn 0.5742 -0.5789 0.5789
vn 0.5742 0.5790 0.5789
vn 0.5742 -0.5790 -0.5789
vn 0.5742 0.5789 -0.5789
vt 0.379644 0.918829
vt 0.383967 0.914532
vt 0.383967 0.918829
vt 0.379644 0.914532
vt 0.383967 0.910235
vt 0.379644 0.910235
vt 0.383967 0.905939
vt 0.379644 0.905939
vt 0.383967 0.901642
vt 0.388289 0.905939
vt 0.388289 0.910235
vt 0.375322 0.910235
vt 0.379679 0.901642
vt 0.384035 0.897312
vt 0.384035 0.901642
vt 0.379679 0.897312
vt 0.384035 0.892981
vt 0.379679 0.892981
vt 0.384035 0.888650
vt 0.379679 0.888650
vt 0.384035 0.884319
vt 0.388392 0.888650
vt 0.388392 0.892981
vt 0.375322 0.892981
vt 0.379644 0.901642
vt 0.375322 0.905939
vt 0.379679 0.884319
vt 0.375322 0.888650
s 1
f 2/1/2 3/2/3 1/3/1
f 4/4/4 7/5/7 3/2/3
f 8/6/8 5/7/5 7/5/7
f 6/8/6 1/9/1 5/7/5
f 7/5/7 1/10/1 3/11/3
f 4/12/4 6/8/6 8/6/8
f 10/13/2 11/14/3 9/15/1
f 12/16/4 15/17/7 11/14/3
f 16/18/8 13/19/5 15/17/7
f 14/20/6 9/21/1 13/19/5
f 15/17/7 9/22/1 11/23/3
f 12/24/4 14/20/6 16/18/8
f 2/1/2 4/4/4 3/2/3
f 4/4/4 8/6/8 7/5/7
f 8/6/8 6/8/6 5/7/5
f 6/8/6 2/25/2 1/9/1
f 7/5/7 5/7/5 1/10/1
f 4/12/4 2/26/2 6/8/6
f 10/13/2 12/16/4 11/14/3
f 12/16/4 16/18/8 15/17/7
f 16/18/8 14/20/6 13/19/5
f 14/20/6 10/27/2 9/21/1
f 15/17/7 13/19/5 9/22/1
f 12/24/4 10/28/2 14/20/6
