# Blender 4.5.4 LTS
# www.blender.org
o Torre
v -0.650000 4.613569 13.282083
v -0.650000 6.613569 13.282083
v -0.650000 4.613569 12.682082
v -0.650000 6.613569 12.682082
v 0.650000 4.613569 13.282083
v 0.650000 6.613569 13.282083
v 0.650000 4.613569 12.682082
v 0.650000 6.613569 12.682082
v -1.000000 3.015119 13.285413
v -1.000000 4.515119 13.285413
v -1.000000 3.015119 12.685412
v -1.000000 4.515119 12.685412
v 1.000000 3.015119 13.285413
v 1.000000 4.515119 13.285413
v 1.000000 3.015119 12.685412
v 1.000000 4.515119 12.685412
vn -0.4043 -0.2628 0.8760
vn -0.4043 0.2628 0.8760
vn -0.4043 -0.2628 -0.8760
vn -0.4043 0.2628 -0.8761
vn 0.4043 -0.2628 0.8760
vn 0.4043 0.2628 0.8760
vn 0.4043 -0.2628 -0.8761
vn 0.4043 0.2628 -0.8760
vn -0.4043 0.2628 -0.8760
vn 0.4043 -0.2628 -0.8760
vt 0.126687 0.877604
vt 0.122318 0.881972
vt 0.122318 0.877604
vt 0.126687 0.881972
vt 0.122318 0.886341
vt 0.126687 0.886341
vt 0.122318 0.890709
vt 0.126687 0.890709
vt 0.122318 0.895078
vt 0.117950 0.890709
vt 0.117950 0.886341
vt 0.131055 0.886341
vt 0.139792 0.877604
vt 0.135424 0.881972
vt 0.135424 0.877604
vt 0.139792 0.881972
vt 0.135424 0.886341
vt 0.139792 0.886341
vt 0.135424 0.890709
vt 0.139792 0.890709
vt 0.135424 0.895078
vt 0.131055 0.890709
vt 0.144161 0.886341
vt 0.126687 0.895078
vt 0.139792 0.895078
vt 0.144161 0.890709
s 1
f 2/1/2 3/2/3 1/3/1
f 4/4/4 7/5/7 3/2/3
f 8/6/8 5/7/5 7/5/7
f 6/8/6 1/9/1 5/7/5
f 7/5/7 1/10/1 3/11/3
f 4/12/4 6/8/6 8/6/8
f 10/13/2 11/14/3 9/15/1
f 12/16/9 15/17/10 11/14/3
f 16/18/8 13/19/5 15/17/10
f 14/20/6 9/21/1 13/19/5
f 15/17/10 9/22/1 11/12/3
f 12/23/9 14/20/6 16/18/8
f 2/1/2 4/4/4 3/2/3
f 4/4/4 8/6/8 7/5/7
f 8/6/8 6/8/6 5/7/5
f 6/8/6 2/24/2 1/9/1
f 7/5/7 5/7/5 1/10/1
f 4/12/4 2/22/2 6/8/6
f 10/13/2 12/16/9 11/14/3
f 12/16/9 16/18/8 15/17/10
f 16/18/8 14/20/6 13/19/5
f 14/20/6 10/25/2 9/21/1
f 15/17/10 13/19/5 9/22/1
f 12/23/9 10/26/2 14/20/6
