# Blender 4.5.4 LTS
# www.blender.org
o Trabes
v -4.177341 0.011421 14.342076
v -4.066091 3.011421 14.286450
v -4.177341 0.011421 14.142076
v -4.066091 3.011421 14.197701
v -3.777342 0.011421 14.342076
v -3.888592 3.011421 14.286450
v -3.777342 0.011421 14.142076
v -3.888592 3.011421 14.197701
v -1.187325 0.007010 14.342076
v -1.076075 3.007010 14.286450
v -1.187325 0.007010 14.142076
v -1.076075 3.007010 14.197701
v -0.787325 0.007010 14.342076
v -0.898576 3.007010 14.286450
v -0.787325 0.007010 14.142076
v -0.898576 3.007010 14.197701
v -2.726963 0.007010 14.342076
v -2.615712 3.007010 14.286450
v -2.726963 0.007010 14.142076
v -2.615712 3.007010 14.197701
v -2.326963 0.007010 14.342076
v -2.438213 3.007010 14.286450
v -2.326963 0.007010 14.142076
v -2.438213 3.007010 14.197701
v 0.730933 0.007010 14.342076
v 0.842184 3.007010 14.286450
v 0.730933 0.007010 14.142076
v 0.842184 3.007010 14.197701
v 1.130933 0.007010 14.342076
v 1.019682 3.007010 14.286450
v 1.130933 0.007010 14.142076
v 1.019682 3.007010 14.197701
v 2.279620 0.007010 14.342076
v 2.390870 3.007010 14.286450
v 2.279620 0.007010 14.142076
v 2.390870 3.007010 14.197701
v 2.679619 0.007010 14.342076
v 2.568368 3.007010 14.286450
v 2.679619 0.007010 14.142076
v 2.568368 3.007010 14.197701
v 3.766709 0.007010 14.342076
v 3.877960 3.007010 14.286450
v 3.766709 0.007010 14.142076
v 3.877960 3.007010 14.197701
v 4.166709 0.007010 14.342076
v 4.055458 3.007010 14.286450
v 4.166709 0.007010 14.142076
v 4.055458 3.007010 14.197701
vn -0.4468 -0.0411 0.8937
vn -0.4456 0.0859 0.8911
vn -0.4468 -0.0411 -0.8937
vn -0.4456 0.0859 -0.8911
vn 0.4468 -0.0411 0.8937
vn 0.4456 0.0859 0.8911
vn 0.4468 -0.0411 -0.8937
vn 0.4456 0.0859 -0.8911
vt 0.021843 0.877604
vt 0.017474 0.881972
vt 0.017474 0.877604
vt 0.021843 0.881972
vt 0.017474 0.886341
vt 0.021843 0.886341
vt 0.017474 0.890709
vt 0.021843 0.890709
vt 0.017474 0.895078
vt 0.013106 0.890709
vt 0.013106 0.886341
vt 0.026211 0.886341
vt 0.034948 0.877604
vt 0.030580 0.881972
vt 0.030580 0.877604
vt 0.034948 0.881972
vt 0.030580 0.886341
vt 0.034948 0.886341
vt 0.030580 0.890709
vt 0.034948 0.890709
vt 0.030580 0.895078
vt 0.026211 0.890709
vt 0.039317 0.886341
vt 0.048054 0.877604
vt 0.043685 0.881972
vt 0.043685 0.877604
vt 0.048054 0.881972
vt 0.043685 0.886341
vt 0.048054 0.886341
vt 0.043685 0.890709
vt 0.048054 0.890709
vt 0.043685 0.895078
vt 0.039317 0.890709
vt 0.052422 0.886341
vt 0.061159 0.877604
vt 0.056791 0.881972
vt 0.056791 0.877604
vt 0.061159 0.881972
vt 0.056791 0.886341
vt 0.061159 0.886341
vt 0.056791 0.890709
vt 0.061159 0.890709
vt 0.056791 0.895078
vt 0.052422 0.890709
vt 0.065528 0.886341
vt 0.074265 0.877604
vt 0.069896 0.881972
vt 0.069896 0.877604
vt 0.074265 0.886341
vt 0.069896 0.886341
vt 0.069896 0.890709
vt 0.074265 0.890709
vt 0.069896 0.895078
vt 0.065528 0.890709
vt 0.078633 0.886341
vt 0.087370 0.877604
vt 0.083002 0.881972
vt 0.083002 0.877604
vt 0.087370 0.886341
vt 0.083002 0.886341
vt 0.083002 0.890709
vt 0.087370 0.895078
vt 0.083002 0.895078
vt 0.078633 0.890709
vt 0.091739 0.886341
vt 0.087370 0.890709
vt 0.021843 0.895078
vt 0.034948 0.895078
vt 0.048054 0.895078
vt 0.061159 0.895078
vt 0.074265 0.881972
vt 0.074265 0.895078
vt 0.087370 0.881972
vt 0.091739 0.890709
s 1
f 2/1/2 3/2/3 1/3/1
f 4/4/4 7/5/7 3/2/3
f 8/6/8 5/7/5 7/5/7
f 6/8/6 1/9/1 5/7/5
f 7/5/7 1/10/1 3/11/3
f 4/12/4 6/8/6 8/6/8
f 10/13/2 11/14/3 9/15/1
f 12/16/4 15/17/7 11/14/3
f 16/18/8 13/19/5 15/17/7
f 14/20/6 9/21/1 13/19/5
f 15/17/7 9/22/1 11/12/3
f 12/23/4 14/20/6 16/18/8
f 18/24/2 19/25/3 17/26/1
f 20/27/4 23/28/7 19/25/3
f 24/29/8 21/30/5 23/28/7
f 22/31/6 17/32/1 21/30/5
f 23/28/7 17/33/1 19/23/3
f 20/34/4 22/31/6 24/29/8
f 26/35/2 27/36/3 25/37/1
f 28/38/4 31/39/7 27/36/3
f 32/40/8 29/41/5 31/39/7
f 30/42/6 25/43/1 29/41/5
f 31/39/7 25/44/1 27/34/3
f 28/45/4 30/42/6 32/40/8
f 34/46/2 35/47/3 33/48/1
f 35/47/3 40/49/8 39/50/7
f 40/49/8 37/51/5 39/50/7
f 38/52/6 33/53/1 37/51/5
f 39/50/7 33/54/1 35/45/3
f 36/55/4 38/52/6 40/49/8
f 42/56/2 43/57/3 41/58/1
f 43/57/3 48/59/8 47/60/7
f 48/59/8 45/61/5 47/60/7
f 45/61/5 42/62/2 41/63/1
f 47/60/7 41/64/1 43/55/3
f 44/65/4 46/66/6 48/59/8
f 2/1/2 4/4/4 3/2/3
f 4/4/4 8/6/8 7/5/7
f 8/6/8 6/8/6 5/7/5
f 6/8/6 2/67/2 1/9/1
f 7/5/7 5/7/5 1/10/1
f 4/12/4 2/22/2 6/8/6
f 10/13/2 12/16/4 11/14/3
f 12/16/4 16/18/8 15/17/7
f 16/18/8 14/20/6 13/19/5
f 14/20/6 10/68/2 9/21/1
f 15/17/7 13/19/5 9/22/1
f 12/23/4 10/33/2 14/20/6
f 18/24/2 20/27/4 19/25/3
f 20/27/4 24/29/8 23/28/7
f 24/29/8 22/31/6 21/30/5
f 22/31/6 18/69/2 17/32/1
f 23/28/7 21/30/5 17/33/1
f 20/34/4 18/44/2 22/31/6
f 26/35/2 28/38/4 27/36/3
f 28/38/4 32/40/8 31/39/7
f 32/40/8 30/42/6 29/41/5
f 30/42/6 26/70/2 25/43/1
f 31/39/7 29/41/5 25/44/1
f 28/45/4 26/54/2 30/42/6
f 34/46/2 36/71/4 35/47/3
f 35/47/3 36/71/4 40/49/8
f 40/49/8 38/52/6 37/51/5
f 38/52/6 34/72/2 33/53/1
f 39/50/7 37/51/5 33/54/1
f 36/55/4 34/64/2 38/52/6
f 42/56/2 44/73/4 43/57/3
f 43/57/3 44/73/4 48/59/8
f 48/59/8 46/66/6 45/61/5
f 45/61/5 46/66/6 42/62/2
f 47/60/7 45/61/5 41/64/1
f 44/65/4 42/74/2 46/66/6
