# Blender 4.5.4 LTS
# www.blender.org
o AguaF
v 0.037254 1.354987 -0.210171
v -0.008895 1.354987 -0.205713
v 0.081630 1.354987 -0.223375
v 0.122527 1.354987 -0.244816
v 0.158373 1.354987 -0.273672
v 0.187791 1.354987 -0.308833
v 0.209651 1.354987 -0.348947
v 0.223112 1.354987 -0.392474
v 0.227658 1.354987 -0.437740
v 0.223112 1.354987 -0.483006
v 0.209651 1.354987 -0.526532
v 0.187791 1.354987 -0.566647
v 0.158373 1.354987 -0.601807
v 0.122527 1.354987 -0.630663
v 0.081630 1.354987 -0.652104
v 0.037254 1.354987 -0.665308
v -0.008895 1.354987 -0.669766
v -0.055044 1.354987 -0.665308
v -0.099420 1.354987 -0.652104
v -0.140316 1.354987 -0.630663
v -0.176163 1.354987 -0.601807
v -0.205581 1.354987 -0.566647
v -0.227441 1.354987 -0.526532
v -0.240902 1.354987 -0.483006
v -0.245447 1.354987 -0.437740
v -0.240902 1.354987 -0.392473
v -0.227441 1.354987 -0.348947
v -0.205581 1.354987 -0.308832
v -0.176163 1.354987 -0.273672
v -0.140316 1.354987 -0.244817
v -0.099420 1.354987 -0.223375
v -0.055044 1.354987 -0.210171
v 0.286887 0.549174 -1.812116
v 0.005241 0.549174 -1.839349
v 0.557709 0.549173 -1.731466
v 0.807300 0.549173 -1.600497
v 1.026068 0.549173 -1.424243
v 1.205607 0.549174 -1.209476
v 1.339016 0.549173 -0.964451
v 1.421169 0.549173 -0.698583
v 1.448908 0.549173 -0.422089
v 1.421169 0.549173 -0.145595
v 1.339016 0.549173 0.120273
v 1.205607 0.549173 0.365299
v 1.026068 0.549173 0.580065
v 0.807300 0.549173 0.756320
v 0.557709 0.549173 0.887288
v 0.286887 0.549173 0.967939
v 0.005241 0.549173 0.995171
v -0.276404 0.549173 0.967939
v -0.547226 0.549173 0.887288
v -0.796817 0.549173 0.756320
v -1.015586 0.549173 0.580065
v -1.195124 0.549173 0.365299
v -1.328533 0.549173 0.120273
v -1.410686 0.549173 -0.145595
v -1.438426 0.549173 -0.422089
v -1.410686 0.549173 -0.698583
v -1.328533 0.549173 -0.964451
v -1.195124 0.549174 -1.209476
v -1.015586 0.549173 -1.424243
v -0.796817 0.549173 -1.600497
v -0.547226 0.549173 -1.731466
v -0.276404 0.549174 -1.812116
v 0.155285 0.931407 0.371272
v -0.008895 0.931408 0.387122
v 0.313155 0.931408 0.324333
v 0.458649 0.931408 0.248107
v 0.586176 0.931408 0.145524
v 0.690834 0.931408 0.020527
v 0.768602 0.931408 -0.122082
v 0.816491 0.931408 -0.276821
v 0.832662 0.931408 -0.437745
v 0.816491 0.931408 -0.598668
v 0.768602 0.931408 -0.753407
v 0.690834 0.931408 -0.896016
v 0.586176 0.931408 -1.021013
v 0.458649 0.931408 -1.123596
v 0.313155 0.931408 -1.199822
v 0.155285 0.931408 -1.246761
v -0.008895 0.931408 -1.262611
v -0.173075 0.931408 -1.246761
v -0.330945 0.931408 -1.199822
v -0.476439 0.931408 -1.123596
v -0.603965 0.931408 -1.021013
v -0.708624 0.931408 -0.896016
v -0.786392 0.931408 -0.753407
v -0.834281 0.931408 -0.598668
v -0.850451 0.931408 -0.437744
v -0.834281 0.931408 -0.276821
v -0.786391 0.931408 -0.122082
v -0.708623 0.931408 0.020527
v -0.603965 0.931408 0.145524
v -0.476438 0.931408 0.248106
v -0.330944 0.931408 0.324332
v -0.173074 0.931407 0.371272
v 0.085330 1.148847 0.026563
v -0.008895 1.148847 0.035660
v 0.175935 1.148847 -0.000376
v 0.259436 1.148847 -0.044123
v 0.332626 1.148847 -0.102997
v 0.392691 1.148847 -0.174735
v 0.437324 1.148847 -0.256581
v 0.464808 1.148847 -0.345388
v 0.474088 1.148847 -0.437745
v 0.464808 1.148847 -0.530101
v 0.437323 1.148847 -0.618909
v 0.392691 1.148847 -0.700754
v 0.332626 1.148847 -0.772492
v 0.259436 1.148847 -0.831366
v 0.175935 1.148847 -0.875113
v 0.085330 1.148847 -0.902053
v -0.008895 1.148847 -0.911149
v -0.103120 1.148847 -0.902052
v -0.193725 1.148847 -0.875113
v -0.277226 1.148847 -0.831366
v -0.350416 1.148847 -0.772492
v -0.410481 1.148847 -0.700754
v -0.455113 1.148847 -0.618908
v -0.482598 1.148847 -0.530101
v -0.491878 1.148847 -0.437744
v -0.482598 1.148847 -0.345388
v -0.455113 1.148847 -0.256581
v -0.410481 1.148847 -0.174735
v -0.350415 1.148847 -0.102997
v -0.277226 1.148847 -0.044123
v -0.193724 1.148847 -0.000376
v -0.103120 1.148847 0.026563
vn -0.0000 1.0000 -0.0000
vn -0.0001 1.0000 -0.0000
vt 0.735587 0.648508
vt 0.678748 0.696261
vt 0.632102 0.638510
vt 0.596132 0.170506
vt 0.465757 0.607679
vt 0.035970 0.473374
vt 0.632102 0.169912
vt 0.834169 -0.000000
vt 1.000000 0.205430
vt 0.843245 0.493242
vt 0.727275 0.590757
vt 0.632102 0.472857
vt 0.634090 0.628315
vt 0.637991 0.618703
vt 0.643654 0.610045
vt 0.650861 0.602673
vt 0.659335 0.596870
vt 0.668752 0.592860
vt 0.678749 0.590795
vt 0.688941 0.590757
vt 0.698938 0.592746
vt 0.708354 0.596686
vt 0.716829 0.602425
vt 0.724036 0.609742
vt 0.729699 0.618358
vt 0.733599 0.627940
vt 0.735587 0.638120
vt 0.733599 0.658703
vt 0.729698 0.668315
vt 0.724036 0.676973
vt 0.716828 0.684345
vt 0.708354 0.690148
vt 0.698937 0.694158
vt 0.688941 0.696222
vt 0.668752 0.694272
vt 0.659335 0.690332
vt 0.650860 0.684593
vt 0.643653 0.677275
vt 0.637991 0.668660
vt 0.634090 0.659078
vt 0.632102 0.648897
vt 0.012146 0.414719
vt 0.000000 0.352499
vt 0.000000 0.289104
vt 0.012146 0.226972
vt 0.035970 0.168488
vt 0.070558 0.115902
vt 0.114580 0.071234
vt 0.166345 0.036201
vt 0.223862 0.012148
vt 0.284923 -0.000000
vt 0.347179 0.000224
vt 0.408240 0.012812
vt 0.465757 0.037279
vt 0.517522 0.072686
vt 0.561544 0.117671
vt 0.619956 0.229161
vt 0.632102 0.291381
vt 0.632102 0.354775
vt 0.619956 0.416908
vt 0.596132 0.475391
vt 0.561544 0.527977
vt 0.517522 0.572645
vt 0.408240 0.631732
vt 0.347179 0.643880
vt 0.284923 0.643656
vt 0.223862 0.631068
vt 0.166345 0.606601
vt 0.114580 0.571194
vt 0.070558 0.526209
vt 0.992931 0.241701
vt 0.979064 0.275897
vt 0.958933 0.306701
vt 0.933311 0.332932
vt 0.903183 0.353580
vt 0.869706 0.367852
vt 0.834168 0.375201
vt 0.797933 0.375342
vt 0.762394 0.368271
vt 0.728918 0.354260
vt 0.698790 0.333847
vt 0.673168 0.307817
vt 0.653037 0.277169
vt 0.639171 0.243082
vt 0.632102 0.206866
vt 0.639171 0.133640
vt 0.653038 0.099445
vt 0.673169 0.068641
vt 0.698791 0.042410
vt 0.728919 0.021762
vt 0.762396 0.007490
vt 0.797934 0.000141
vt 0.869708 0.007071
vt 0.903184 0.021082
vt 0.933312 0.041495
vt 0.958934 0.067525
vt 0.979065 0.098173
vt 0.992931 0.132260
vt 1.000000 0.168476
vt 0.636159 0.452041
vt 0.644117 0.432415
vt 0.655671 0.414736
vt 0.670376 0.399682
vt 0.687667 0.387832
vt 0.706880 0.379640
vt 0.727276 0.375423
vt 0.748072 0.375342
vt 0.768468 0.379400
vt 0.787681 0.387441
vt 0.804972 0.399156
vt 0.819676 0.414096
vt 0.831230 0.431685
vt 0.839188 0.451248
vt 0.843245 0.472033
vt 0.839188 0.514059
vt 0.831229 0.533684
vt 0.819676 0.551363
vt 0.804971 0.566417
vt 0.787680 0.578268
vt 0.768467 0.586459
vt 0.748071 0.590676
vt 0.706879 0.586699
vt 0.687666 0.578658
vt 0.670375 0.566943
vt 0.655670 0.552003
vt 0.644117 0.534414
vt 0.636159 0.514851
vt 0.632102 0.494066
s 1
f 17/1/1 25/2/1 2/3/1
f 51/4/1 43/5/1 35/6/1
f 81/7/1 89/8/1 66/9/1
f 113/10/1 121/11/1 98/12/1
f 2/3/1 1/13/1 3/14/1
f 3/14/1 4/15/1 5/16/1
f 5/16/1 6/17/1 7/18/1
f 7/18/1 8/19/1 9/20/1
f 9/20/1 10/21/1 11/22/1
f 11/22/1 12/23/2 13/24/1
f 13/24/1 14/25/1 15/26/1
f 15/26/1 16/27/1 17/1/1
f 17/1/1 18/28/1 19/29/1
f 19/29/1 20/30/1 21/31/1
f 21/31/1 22/32/1 23/33/1
f 23/33/1 24/34/1 25/2/1
f 25/2/1 26/35/1 27/36/1
f 27/36/1 28/37/1 29/38/1
f 29/38/1 30/39/1 31/40/1
f 31/40/1 32/41/1 2/3/1
f 2/3/1 3/14/1 5/16/1
f 5/16/1 7/18/1 9/20/1
f 9/20/1 11/22/1 13/24/1
f 13/24/1 15/26/1 17/1/1
f 17/1/1 19/29/1 21/31/1
f 21/31/1 23/33/1 25/2/1
f 25/2/1 27/36/1 29/38/1
f 29/38/1 31/40/1 2/3/1
f 2/3/1 5/16/1 9/20/1
f 9/20/1 13/24/1 17/1/1
f 17/1/1 21/31/1 25/2/1
f 25/2/1 29/38/1 2/3/1
f 2/3/1 9/20/1 17/1/1
f 35/6/1 33/42/1 34/43/1
f 34/43/1 64/44/1 63/45/1
f 63/45/1 62/46/1 61/47/1
f 61/47/1 60/48/1 59/49/1
f 59/49/1 58/50/1 57/51/1
f 57/51/1 56/52/1 55/53/1
f 55/53/1 54/54/1 53/55/1
f 53/55/1 52/56/1 51/4/1
f 51/4/1 50/57/1 49/58/1
f 49/58/1 48/59/1 47/60/1
f 47/60/1 46/61/1 45/62/1
f 45/62/1 44/63/1 43/5/1
f 43/5/1 42/64/1 41/65/1
f 41/65/1 40/66/1 39/67/1
f 39/67/1 38/68/1 37/69/1
f 37/69/1 36/70/1 35/6/1
f 35/6/1 34/43/1 63/45/1
f 63/45/1 61/47/1 59/49/1
f 59/49/1 57/51/1 55/53/1
f 55/53/1 53/55/1 51/4/1
f 51/4/1 49/58/1 47/60/1
f 47/60/1 45/62/1 43/5/1
f 43/5/1 41/65/1 39/67/1
f 39/67/1 37/69/1 35/6/1
f 35/6/1 63/45/1 59/49/1
f 59/49/1 55/53/1 51/4/1
f 51/4/1 47/60/1 43/5/1
f 43/5/1 39/67/1 35/6/1
f 35/6/1 59/49/1 51/4/1
f 66/9/1 65/71/1 67/72/1
f 67/72/1 68/73/1 69/74/1
f 69/74/1 70/75/1 71/76/1
f 71/76/1 72/77/1 73/78/1
f 73/78/1 74/79/1 75/80/1
f 75/80/1 76/81/1 77/82/1
f 77/82/1 78/83/1 79/84/1
f 79/84/1 80/85/1 81/7/1
f 81/7/1 82/86/1 83/87/1
f 83/87/1 84/88/1 85/89/1
f 85/89/1 86/90/1 87/91/1
f 87/91/1 88/92/1 89/8/1
f 89/8/1 90/93/1 91/94/1
f 91/94/1 92/95/1 93/96/1
f 93/96/1 94/97/1 95/98/1
f 95/98/1 96/99/1 66/9/1
f 66/9/1 67/72/1 69/74/1
f 69/74/1 71/76/1 73/78/1
f 73/78/1 75/80/1 77/82/1
f 77/82/1 79/84/1 81/7/1
f 81/7/1 83/87/1 85/89/1
f 85/89/1 87/91/1 89/8/1
f 89/8/1 91/94/1 93/96/1
f 93/96/1 95/98/1 66/9/1
f 66/9/1 69/74/1 73/78/1
f 73/78/1 77/82/1 81/7/1
f 81/7/1 85/89/1 89/8/1
f 89/8/1 93/96/1 66/9/1
f 66/9/1 73/78/1 81/7/1
f 98/12/1 97/100/1 99/101/1
f 99/101/1 100/102/1 101/103/1
f 101/103/1 102/104/1 103/105/1
f 103/105/1 104/106/1 105/107/1
f 105/107/1 106/108/1 107/109/1
f 107/109/1 108/110/1 109/111/1
f 109/111/1 110/112/1 111/113/1
f 111/113/1 112/114/1 113/10/1
f 113/10/1 114/115/1 115/116/1
f 115/116/1 116/117/1 117/118/1
f 117/118/1 118/119/1 119/120/1
f 119/120/1 120/121/1 121/11/1
f 121/11/1 122/122/1 123/123/1
f 123/123/1 124/124/1 125/125/1
f 125/125/1 126/126/1 127/127/1
f 127/127/1 128/128/1 98/12/1
f 98/12/1 99/101/1 101/103/1
f 101/103/1 103/105/1 105/107/1
f 105/107/1 107/109/1 109/111/1
f 109/111/1 111/113/1 113/10/1
f 113/10/1 115/116/1 117/118/1
f 117/118/1 119/120/1 121/11/1
f 121/11/1 123/123/1 125/125/1
f 125/125/1 127/127/1 98/12/1
f 98/12/1 101/103/1 105/107/1
f 105/107/1 109/111/1 113/10/1
f 113/10/1 117/118/1 121/11/1
f 121/11/1 125/125/1 98/12/1
f 98/12/1 105/107/1 113/10/1
