# Blender 4.5.4 LTS
# www.blender.org
o ParedFA1
v 1.010323 3.016458 14.005236
v 1.010323 0.017653 14.005236
v 1.010323 3.016458 14.205236
v 1.010323 0.017653 14.205236
v -0.989677 3.016458 14.005236
v -0.989677 0.017653 14.005236
v -0.989677 3.016458 14.205236
v -0.989677 0.017653 14.205236
v -0.276745 2.441646 14.205236
v -0.389956 2.337726 14.205236
v 0.101598 2.505639 14.205236
v -0.026153 2.527247 14.205236
v -0.153903 2.505639 14.205236
v 0.337650 2.337726 14.205236
v 0.518317 2.027463 14.205236
v 0.436881 2.197874 14.205236
v 0.616093 1.622085 14.205236
v 0.628676 1.402696 14.205236
v 0.578830 1.833043 14.205236
v 0.224439 2.441646 14.205236
v -0.680981 1.402696 14.205236
v -0.668399 1.622085 14.205236
v -0.675419 0.017653 14.205236
v -0.631136 1.833043 14.205236
v -0.570623 2.027463 14.205236
v 0.634238 0.017653 14.205236
v -0.489187 2.197874 14.205236
v -0.689101 0.017653 14.005236
v 0.620556 0.017653 14.005236
v -0.694693 1.409996 14.005236
v -0.682111 1.629385 14.005236
v -0.644847 1.840343 14.005236
v -0.502898 2.205174 14.005236
v -0.584334 2.034763 14.005236
v -0.403668 2.345026 14.005236
v -0.290456 2.448946 14.005236
v -0.039864 2.534547 14.005236
v -0.167615 2.512939 14.005236
v 0.210728 2.448946 14.005236
v 0.423169 2.205174 14.005236
v 0.323939 2.345026 14.005236
v 0.087887 2.512939 14.005236
v 0.504606 2.034763 14.005236
v 0.602382 1.629385 14.005236
v 0.614965 1.409996 14.005236
v 0.565119 1.840343 14.005236
vn 0.5774 0.5774 -0.5773
vn 0.5774 -0.5773 -0.5774
vn 0.5774 0.5774 0.5773
vn 0.5774 -0.5774 0.5773
vn -0.5774 0.5774 -0.5773
vn -0.5774 -0.5774 -0.5773
vn -0.5774 0.5774 0.5773
vn -0.5773 -0.5774 0.5773
vn 0.4002 -0.5744 0.7141
vn 0.5311 -0.4694 0.7054
vn -0.2190 -0.6362 0.7398
vn -0.0050 -0.6784 0.7346
vn 0.2158 -0.6541 0.7250
vn -0.5059 -0.4417 0.7409
vn -0.6260 -0.2436 0.7408
vn -0.5804 -0.3384 0.7407
vn -0.6657 -0.0765 0.7423
vn -0.6763 -0.0203 0.7363
vn -0.6524 -0.1570 0.7414
vn -0.3889 -0.5473 0.7411
vn 0.7242 -0.0188 0.6893
vn 0.7142 -0.0825 0.6951
vn 0.5998 -0.5728 0.5587
vn 0.6987 -0.1691 0.6952
vn 0.6681 -0.2617 0.6966
vn -0.5543 -0.5820 0.5950
vn 0.6158 -0.3622 0.6997
vn 0.5568 -0.5800 -0.5946
vn -0.5973 -0.5749 -0.5592
vn 0.6747 -0.0184 -0.7379
vn 0.6624 -0.0779 -0.7451
vn 0.6458 -0.1574 -0.7471
vn 0.5675 -0.3335 -0.7528
vn 0.6161 -0.2419 -0.7496
vn 0.4909 -0.4318 -0.7566
vn 0.3743 -0.5306 -0.7605
vn 0.0047 -0.6515 -0.7587
vn 0.2092 -0.6125 -0.7623
vn -0.3858 -0.5579 -0.7347
vn -0.6033 -0.3576 -0.7129
vn -0.5164 -0.4599 -0.7224
vn -0.2064 -0.6305 -0.7483
vn -0.6585 -0.2603 -0.7061
vn -0.7110 -0.0841 -0.6981
vn -0.7243 -0.0227 -0.6891
vn -0.6923 -0.1697 -0.7013
vt 0.912490 0.511772
vt 0.953970 0.926575
vt 0.912490 0.926575
vt 0.414802 0.621955
vt 0.000000 0.621955
vt 0.199836 0.520492
vt 0.871039 0.000000
vt 0.912490 0.614921
vt 0.871039 0.614681
vt 0.083291 0.702793
vt 0.041817 0.624793
vt 0.083291 0.621955
vt 0.124765 0.687133
vt 0.083291 0.624793
vt 0.124765 0.621955
vt 0.871039 0.615106
vt 0.829604 0.000000
vt 0.871039 0.000294
vt 0.414802 0.000000
vt 0.829604 0.000000
vt 0.611794 0.099949
vt 0.957620 0.453269
vt 0.999705 0.416822
vt 0.999198 0.454314
vt 0.954772 0.484936
vt 0.913806 0.455081
vt 0.955353 0.453130
vt 0.958127 0.415777
vt 0.999976 0.375064
vt 0.954037 0.509820
vt 0.913225 0.486888
vt 0.958398 0.374019
vt 1.000000 0.330646
vt 0.041581 0.647434
vt 0.000316 0.624799
vt 0.041817 0.621955
vt 0.958423 0.329601
vt 0.999777 0.285273
vt 0.041581 0.700425
vt 0.000000 0.676774
vt 0.041501 0.673930
vt 0.000080 0.650278
vt 0.914249 0.286022
vt 0.955983 0.329437
vt 0.914437 0.331388
vt 0.041817 0.725901
vt 0.000080 0.703269
vt 0.958200 0.284228
vt 0.997549 0.000000
vt 0.955970 0.373856
vt 0.914423 0.375808
vt 0.956896 0.485055
vt 0.997561 0.510957
vt 0.955984 0.509912
vt 0.955796 0.284070
vt 0.912490 0.000454
vt 0.954046 0.000000
vt 0.955757 0.415622
vt 0.914210 0.417574
vt 0.998474 0.486099
vt 0.953970 0.511772
vt 0.335648 0.287259
vt 0.336802 0.000000
vt 0.414802 0.000000
vt 0.000000 -0.000000
vt 0.065177 -0.000000
vt 0.064024 0.287259
vt 0.333038 0.332761
vt 0.066633 0.332761
vt 0.074362 0.376514
vt 0.325310 0.376514
vt 0.312760 0.416837
vt 0.086912 0.416837
vt 0.103802 0.452180
vt 0.295870 0.452180
vt 0.275289 0.481185
vt 0.124383 0.481186
vt 0.147863 0.502739
vt 0.251809 0.502739
vt 0.226332 0.516011
vt 0.173340 0.516011
vt 0.912490 0.000240
vt 0.041817 0.702793
vt 0.083291 0.687133
vt 0.829604 0.614812
vt 0.475982 0.333182
vt 0.477142 0.621955
vt 0.414802 0.621955
vt 0.829604 0.621955
vt 0.748766 0.621955
vt 0.747607 0.333182
vt 0.478592 0.287680
vt 0.744997 0.287680
vt 0.737269 0.243927
vt 0.486321 0.243927
vt 0.498871 0.203604
vt 0.724718 0.203604
vt 0.707828 0.168261
vt 0.515761 0.168261
vt 0.536341 0.139256
vt 0.687248 0.139256
vt 0.663768 0.117703
vt 0.559821 0.117702
vt 0.585299 0.104430
vt 0.638290 0.104430
vt 0.912490 0.511772
vt 0.000316 0.728745
vt 0.955984 0.000451
s 1
f 5/1/5 3/2/3 1/3/1
f 3/4/3 7/5/7 12/6/12
f 7/7/7 6/8/6 8/9/8
f 2/10/2 26/11/26 29/12/29
f 8/13/8 28/14/28 23/15/23
f 1/16/1 4/17/4 2/18/2
f 5/19/5 1/20/1 37/21/37
f 27/22/27 34/23/34 33/24/33
f 14/25/14 40/26/40 16/27/16
f 25/28/25 32/29/32 34/23/34
f 20/30/20 41/31/41 14/25/14
f 24/32/24 31/33/31 32/29/32
f 11/34/11 39/35/39 20/36/20
f 22/37/22 30/38/30 31/33/31
f 13/39/13 37/40/37 12/41/12
f 12/41/12 42/42/42 11/34/11
f 45/43/45 17/44/17 44/45/44
f 9/46/9 38/47/38 13/39/13
f 21/48/21 28/49/28 30/38/30
f 44/45/44 19/50/19 46/51/46
f 10/52/10 36/53/36 9/54/9
f 18/55/18 29/56/29 26/57/26
f 46/51/46 15/58/15 43/59/43
f 27/22/27 35/60/35 10/52/10
f 43/59/43 16/27/16 40/26/40
f 5/1/5 7/61/7 3/2/3
f 18/62/18 26/63/26 4/64/4
f 7/5/7 8/65/8 23/66/23
f 7/5/7 23/66/23 21/67/21
f 18/62/18 4/64/4 3/4/3
f 17/68/17 18/62/18 3/4/3
f 7/5/7 21/67/21 22/69/22
f 7/5/7 22/69/22 24/70/24
f 19/71/19 17/68/17 3/4/3
f 15/72/15 19/71/19 3/4/3
f 7/5/7 24/70/24 25/73/25
f 7/5/7 25/73/25 27/74/27
f 16/75/16 15/72/15 3/4/3
f 14/76/14 16/75/16 3/4/3
f 7/5/7 27/74/27 10/77/10
f 7/5/7 10/77/10 9/78/9
f 20/79/20 14/76/14 3/4/3
f 11/80/11 20/79/20 3/4/3
f 7/5/7 9/78/9 13/81/13
f 12/6/12 11/80/11 3/4/3
f 7/5/7 13/81/13 12/6/12
f 7/7/7 5/82/5 6/8/6
f 2/10/2 4/83/4 26/11/26
f 8/13/8 6/84/6 28/14/28
f 1/16/1 3/85/3 4/17/4
f 30/86/30 28/87/28 6/88/6
f 1/20/1 2/89/2 29/90/29
f 1/20/1 29/90/29 45/91/45
f 30/86/30 6/88/6 5/19/5
f 31/92/31 30/86/30 5/19/5
f 1/20/1 45/91/45 44/93/44
f 1/20/1 44/93/44 46/94/46
f 32/95/32 31/92/31 5/19/5
f 34/96/34 32/95/32 5/19/5
f 1/20/1 46/94/46 43/97/43
f 1/20/1 43/97/43 40/98/40
f 33/99/33 34/96/34 5/19/5
f 35/100/35 33/99/33 5/19/5
f 1/20/1 40/98/40 41/101/41
f 1/20/1 41/101/41 39/102/39
f 36/103/36 35/100/35 5/19/5
f 38/104/38 36/103/36 5/19/5
f 1/20/1 39/102/39 42/105/42
f 37/21/37 38/104/38 5/19/5
f 1/20/1 42/105/42 37/21/37
f 27/22/27 25/28/25 34/23/34
f 14/25/14 41/31/41 40/26/40
f 25/28/25 24/32/24 32/29/32
f 20/30/20 39/106/39 41/31/41
f 24/32/24 22/37/22 31/33/31
f 11/34/11 42/42/42 39/35/39
f 22/37/22 21/48/21 30/38/30
f 13/39/13 38/47/38 37/40/37
f 12/41/12 37/40/37 42/42/42
f 45/43/45 18/55/18 17/44/17
f 9/46/9 36/107/36 38/47/38
f 21/48/21 23/108/23 28/49/28
f 44/45/44 17/44/17 19/50/19
f 10/52/10 35/60/35 36/53/36
f 18/55/18 45/43/45 29/56/29
f 46/51/46 19/50/19 15/58/15
f 27/22/27 33/24/33 35/60/35
f 43/59/43 15/58/15 16/27/16
