# Blender 4.5.4 LTS
# www.blender.org
o ParedFA5
v -0.985635 2.265685 14.005236
v -0.985635 0.016581 14.005236
v -0.985635 2.265685 14.205236
v -0.985635 0.016581 14.205236
v -2.485635 2.265685 14.005236
v -2.485635 0.016581 14.005236
v -2.485635 2.265685 14.205236
v -2.485635 0.016581 14.205236
v -1.950936 1.834576 14.205236
v -2.035844 1.756636 14.205236
v -1.667179 1.882571 14.205236
v -1.762992 1.898777 14.205236
v -1.858805 1.882571 14.205236
v -1.490139 1.756636 14.205236
v -1.354639 1.523939 14.205236
v -1.415716 1.651747 14.205236
v -1.281307 1.219905 14.205236
v -1.271870 1.055363 14.205236
v -1.309255 1.378124 14.205236
v -1.575048 1.834576 14.205236
v -2.254113 1.055363 14.205236
v -2.244677 1.219905 14.205236
v -2.249942 0.016581 14.205236
v -2.216729 1.378124 14.205236
v -2.171344 1.523939 14.205236
v -1.267699 0.016581 14.205236
v -2.110267 1.651747 14.205236
v -2.260203 0.016581 14.005236
v -1.277960 0.016581 14.005236
v -2.264397 1.060838 14.005236
v -2.254960 1.225380 14.005236
v -2.227012 1.383599 14.005236
v -2.120550 1.657222 14.005236
v -2.181628 1.529414 14.005236
v -2.046128 1.762111 14.005236
v -1.961219 1.840051 14.005236
v -1.773275 1.904252 14.005236
v -1.869088 1.888046 14.005236
v -1.585331 1.840051 14.005236
v -1.426000 1.657222 14.005236
v -1.500423 1.762111 14.005236
v -1.677462 1.888046 14.005236
v -1.364923 1.529414 14.005236
v -1.291590 1.225380 14.005236
v -1.282154 1.060838 14.005236
v -1.319538 1.383599 14.005236
vn 0.5774 0.5774 -0.5773
vn 0.5773 -0.5774 -0.5773
vn 0.5774 0.5774 0.5773
vn 0.5774 -0.5774 0.5773
vn -0.5774 0.5774 -0.5773
vn -0.5774 -0.5774 -0.5773
vn -0.5774 0.5774 0.5773
vn -0.5773 -0.5774 0.5773
vn 0.3971 -0.5690 0.7201
vn 0.5262 -0.4648 0.7121
vn -0.2174 -0.6356 0.7408
vn -0.0037 -0.6752 0.7376
vn 0.2150 -0.6490 0.7297
vn -0.5073 -0.4440 0.7386
vn -0.6301 -0.2457 0.7366
vn -0.5834 -0.3408 0.7372
vn -0.6715 -0.0775 0.7369
vn -0.6825 -0.0206 0.7306
vn -0.6576 -0.1586 0.7365
vn -0.3886 -0.5487 0.7402
vn 0.7182 -0.0188 0.6956
vn 0.7079 -0.0820 0.7015
vn 0.5946 -0.5736 0.5634
vn 0.6923 -0.1677 0.7019
vn 0.6618 -0.2593 0.7034
vn -0.5598 -0.5811 0.5907
vn 0.6100 -0.3587 0.7066
vn 0.5623 -0.5791 -0.5904
vn -0.5920 -0.5758 -0.5639
vn 0.6810 -0.0185 -0.7320
vn 0.6691 -0.0785 -0.7390
vn 0.6526 -0.1589 -0.7408
vn 0.5737 -0.3372 -0.7464
vn 0.6228 -0.2445 -0.7432
vn 0.4961 -0.4366 -0.7505
vn 0.3776 -0.5362 -0.7549
vn 0.0036 -0.6549 -0.7557
vn 0.2101 -0.6178 -0.7578
vn -0.3863 -0.5567 -0.7355
vn -0.6005 -0.3552 -0.7164
vn -0.5152 -0.4576 -0.7247
vn -0.2080 -0.6313 -0.7472
vn -0.6546 -0.2583 -0.7105
vn -0.7055 -0.0832 -0.7038
vn -0.7185 -0.0224 -0.6952
vn -0.6875 -0.1681 -0.7065
vt 0.805435 0.597282
vt 0.859131 1.000000
vt 0.805435 1.000000
vt 0.805435 0.603836
vt 0.402718 0.603836
vt 0.596732 0.505329
vt 0.859072 -0.000000
vt 0.912729 0.597084
vt 0.859072 0.596773
vt 0.054021 0.603836
vt 0.107709 0.679564
vt 0.054021 0.682319
vt 0.107709 0.603836
vt 0.161396 0.664360
vt 0.107709 0.667115
vt 0.859072 0.597282
vt 0.805435 0.000000
vt 0.859072 0.000381
vt 0.000000 -0.000000
vt 0.402718 -0.000000
vt 0.191253 0.097037
vt 0.914319 0.936942
vt 0.968587 0.901549
vt 0.968094 0.937949
vt 0.913906 0.026061
vt 0.967093 0.055039
vt 0.913342 0.056942
vt 0.914811 0.900541
vt 0.968850 0.861008
vt 0.914619 0.001902
vt 0.967657 0.024159
vt 0.915074 0.860000
vt 0.968873 0.817883
vt 0.000229 0.682778
vt 0.053714 0.704754
vt 0.000000 0.707515
vt 0.915098 0.816876
vt 0.968657 0.773833
vt 0.000229 0.631331
vt 0.054021 0.654293
vt 0.000307 0.657054
vt 0.053943 0.680017
vt 0.966662 0.219174
vt 0.912729 0.177031
vt 0.966480 0.175129
vt 0.000000 0.606597
vt 0.053943 0.628570
vt 0.914881 0.772825
vt 0.966494 0.496870
vt 0.912742 0.133905
vt 0.966493 0.132003
vt 0.913616 0.967801
vt 0.966505 0.992942
vt 0.912729 0.991934
vt 0.912911 0.221076
vt 0.968370 0.496422
vt 0.914610 0.496870
vt 0.912949 0.093356
vt 0.966700 0.091454
vt 0.967391 0.968808
vt 0.859131 0.597282
vt 0.728587 0.278890
vt 0.729708 -0.000000
vt 0.805435 -0.000000
vt 0.402718 0.000000
vt 0.465996 0.000000
vt 0.464876 0.278890
vt 0.726054 0.323067
vt 0.467410 0.323067
vt 0.474913 0.365545
vt 0.718550 0.365545
vt 0.706366 0.404693
vt 0.487098 0.404693
vt 0.503496 0.439006
vt 0.689968 0.439006
vt 0.669987 0.467167
vt 0.523477 0.467167
vt 0.546273 0.488092
vt 0.647191 0.488092
vt 0.622456 0.500978
vt 0.571008 0.500978
vt 0.912729 0.000311
vt 0.107708 0.603836
vt 0.161396 0.603836
vt 0.805435 0.596901
vt 0.059398 0.323475
vt 0.060524 0.603836
vt 0.000000 0.603836
vt 0.402718 0.603836
vt 0.324235 0.603836
vt 0.323109 0.323475
vt 0.061931 0.279299
vt 0.320575 0.279299
vt 0.313072 0.236821
vt 0.069435 0.236821
vt 0.081619 0.197673
vt 0.300887 0.197673
vt 0.284489 0.163359
vt 0.098017 0.163359
vt 0.117998 0.135199
vt 0.264508 0.135198
vt 0.241712 0.114273
vt 0.140794 0.114273
vt 0.165530 0.101388
vt 0.216977 0.101388
vt 0.968370 0.000000
vt 0.053714 0.603836
vt 0.912729 0.497315
s 1
f 5/1/5 3/2/3 1/3/1
f 3/4/3 7/5/7 12/6/12
f 7/7/7 6/8/6 8/9/8
f 2/10/2 26/11/26 29/12/29
f 8/13/8 28/14/28 23/15/23
f 1/16/1 4/17/4 2/18/2
f 5/19/5 1/20/1 37/21/37
f 27/22/27 34/23/34 33/24/33
f 14/25/14 40/26/40 16/27/16
f 25/28/25 32/29/32 34/23/34
f 20/30/20 41/31/41 14/25/14
f 24/32/24 31/33/31 32/29/32
f 11/34/11 39/35/39 20/36/20
f 22/37/22 30/38/30 31/33/31
f 13/39/13 37/40/37 12/41/12
f 12/41/12 42/42/42 11/34/11
f 45/43/45 17/44/17 44/45/44
f 9/46/9 38/47/38 13/39/13
f 21/48/21 28/49/28 30/38/30
f 44/45/44 19/50/19 46/51/46
f 10/52/10 36/53/36 9/54/9
f 18/55/18 29/56/29 26/57/26
f 46/51/46 15/58/15 43/59/43
f 27/22/27 35/60/35 10/52/10
f 43/59/43 16/27/16 40/26/40
f 5/1/5 7/61/7 3/2/3
f 18/62/18 26/63/26 4/64/4
f 7/5/7 8/65/8 23/66/23
f 7/5/7 23/66/23 21/67/21
f 18/62/18 4/64/4 3/4/3
f 17/68/17 18/62/18 3/4/3
f 7/5/7 21/67/21 22/69/22
f 7/5/7 22/69/22 24/70/24
f 19/71/19 17/68/17 3/4/3
f 15/72/15 19/71/19 3/4/3
f 7/5/7 24/70/24 25/73/25
f 7/5/7 25/73/25 27/74/27
f 16/75/16 15/72/15 3/4/3
f 14/76/14 16/75/16 3/4/3
f 7/5/7 27/74/27 10/77/10
f 7/5/7 10/77/10 9/78/9
f 20/79/20 14/76/14 3/4/3
f 11/80/11 20/79/20 3/4/3
f 7/5/7 9/78/9 13/81/13
f 12/6/12 11/80/11 3/4/3
f 7/5/7 13/81/13 12/6/12
f 7/7/7 5/82/5 6/8/6
f 2/10/2 4/83/4 26/11/26
f 8/13/8 6/84/6 28/14/28
f 1/16/1 3/85/3 4/17/4
f 30/86/30 28/87/28 6/88/6
f 1/20/1 2/89/2 29/90/29
f 1/20/1 29/90/29 45/91/45
f 30/86/30 6/88/6 5/19/5
f 31/92/31 30/86/30 5/19/5
f 1/20/1 45/91/45 44/93/44
f 1/20/1 44/93/44 46/94/46
f 32/95/32 31/92/31 5/19/5
f 34/96/34 32/95/32 5/19/5
f 1/20/1 46/94/46 43/97/43
f 1/20/1 43/97/43 40/98/40
f 33/99/33 34/96/34 5/19/5
f 35/100/35 33/99/33 5/19/5
f 1/20/1 40/98/40 41/101/41
f 1/20/1 41/101/41 39/102/39
f 36/103/36 35/100/35 5/19/5
f 38/104/38 36/103/36 5/19/5
f 1/20/1 39/102/39 42/105/42
f 37/21/37 38/104/38 5/19/5
f 1/20/1 42/105/42 37/21/37
f 27/22/27 25/28/25 34/23/34
f 14/25/14 41/31/41 40/26/40
f 25/28/25 24/32/24 32/29/32
f 20/30/20 39/106/39 41/31/41
f 24/32/24 22/37/22 31/33/31
f 11/34/11 42/42/42 39/35/39
f 22/37/22 21/48/21 30/38/30
f 13/39/13 38/47/38 37/40/37
f 12/41/12 37/40/37 42/42/42
f 45/43/45 18/55/18 17/44/17
f 9/46/9 36/107/36 38/47/38
f 21/48/21 23/108/23 28/49/28
f 44/45/44 17/44/17 19/50/19
f 10/52/10 35/60/35 36/53/36
f 18/55/18 45/43/45 29/56/29
f 46/51/46 19/50/19 15/58/15
f 27/22/27 33/24/33 35/60/35
f 43/59/43 15/58/15 16/27/16
