# Blender 4.5.4 LTS
# www.blender.org
o ParedFA3
v -2.482959 2.265685 14.005236
v -2.482959 0.016581 14.005236
v -2.482959 2.265685 14.205236
v -2.482959 0.016581 14.205236
v -3.982959 2.265685 14.005236
v -3.982959 0.016581 14.005236
v -3.982959 2.265685 14.205236
v -3.982959 0.016581 14.205236
v -3.448259 1.834576 14.205236
v -3.533168 1.756636 14.205236
v -3.164502 1.882571 14.205236
v -3.260315 1.898777 14.205236
v -3.356128 1.882571 14.205236
v -2.987463 1.756636 14.205236
v -2.851963 1.523939 14.205236
v -2.913040 1.651747 14.205236
v -2.778630 1.219905 14.205236
v -2.769194 1.055363 14.205236
v -2.806578 1.378124 14.205236
v -3.072371 1.834576 14.205236
v -3.751437 1.055363 14.205236
v -3.742000 1.219905 14.205236
v -3.747265 0.016581 14.205236
v -3.714052 1.378124 14.205236
v -3.668668 1.523939 14.205236
v -2.765022 0.016581 14.205236
v -3.607590 1.651747 14.205236
v -3.757526 0.016581 14.005236
v -2.775283 0.016581 14.005236
v -3.761720 1.060838 14.005236
v -3.752283 1.225380 14.005236
v -3.724336 1.383599 14.005236
v -3.617874 1.657222 14.005236
v -3.678951 1.529414 14.005236
v -3.543451 1.762111 14.005236
v -3.458543 1.840051 14.005236
v -3.270598 1.904252 14.005236
v -3.366412 1.888046 14.005236
v -3.082654 1.840051 14.005236
v -2.923323 1.657222 14.005236
v -2.997746 1.762111 14.005236
v -3.174785 1.888046 14.005236
v -2.862246 1.529414 14.005236
v -2.788914 1.225380 14.005236
v -2.779477 1.060838 14.005236
v -2.816861 1.383599 14.005236
vn 0.5774 0.5774 -0.5773
vn 0.5773 -0.5774 -0.5773
vn 0.5774 0.5774 0.5773
vn 0.5774 -0.5774 0.5773
vn -0.5774 0.5774 -0.5773
vn -0.5774 -0.5774 -0.5773
vn -0.5774 0.5774 0.5773
vn -0.5773 -0.5774 0.5773
vn 0.3971 -0.5690 0.7201
vn 0.5262 -0.4648 0.7121
vn -0.2174 -0.6356 0.7408
vn -0.0037 -0.6752 0.7376
vn 0.2150 -0.6490 0.7297
vn -0.5073 -0.4440 0.7386
vn -0.6301 -0.2457 0.7366
vn -0.5834 -0.3408 0.7372
vn -0.6715 -0.0774 0.7369
vn -0.6825 -0.0206 0.7306
vn -0.6576 -0.1586 0.7365
vn -0.3886 -0.5487 0.7402
vn 0.7182 -0.0188 0.6956
vn 0.7079 -0.0820 0.7015
vn 0.5946 -0.5736 0.5634
vn 0.6923 -0.1677 0.7019
vn 0.6618 -0.2593 0.7034
vn -0.5598 -0.5811 0.5907
vn 0.6100 -0.3587 0.7066
vn 0.5623 -0.5791 -0.5904
vn -0.5920 -0.5758 -0.5639
vn 0.6810 -0.0185 -0.7320
vn 0.6691 -0.0785 -0.7390
vn 0.6526 -0.1589 -0.7408
vn 0.5737 -0.3372 -0.7464
vn 0.6228 -0.2445 -0.7432
vn 0.4961 -0.4366 -0.7505
vn 0.3776 -0.5362 -0.7549
vn 0.0036 -0.6549 -0.7557
vn 0.2101 -0.6178 -0.7578
vn -0.3863 -0.5567 -0.7355
vn -0.6005 -0.3552 -0.7164
vn -0.5152 -0.4576 -0.7247
vn -0.2080 -0.6313 -0.7472
vn -0.6546 -0.2583 -0.7105
vn -0.7055 -0.0831 -0.7038
vn -0.7185 -0.0224 -0.6952
vn -0.6875 -0.1681 -0.7065
vt 0.859132 1.000000
vt 0.805436 0.597282
vt 0.859132 0.597282
vt 0.000000 0.000000
vt 0.402718 0.000000
vt 0.208704 0.098507
vt 0.859073 0.000000
vt 0.912730 0.597084
vt 0.859073 0.596773
vt 0.107708 0.682319
vt 0.054021 0.606591
vt 0.107708 0.603836
vt 0.161396 0.667115
vt 0.107708 0.606591
vt 0.161396 0.603836
vt 0.805436 -0.000000
vt 0.859073 0.597282
vt 0.805436 0.596901
vt 0.402718 0.000000
vt 0.805436 0.000000
vt 0.593971 0.097037
vt 0.914319 0.936941
vt 0.968587 0.901549
vt 0.968094 0.937949
vt 0.967194 0.470809
vt 0.914007 0.441831
vt 0.967759 0.439929
vt 0.914811 0.900541
vt 0.968850 0.861008
vt 0.966481 0.494968
vt 0.913443 0.472711
vt 0.915074 0.860000
vt 0.968874 0.817883
vt 0.000229 0.682778
vt 0.053714 0.704754
vt 0.000000 0.707515
vt 0.915098 0.816875
vt 0.968657 0.773832
vt 0.000229 0.631331
vt 0.054021 0.654293
vt 0.000307 0.657054
vt 0.053943 0.680017
vt 0.914438 0.277696
vt 0.968371 0.319839
vt 0.914620 0.321741
vt 0.000000 0.606597
vt 0.053943 0.628570
vt 0.914881 0.772825
vt 0.966494 0.496870
vt 0.968358 0.362965
vt 0.914607 0.364867
vt 0.913616 0.967801
vt 0.966505 0.992942
vt 0.912730 0.991934
vt 0.968189 0.275794
vt 0.912730 0.000448
vt 0.966490 0.000000
vt 0.968151 0.403514
vt 0.914401 0.405416
vt 0.967391 0.968808
vt 0.805436 1.000000
vt 0.076848 0.324945
vt 0.075728 0.603836
vt -0.000000 0.603836
vt 0.402718 0.603836
vt 0.339439 0.603836
vt 0.340559 0.324945
vt 0.079382 0.280770
vt 0.338026 0.280770
vt 0.330522 0.238291
vt 0.086885 0.238291
vt 0.099070 0.199143
vt 0.318337 0.199143
vt 0.301940 0.164829
vt 0.115468 0.164829
vt 0.135448 0.136669
vt 0.281959 0.136669
vt 0.259162 0.115743
vt 0.158245 0.115744
vt 0.182980 0.102858
vt 0.234427 0.102858
vt 0.912730 0.000311
vt 0.054021 0.682319
vt 0.107708 0.667115
vt 0.859073 0.000381
vt 0.462116 0.323475
vt 0.463242 0.603836
vt 0.402718 0.603836
vt 0.805436 0.603836
vt 0.726953 0.603836
vt 0.725827 0.323475
vt 0.464649 0.279299
vt 0.723293 0.279299
vt 0.715790 0.236821
vt 0.472153 0.236821
vt 0.484338 0.197673
vt 0.703605 0.197673
vt 0.687207 0.163359
vt 0.500736 0.163359
vt 0.520716 0.135199
vt 0.667226 0.135199
vt 0.644430 0.114273
vt 0.543512 0.114274
vt 0.568248 0.101388
vt 0.619695 0.101388
vt 0.912730 0.496870
vt 0.053714 0.603836
vt 0.912730 0.497315
s 1
f 5/1/5 3/2/3 1/3/1
f 3/4/3 7/5/7 12/6/12
f 7/7/7 6/8/6 8/9/8
f 2/10/2 26/11/26 29/12/29
f 8/13/8 28/14/28 23/15/23
f 1/16/1 4/17/4 2/18/2
f 5/19/5 1/20/1 37/21/37
f 27/22/27 34/23/34 33/24/33
f 14/25/14 40/26/40 16/27/16
f 25/28/25 32/29/32 34/23/34
f 20/30/20 41/31/41 14/25/14
f 24/32/24 31/33/31 32/29/32
f 11/34/11 39/35/39 20/36/20
f 22/37/22 30/38/30 31/33/31
f 13/39/13 37/40/37 12/41/12
f 12/41/12 42/42/42 11/34/11
f 45/43/45 17/44/17 44/45/44
f 9/46/9 38/47/38 13/39/13
f 21/48/21 28/49/28 30/38/30
f 44/45/44 19/50/19 46/51/46
f 10/52/10 36/53/36 9/54/9
f 18/55/18 29/56/29 26/57/26
f 46/51/46 15/58/15 43/59/43
f 27/22/27 35/60/35 10/52/10
f 43/59/43 16/27/16 40/26/40
f 5/1/5 7/61/7 3/2/3
f 18/62/18 26/63/26 4/64/4
f 7/5/7 8/65/8 23/66/23
f 7/5/7 23/66/23 21/67/21
f 18/62/18 4/64/4 3/4/3
f 17/68/17 18/62/18 3/4/3
f 7/5/7 21/67/21 22/69/22
f 7/5/7 22/69/22 24/70/24
f 19/71/19 17/68/17 3/4/3
f 15/72/15 19/71/19 3/4/3
f 7/5/7 24/70/24 25/73/25
f 7/5/7 25/73/25 27/74/27
f 16/75/16 15/72/15 3/4/3
f 14/76/14 16/75/16 3/4/3
f 7/5/7 27/74/27 10/77/10
f 7/5/7 10/77/10 9/78/9
f 20/79/20 14/76/14 3/4/3
f 11/80/11 20/79/20 3/4/3
f 7/5/7 9/78/9 13/81/13
f 12/6/12 11/80/11 3/4/3
f 7/5/7 13/81/13 12/6/12
f 7/7/7 5/82/5 6/8/6
f 2/10/2 4/83/4 26/11/26
f 8/13/8 6/84/6 28/14/28
f 1/16/1 3/85/3 4/17/4
f 30/86/30 28/87/28 6/88/6
f 1/20/1 2/89/2 29/90/29
f 1/20/1 29/90/29 45/91/45
f 30/86/30 6/88/6 5/19/5
f 31/92/31 30/86/30 5/19/5
f 1/20/1 45/91/45 44/93/44
f 1/20/1 44/93/44 46/94/46
f 32/95/32 31/92/31 5/19/5
f 34/96/34 32/95/32 5/19/5
f 1/20/1 46/94/46 43/97/43
f 1/20/1 43/97/43 40/98/40
f 33/99/33 34/96/34 5/19/5
f 35/100/35 33/99/33 5/19/5
f 1/20/1 40/98/40 41/101/41
f 1/20/1 41/101/41 39/102/39
f 36/103/36 35/100/35 5/19/5
f 38/104/38 36/103/36 5/19/5
f 1/20/1 39/102/39 42/105/42
f 37/21/37 38/104/38 5/19/5
f 1/20/1 42/105/42 37/21/37
f 27/22/27 25/28/25 34/23/34
f 14/25/14 41/31/41 40/26/40
f 25/28/25 24/32/24 32/29/32
f 20/30/20 39/106/39 41/31/41
f 24/32/24 22/37/22 31/33/31
f 11/34/11 42/42/42 39/35/39
f 22/37/22 21/48/21 30/38/30
f 13/39/13 38/47/38 37/40/37
f 12/41/12 37/40/37 42/42/42
f 45/43/45 18/55/18 17/44/17
f 9/46/9 36/107/36 38/47/38
f 21/48/21 23/108/23 28/49/28
f 44/45/44 17/44/17 19/50/19
f 10/52/10 35/60/35 36/53/36
f 18/55/18 45/43/45 29/56/29
f 46/51/46 19/50/19 15/58/15
f 27/22/27 33/24/33 35/60/35
f 43/59/43 15/58/15 16/27/16
