# Blender 4.5.4 LTS
# www.blender.org
o ParedLI
v -9.947133 0.011447 12.311517
v -9.947133 3.011447 12.311517
v -9.947133 0.011447 -17.688484
v -9.947133 3.011447 -17.688484
v -9.747132 0.011447 12.311517
v -9.747132 3.011447 12.311517
v -9.747132 0.011447 -17.688484
v -9.747132 3.011447 -17.688484
vn -0.5773 -0.5773 0.5774
vn -0.5774 0.5773 0.5773
vn -0.5774 -0.5773 -0.5773
vn -0.5773 0.5773 -0.5774
vn 0.5774 -0.5773 0.5773
vn 0.5773 0.5773 0.5774
vn 0.5773 -0.5773 -0.5774
vn 0.5774 0.5773 -0.5773
vt 0.100000 1.000000
vt 0.200000 0.000000
vt 0.200000 1.000000
vt 0.213334 0.000000
vt 0.220000 0.100000
vt 0.213334 0.100000
vt -0.000000 1.000000
vt 0.100000 -0.000000
vt 0.100000 1.000000
vt 0.220000 0.200000
vt 0.213334 0.200000
vt 0.200000 1.000000
vt 0.206667 -0.000000
vt 0.206667 1.000000
vt 0.213334 -0.000000
vt 0.213334 1.000000
vt 0.100000 0.000000
vt 0.220000 0.000000
vt 0.000000 -0.000000
vt 0.200000 -0.000000
s 1
f 2/1/2 3/2/3 1/3/1
f 4/4/4 7/5/7 3/6/3
f 8/7/8 5/8/5 7/9/7
f 6/6/6 1/10/1 5/11/5
f 7/12/7 1/13/1 3/14/3
f 4/14/4 6/15/6 8/16/8
f 2/1/2 4/17/4 3/2/3
f 4/4/4 8/18/8 7/5/7
f 8/7/8 6/19/6 5/8/5
f 6/6/6 2/5/2 1/10/1
f 7/12/7 5/20/5 1/13/1
f 4/14/4 2/13/2 6/15/6
