# Blender 4.5.4 LTS
# www.blender.org
o PlataformaZ
v -4.000000 4.478904 14.039627
v -4.000000 4.728904 14.039627
v -4.000000 4.478904 12.039627
v -4.000000 4.728904 12.039627
v 4.000000 4.478904 14.039627
v 4.000000 4.728904 14.039627
v 4.000000 4.478904 12.039627
v 4.000000 4.728904 12.039627
vn -0.5774 -0.5773 0.5774
vn -0.5774 0.5773 0.5773
vn -0.5774 -0.5773 -0.5773
vn -0.5774 0.5773 -0.5774
vn 0.5774 -0.5773 0.5773
vn 0.5774 0.5773 0.5774
vn 0.5774 -0.5773 -0.5774
vn 0.5774 0.5773 -0.5773
vt 0.562500 0.500000
vt 0.593750 0.250000
vt 0.593750 0.500000
vt 0.500000 1.000000
vt 0.531250 0.000000
vt 0.531250 1.000000
vt 0.562500 0.250000
vt 0.593750 0.000000
vt 0.593750 0.250000
vt 0.531250 1.000000
vt 0.562500 0.000000
vt 0.562500 1.000000
vt 0.250000 1.000000
vt 0.000000 0.000000
vt 0.250000 0.000000
vt 0.250000 -0.000000
vt 0.500000 0.000000
vt 0.562500 0.250000
vt 0.500000 0.000000
vt 0.562500 -0.000000
vt 0.531250 0.000000
vt 0.000000 1.000000
vt 0.250000 1.000000
s 1
f 2/1/2 3/2/3 1/3/1
f 4/4/4 7/5/7 3/6/3
f 8/7/8 5/8/5 7/9/7
f 6/10/6 1/11/1 5/12/5
f 7/13/7 1/14/1 3/15/3
f 4/4/4 6/16/6 8/17/8
f 2/1/2 4/18/4 3/2/3
f 4/4/4 8/19/8 7/5/7
f 8/7/8 6/20/6 5/8/5
f 6/10/6 2/21/2 1/11/1
f 7/13/7 5/22/5 1/14/1
f 4/4/4 2/23/2 6/16/6
