# Blender 4.5.4 LTS
# www.blender.org
o Trabes
v -4.177341 0.011421 14.342076
v -4.066091 3.011421 14.286450
v -4.177341 0.011421 14.142076
v -4.066091 3.011421 14.197701
v -3.777342 0.011421 14.342076
v -3.888592 3.011421 14.286450
v -3.777342 0.011421 14.142076
v -3.888592 3.011421 14.197701
v -1.187325 0.007010 14.342076
v -1.076075 3.007010 14.286450
v -1.187325 0.007010 14.142076
v -1.076075 3.007010 14.197701
v -0.787325 0.007010 14.342076
v -0.898576 3.007010 14.286450
v -0.787325 0.007010 14.142076
v -0.898576 3.007010 14.197701
v -2.726963 0.007010 14.342076
v -2.615712 3.007010 14.286450
v -2.726963 0.007010 14.142076
v -2.615712 3.007010 14.197701
v -2.326963 0.007010 14.342076
v -2.438213 3.007010 14.286450
v -2.326963 0.007010 14.142076
v -2.438213 3.007010 14.197701
v 0.730933 0.007010 14.342076
v 0.842184 3.007010 14.286450
v 0.730933 0.007010 14.142076
v 0.842184 3.007010 14.197701
v 1.130933 0.007010 14.342076
v 1.019682 3.007010 14.286450
v 1.130933 0.007010 14.142076
v 1.019682 3.007010 14.197701
v 2.279620 0.007010 14.342076
v 2.390870 3.007010 14.286450
v 2.279620 0.007010 14.142076
v 2.390870 3.007010 14.197701
v 2.679619 0.007010 14.342076
v 2.568368 3.007010 14.286450
v 2.679619 0.007010 14.142076
v 2.568368 3.007010 14.197701
v 3.766709 0.007010 14.342076
v 3.877960 3.007010 14.286450
v 3.766709 0.007010 14.142076
v 3.877960 3.007010 14.197701
v 4.166709 0.007010 14.342076
v 4.055458 3.007010 14.286450
v 4.166709 0.007010 14.142076
v 4.055458 3.007010 14.197701
vn -0.5879 -0.5627 0.5812
vn -0.5665 0.5919 0.5734
vn -0.5879 -0.5627 -0.5812
vn -0.5665 0.5919 -0.5734
vn 0.5879 -0.5627 0.5812
vn 0.5665 0.5919 0.5734
vn 0.5879 -0.5627 -0.5812
vn 0.5665 0.5919 -0.5734
vt 0.042586 0.499871
vt 0.066638 1.000000
vt 0.033319 1.000000
vt 0.418362 -0.000000
vt 0.466466 0.499871
vt 0.399828 0.499871
vt 0.075905 0.499871
vt 0.099957 1.000000
vt 0.085172 0.000000
vt 0.133276 0.499871
vt 0.066638 0.499871
vt 0.433147 0.566509
vt 0.433147 0.499871
vt 0.233233 0.499871
vt 0.248018 0.529442
vt 0.233233 0.529442
vt 0.109224 0.499871
vt 0.133276 1.000000
vt 0.099957 1.000000
vt 0.048104 0.499871
vt 0.000000 0.000000
vt 0.066638 -0.000000
vt 0.209181 0.499871
vt 0.233233 1.000000
vt 0.199914 1.000000
vt 0.684914 0.000000
vt 0.733018 0.499871
vt 0.666380 0.499871
vt 0.433147 0.499871
vt 0.466467 0.566509
vt 0.433147 0.566509
vt 0.014785 0.529442
vt 0.000000 0.499871
vt 0.014785 0.499871
vt 0.975519 -0.000000
vt 0.999571 0.500129
vt 0.966252 0.500129
vt 0.485000 0.000000
vt 0.533104 0.499871
vt 0.466466 0.499871
vt 0.875562 -0.000000
vt 0.899614 0.500129
vt 0.866295 0.500129
vt 0.551638 0.000000
vt 0.599742 0.499871
vt 0.533104 0.499871
vt 0.533104 0.499871
vt 0.566423 0.566509
vt 0.533104 0.566509
vt 0.018534 0.499871
vt 0.033319 0.529442
vt 0.018534 0.529442
vt 0.942200 -0.000000
vt 0.966252 0.500129
vt 0.932933 0.500129
vt 0.181380 0.499871
vt 0.133276 0.000000
vt 0.199914 0.000000
vt 0.808923 -0.000000
vt 0.832975 0.500129
vt 0.799656 0.500129
vt 0.218448 0.000000
vt 0.266552 0.499871
vt 0.199914 0.499871
vt 0.466467 0.499871
vt 0.499786 0.566509
vt 0.466467 0.566509
vt 0.166595 0.499871
vt 0.181381 0.529442
vt 0.166595 0.529442
vt 0.908881 -0.000000
vt 0.932933 0.500129
vt 0.899614 0.500129
vt 0.618276 0.000000
vt 0.666380 0.499871
vt 0.857028 0.500129
vt 0.832975 0.000000
vt 0.866295 -0.000000
vt 0.751552 -0.000000
vt 0.799656 0.499871
vt 0.733018 0.499871
vt 0.566423 0.499871
vt 0.599742 0.566509
vt 0.185129 0.499871
vt 0.199914 0.529442
vt 0.185129 0.529442
vt 0.142543 0.499871
vt 0.166595 1.000000
vt 0.133276 1.000000
vt 0.285086 -0.000000
vt 0.333190 0.499871
vt 0.357242 1.000000
vt 0.333190 0.499871
vt 0.366509 0.499871
vt 0.351724 -0.000000
vt 0.266552 0.499871
vt 0.299871 0.566509
vt 0.266552 0.566509
vt 0.251767 0.499871
vt 0.266552 0.529441
vt 0.251767 0.529441
vt 0.057371 0.499871
vt 0.447932 0.000000
vt 0.090690 0.499871
vt 0.114742 0.000000
vt 0.399828 0.566509
vt 0.248018 0.499871
vt 0.124009 0.499871
vt 0.018534 0.499871
vt 0.223966 0.499871
vt 0.714484 0.000000
vt 0.466467 0.499871
vt 0.000000 0.529442
vt 0.990304 -0.000000
vt 0.514570 0.000000
vt 0.890347 -0.000000
vt 0.581208 0.000000
vt 0.033319 0.499871
vt 0.956985 -0.000000
vt 0.151810 0.499871
vt 0.823708 -0.000000
vt 0.248018 -0.000000
vt 0.499786 0.499871
vt 0.181381 0.499871
vt 0.923666 -0.000000
vt 0.647846 0.000000
vt 0.842242 0.500129
vt 0.781122 -0.000000
vt 0.599742 0.499871
vt 0.199914 0.499871
vt 0.157328 0.499871
vt 0.314656 -0.000000
vt 0.342457 1.000000
vt 0.381294 -0.000000
vt 0.299871 0.499871
vt 0.266552 0.499871
s 1
f 2/1/2 3/2/3 1/3/1
f 4/4/4 7/5/7 3/6/3
f 8/7/8 5/8/5 7/2/7
f 6/9/6 1/10/1 5/11/5
f 7/12/7 1/6/1 3/13/3
f 4/14/4 6/15/6 8/16/8
f 10/17/2 11/18/3 9/19/1
f 12/20/4 15/21/7 11/22/3
f 16/23/8 13/24/5 15/25/7
f 14/26/6 9/27/1 13/28/5
f 15/29/7 9/30/1 11/31/3
f 12/32/4 14/33/6 16/34/8
f 18/35/2 19/36/3 17/37/1
f 20/38/4 23/39/7 19/40/3
f 24/41/8 21/42/5 23/43/7
f 22/44/6 17/45/1 21/46/5
f 23/47/7 17/48/1 19/49/3
f 20/50/4 22/51/6 24/52/8
f 26/53/2 27/54/3 25/55/1
f 28/56/4 31/57/7 27/58/3
f 32/59/8 29/60/5 31/61/7
f 30/62/6 25/63/1 29/64/5
f 31/65/7 25/66/1 27/67/3
f 28/68/4 30/69/6 32/70/8
f 34/71/2 35/72/3 33/73/1
f 36/74/4 39/75/7 35/45/3
f 40/76/8 37/77/5 39/78/7
f 38/79/6 33/80/1 37/81/5
f 39/82/7 33/83/1 35/48/3
f 36/84/4 38/85/6 40/86/8
f 42/87/2 43/88/3 41/89/1
f 44/90/4 47/91/7 43/63/3
f 48/92/8 45/93/5 47/94/7
f 46/95/6 41/6/1 45/91/5
f 47/96/7 41/97/1 43/98/3
f 44/99/4 46/100/6 48/101/8
f 2/1/2 4/102/4 3/2/3
f 4/4/4 8/103/8 7/5/7
f 8/7/8 6/104/6 5/8/5
f 6/9/6 2/105/2 1/10/1
f 7/12/7 5/106/5 1/6/1
f 4/14/4 2/107/2 6/15/6
f 10/17/2 12/108/4 11/18/3
f 12/20/4 16/109/8 15/21/7
f 16/23/8 14/110/6 13/24/5
f 14/26/6 10/111/2 9/27/1
f 15/29/7 13/112/5 9/30/1
f 12/32/4 10/113/2 14/33/6
f 18/35/2 20/114/4 19/36/3
f 20/38/4 24/115/8 23/39/7
f 24/41/8 22/116/6 21/42/5
f 22/44/6 18/117/2 17/45/1
f 23/47/7 21/82/5 17/48/1
f 20/50/4 18/118/2 22/51/6
f 26/53/2 28/119/4 27/54/3
f 28/56/4 32/120/8 31/57/7
f 32/59/8 30/121/6 29/60/5
f 30/62/6 26/122/2 25/63/1
f 31/65/7 29/123/5 25/66/1
f 28/68/4 26/124/2 30/69/6
f 34/71/2 36/125/4 35/72/3
f 36/74/4 40/126/8 39/75/7
f 40/76/8 38/127/6 37/77/5
f 38/79/6 34/128/2 33/80/1
f 39/82/7 37/129/5 33/83/1
f 36/84/4 34/130/2 38/85/6
f 42/87/2 44/131/4 43/88/3
f 44/90/4 48/132/8 47/91/7
f 48/92/8 46/133/6 45/93/5
f 46/95/6 42/134/2 41/6/1
f 47/96/7 45/135/5 41/97/1
f 44/99/4 42/136/2 46/100/6
