# Blender 4.5.4 LTS
# www.blender.org
o BarandalTg
v -2.215936 0.027972 -6.439598
v -2.215936 0.828169 -6.439598
v -1.955099 0.027972 -6.439598
v -1.955099 0.828169 -6.439598
v -2.215936 0.027972 -4.032727
v -2.215936 0.828169 -4.032727
v -1.955099 0.027972 -4.032727
v -1.955099 0.828169 -4.032727
v -5.579670 0.027972 -9.604956
v -5.384904 0.027972 -9.756604
v -5.579670 0.828169 -9.604956
v -2.143567 0.027972 -6.296989
v -1.948801 0.027972 -6.448636
v -2.143567 0.828169 -6.296989
v -1.948801 0.828169 -6.448636
v -5.384904 0.828169 -9.756604
v -2.143688 0.027972 -4.213995
v -1.956984 0.027972 -4.057911
v -2.143688 0.828169 -4.213995
v -5.750972 0.027972 -0.987933
v -5.564268 0.027972 -0.831849
v -5.750972 0.828169 -0.987933
v -5.564268 0.828169 -0.831849
v -1.956984 0.828169 -4.057911
v -2.215936 0.027972 -6.439598
v -2.215936 0.828169 -6.439598
v -1.955099 0.027972 -6.439598
v -1.955099 0.828169 -6.439598
v -2.215936 0.027972 -4.032727
v -2.215936 0.828169 -4.032727
v -1.955099 0.027972 -4.032727
v -1.955099 0.828169 -4.032727
v -5.579670 0.027972 -9.604956
v -5.384904 0.027972 -9.756604
v -5.579670 0.828169 -9.604956
v -2.143567 0.027972 -6.296989
v -1.948801 0.027972 -6.448636
v -2.143567 0.828169 -6.296989
v -1.948801 0.828169 -6.448636
v -5.384904 0.828169 -9.756604
v -2.143688 0.027972 -4.213995
v -1.956984 0.027972 -4.057911
v -2.143688 0.828169 -4.213995
v -5.750972 0.027972 -0.987933
v -5.564268 0.027972 -0.831849
v -5.750972 0.828169 -0.987933
v -5.564268 0.828169 -0.831849
v -1.956984 0.828169 -4.057911
vn -0.5773 -0.5774 -0.5774
vn -0.5774 0.5774 -0.5773
vn 0.5774 -0.5774 -0.5773
vn 0.5773 0.5774 -0.5774
vn -0.5774 -0.5774 0.5773
vn -0.5773 0.5774 0.5774
vn 0.5773 -0.5774 0.5774
vn 0.5774 0.5774 0.5773
vn -0.8204 -0.5702 -0.0430
vn 0.0425 -0.5852 -0.8098
vn -0.8204 0.5702 -0.0430
vn -0.0425 -0.5852 0.8098
vn 0.8204 -0.5702 0.0430
vn -0.0425 0.5852 0.8098
vn 0.8204 0.5702 0.0430
vn 0.0425 0.5852 -0.8098
vn -0.0135 -0.5853 -0.8107
vn 0.8214 -0.5701 -0.0137
vn -0.0135 0.5853 -0.8107
vn -0.8214 -0.5701 0.0137
vn 0.0135 -0.5853 0.8107
vn -0.8214 0.5701 0.0137
vn 0.0135 0.5853 0.8107
vn 0.8214 0.5701 -0.0137
vt 0.062308 0.584329
vt 0.086311 0.680252
vt 0.062308 0.680252
vt 0.403233 0.772479
vt 0.499155 0.579783
vt 0.499155 0.772479
vt 0.004863 0.584329
vt 0.028866 0.680252
vt 0.004863 0.680252
vt 0.115465 0.772480
vt 0.211387 0.579783
vt 0.211387 0.772480
vt 0.616310 0.571404
vt 0.647577 0.859924
vt 0.616310 0.859924
vt 0.678845 0.859924
vt 0.647577 0.571404
vt 0.678845 0.571404
vt 0.557732 0.571754
vt 0.587021 0.004212
vt 0.587021 0.575966
vt 0.270533 0.579783
vt 0.300105 0.675705
vt 0.270533 0.675705
vt 0.808155 0.571403
vt 0.904077 -0.000000
vt 0.904077 0.571403
vt 0.211387 0.579783
vt 0.240960 0.675706
vt 0.211387 0.675706
vt 0.528444 0.571755
vt 0.499155 0.004212
vt 0.528444 0.000000
vt 0.712232 0.000000
vt 0.712232 0.571404
vt -0.000000 0.004210
vt 0.028866 0.580119
vt -0.000000 0.584329
vt 0.241798 0.675706
vt 0.270952 0.771628
vt 0.241798 0.771628
vt 0.115465 0.579783
vt 0.211387 0.000000
vt 0.086311 0.584329
vt 0.115465 0.680252
vt 0.057732 0.004210
vt 0.028866 0.580119
vt 0.028866 0.000000
vt 0.307310 0.579783
vt 0.403233 -0.000000
vt 0.403233 0.579783
vt 0.743500 0.571404
vt 0.767502 0.667326
vt 0.743500 0.667326
vt 0.307310 0.772479
vt 0.403233 0.579783
vt 0.403233 0.772479
vt 0.743500 0.667326
vt 0.767502 0.763249
vt 0.743500 0.763249
vt 0.520387 0.768663
vt 0.616310 0.575966
vt 0.616310 0.768663
vt 0.743500 0.859924
vt 0.712232 0.859924
vt 0.712232 0.859924
vt 0.680965 0.571404
vt 0.712232 0.571404
vt 0.587021 0.571754
vt 0.616310 0.004212
vt 0.028866 0.584329
vt 0.058439 0.680252
vt 0.028866 0.680252
vt 0.904077 0.571403
vt 1.000000 0.000000
vt 1.000000 0.571403
vt 0.240960 0.579783
vt 0.270533 0.675706
vt 0.240960 0.675706
vt 0.557732 0.571755
vt 0.528444 0.004212
vt 0.557732 0.000000
vt 0.712232 0.571403
vt 0.808155 -0.000000
vt 0.808155 0.571403
vt 0.086599 0.004210
vt 0.115465 0.580119
vt 0.086599 0.584329
vt 0.212645 0.675706
vt 0.241798 0.771628
vt 0.212645 0.771628
vt 0.307310 0.000000
vt 0.307310 0.579783
vt 0.270952 0.675706
vt 0.300105 0.771628
vt 0.270952 0.771628
vt 0.086599 0.004210
vt 0.057732 0.580119
vt 0.057732 0.000000
vt 0.499155 0.000000
vt 0.499155 0.579783
vt 0.403233 0.579783
vt 0.647577 0.859924
vt 0.557732 -0.000000
vt 0.300105 0.579783
vt 0.808155 -0.000000
vt 0.240960 0.579783
vt 0.499155 0.575966
vt 0.616310 0.000000
vt 0.028866 0.000000
vt 0.270952 0.675706
vt 0.115465 0.000000
vt 0.115465 0.584329
vt 0.057732 0.584329
vt 0.307310 -0.000000
vt 0.767502 0.571404
vt 0.307310 0.579783
vt 0.767502 0.667326
vt 0.520387 0.575966
vt 0.743500 0.571404
vt 0.680965 0.859924
vt 0.587021 -0.000000
vt 0.058439 0.584329
vt 0.904077 -0.000000
vt 0.270533 0.579783
vt 0.528444 0.575966
vt 0.712232 -0.000000
vt 0.115465 -0.000000
vt 0.241798 0.675706
vt 0.211387 0.000000
vt 0.300105 0.675706
vt 0.086599 0.584329
vt 0.403233 -0.000000
s 1
f 2/1/2 3/2/3 1/3/1
f 4/4/4 7/5/7 3/6/3
f 8/7/8 5/8/5 7/9/7
f 6/10/6 1/11/1 5/12/5
f 7/13/7 1/14/1 3/15/3
f 4/16/4 6/17/6 8/18/8
f 10/19/10 12/20/12 9/21/9
f 11/22/11 10/23/10 9/24/9
f 14/25/14 9/26/9 12/27/12
f 15/28/15 12/29/12 13/30/13
f 16/31/16 14/32/14 15/33/15
f 16/13/16 13/34/13 10/35/10
f 21/36/21 17/37/17 18/38/18
f 19/39/19 18/40/18 17/41/17
f 22/42/22 17/43/17 20/11/20
f 23/44/23 20/45/20 21/2/21
f 23/46/23 19/47/19 22/48/22
f 24/49/24 21/50/21 18/51/18
f 26/52/2 27/53/3 25/54/1
f 28/55/4 31/56/7 27/57/3
f 32/58/8 29/59/5 31/60/7
f 30/61/6 25/62/1 29/63/5
f 31/35/7 25/64/1 27/65/3
f 28/66/4 30/67/6 32/68/8
f 34/69/10 36/70/12 33/62/9
f 35/71/11 34/72/10 33/73/9
f 38/74/14 33/75/9 36/76/12
f 39/77/15 36/78/12 37/79/13
f 40/80/16 38/81/14 39/82/15
f 40/83/16 37/84/13 34/85/10
f 45/86/21 41/87/17 42/88/18
f 43/89/19 42/90/18 41/91/17
f 46/28/22 41/92/17 44/93/20
f 47/94/23 44/95/20 45/96/21
f 47/97/23 43/98/19 46/99/22
f 48/51/24 45/100/21 42/101/18
f 2/1/2 4/44/4 3/2/3
f 4/4/4 8/102/8 7/5/7
f 8/7/8 6/71/6 5/8/5
f 6/10/6 2/42/2 1/11/1
f 7/13/7 5/17/5 1/14/1
f 4/16/4 2/103/2 6/17/6
f 10/19/10 13/104/13 12/20/12
f 11/22/11 16/105/16 10/23/10
f 14/25/14 11/106/11 9/26/9
f 15/28/15 14/107/14 12/29/12
f 16/31/16 11/108/11 14/32/14
f 16/13/16 15/109/15 13/34/13
f 21/36/21 20/110/20 17/37/17
f 19/39/19 24/111/24 18/40/18
f 22/42/22 19/112/19 17/43/17
f 23/44/23 22/113/22 20/45/20
f 23/46/23 24/114/24 19/47/19
f 24/49/24 23/115/23 21/50/21
f 26/52/2 28/116/4 27/53/3
f 28/55/4 32/117/8 31/56/7
f 32/58/8 30/118/6 29/59/5
f 30/61/6 26/119/2 25/62/1
f 31/35/7 29/120/5 25/64/1
f 28/66/4 26/121/2 30/67/6
f 34/69/10 37/122/13 36/70/12
f 35/71/11 40/123/16 34/72/10
f 38/74/14 35/124/11 33/75/9
f 39/77/15 38/125/14 36/78/12
f 40/80/16 35/126/11 38/81/14
f 40/83/16 39/127/15 37/84/13
f 45/86/21 44/128/20 41/87/17
f 43/89/19 48/129/24 42/90/18
f 46/28/22 43/130/19 41/92/17
f 47/94/23 46/131/22 44/95/20
f 47/97/23 48/132/24 43/98/19
f 48/51/24 47/133/23 45/100/21
l 29 36
