# Blender 4.5.4 LTS
# www.blender.org
o CasaTg
v -4.743609 0.033297 -11.015798
v -4.743609 2.033297 -11.015798
v -3.987005 0.033297 -10.695079
v -3.987005 2.033297 -10.695079
v -3.673609 0.033297 -9.920797
v -3.673609 2.033297 -9.920797
v -3.987005 0.033297 -9.146516
v -3.987005 2.033297 -9.146516
v -4.743609 0.033297 -8.825797
v -4.743609 2.033297 -8.825797
v -5.500214 0.033297 -9.146516
v -5.500214 2.033297 -9.146516
v -5.813610 0.033297 -9.920797
v -5.813610 2.033297 -9.920797
v -5.500214 0.033297 -10.695079
v -5.500214 2.033297 -10.695079
vn 0.3903 -0.0000 -0.9207
vn 0.9269 -0.0000 -0.3752
vn 0.9269 -0.0000 0.3752
vn 0.3903 -0.0000 0.9207
vn -0.3903 -0.0000 0.9207
vn -0.9269 -0.0000 0.3752
vn -0.0000 1.0000 -0.0000
vn -0.9269 -0.0000 -0.3752
vn -0.3903 -0.0000 -0.9207
vn -0.0000 -1.0000 -0.0000
vt 0.500000 -0.000000
vt -0.000000 0.125000
vt -0.000000 0.000000
vt 0.500000 0.125000
vt -0.000000 0.250000
vt 0.500000 0.250000
vt 0.000000 0.375000
vt 0.500000 0.375000
vt 0.000000 0.500000
vt 0.500000 0.500000
vt 0.000000 0.625000
vt 0.500000 0.625000
vt 0.000000 0.750000
vt 0.813575 0.886924
vt 0.500000 0.757037
vt 0.629887 0.443462
vt 0.500000 0.750000
vt 0.000000 0.875000
vt 0.500000 0.875000
vt 0.000000 1.000000
vt 0.629887 0.443462
vt 0.943462 0.313575
vt 0.813575 0.000000
vt 0.813575 0.443462
vt 0.943462 0.573349
vt 0.943462 0.757037
vt 0.629887 0.886924
vt 0.500000 0.573349
vt 0.500000 1.000000
vt 0.629887 0.000000
vt 0.500000 0.129887
vt 0.500000 0.313575
vt 0.813575 0.443462
vt 0.943462 0.129887
s 0
f 2/1/1 3/2/1 1/3/1
f 4/4/2 5/5/2 3/2/2
f 6/6/3 7/7/3 5/5/3
f 8/8/4 9/9/4 7/7/4
f 10/10/5 11/11/5 9/9/5
f 12/12/6 13/13/6 11/11/6
f 14/14/7 10/15/7 6/16/7
f 14/17/8 15/18/8 13/13/8
f 16/19/9 1/20/9 15/18/9
f 7/21/10 11/22/10 15/23/10
f 2/1/1 4/4/1 3/2/1
f 4/4/2 6/6/2 5/5/2
f 6/6/3 8/8/3 7/7/3
f 8/8/4 10/10/4 9/9/4
f 10/10/5 12/12/5 11/11/5
f 12/12/6 14/17/6 13/13/6
f 6/16/7 4/24/7 2/25/7
f 2/25/7 16/26/7 14/14/7
f 14/14/7 12/27/7 10/15/7
f 10/15/7 8/28/7 6/16/7
f 6/16/7 2/25/7 14/14/7
f 14/17/8 16/19/8 15/18/8
f 16/19/9 2/29/9 1/20/9
f 15/23/10 1/30/10 3/31/10
f 3/31/10 5/32/10 7/21/10
f 7/21/10 9/33/10 11/22/10
f 11/22/10 13/34/10 15/23/10
f 15/23/10 3/31/10 7/21/10
