# Blender 4.5.4 LTS
# www.blender.org
o ParedTg2
v -5.544145 0.041309 -0.912871
v -5.544145 1.988454 -0.912871
v -5.711063 0.041309 -0.810516
v -5.711063 1.988454 -0.810516
v -8.626097 0.041309 -3.086181
v -8.626097 1.988454 -3.086181
v -8.793015 0.041309 -2.983826
v -8.793015 1.988454 -2.983826
vn 0.8288 -0.5589 0.0266
vn 0.8288 0.5589 0.0266
vn -0.0256 -0.6018 0.7982
vn -0.0256 0.6018 0.7982
vn 0.0256 -0.6018 -0.7982
vn 0.0256 0.6018 -0.7982
vn -0.8288 -0.5589 -0.0266
vn -0.8288 0.5589 -0.0266
vt 0.542277 0.763725
vt 1.000000 0.724487
vt 1.000000 0.763725
vt 0.542277 0.724487
vt 1.000000 0.000000
vt 0.084553 0.763725
vt 0.542276 0.724487
vt 0.542276 0.763725
vt 0.084553 0.724487
vt 0.542277 0.000000
vt 0.084553 0.018201
vt 0.042277 0.886504
vt 0.042277 0.000000
vt 0.000000 0.018201
vt 0.042277 0.886504
vt 0.000000 0.904705
vt 0.542277 0.000000
vt 0.084553 0.000000
vt 0.084553 0.904704
vt 0.042277 0.000000
s 1
f 2/1/2 3/2/3 1/3/1
f 4/4/4 7/5/7 3/2/3
f 8/6/8 5/7/5 7/8/7
f 6/9/6 1/10/1 5/7/5
f 3/11/3 5/12/5 1/13/1
f 4/14/4 6/15/6 8/16/8
f 2/1/2 4/4/4 3/2/3
f 4/4/4 8/17/8 7/5/7
f 8/6/8 6/9/6 5/7/5
f 6/9/6 2/18/2 1/10/1
f 3/11/3 7/19/7 5/12/5
f 4/14/4 2/20/2 6/15/6
