# Blender 4.5.4 LTS
# www.blender.org
o ParedTg
v -8.577099 0.041309 -2.988203
v -8.577099 1.988454 -2.988203
v -8.805331 0.041309 -2.988203
v -8.805331 1.988454 -2.988203
v -8.577100 0.041309 -7.657903
v -8.577100 1.988454 -7.657903
v -8.805332 0.041309 -7.657903
v -8.805332 1.988454 -7.657903
v -5.544145 0.041309 -0.912871
v -5.544145 1.988454 -0.912871
v -5.711063 0.041309 -0.810515
v -5.711063 1.988454 -0.810515
v -8.626097 0.041309 -3.086181
v -8.626097 1.988454 -3.086181
v -8.793015 0.041309 -2.983826
v -8.793015 1.988454 -2.983826
v -8.626097 0.041309 -7.559925
v -8.626097 1.988454 -7.559925
v -8.793015 0.041309 -7.662280
v -8.793015 1.988454 -7.662280
v -5.544145 0.041309 -9.733234
v -5.544145 1.988454 -9.733234
v -5.711064 0.041309 -9.835590
v -5.711064 1.988454 -9.835590
v -8.577099 0.041309 -2.988204
v -8.577099 1.988454 -2.988204
v -8.805331 0.041309 -2.988204
v -8.805331 1.988454 -2.988204
v -8.577100 0.041309 -7.657902
v -8.577100 1.988454 -7.657902
v -8.805332 0.041309 -7.657902
v -8.805332 1.988454 -7.657902
v -8.626097 0.041309 -3.086181
v -8.626097 0.041309 -7.559925
v -8.626097 1.988454 -7.559925
v -8.793015 0.041309 -7.662280
v -8.793015 1.988454 -7.662280
v -5.544145 0.041309 -9.733234
v -5.544145 1.988454 -9.733234
v -5.711064 0.041309 -9.835590
v -5.711064 1.988454 -9.835590
vn 0.5773 -0.5774 0.5774
vn 0.5773 0.5773 0.5774
vn -0.5773 -0.5773 0.5774
vn -0.5773 0.5774 0.5774
vn 0.5773 -0.5773 -0.5774
vn 0.5773 0.5774 -0.5774
vn -0.5773 -0.5774 -0.5774
vn -0.5773 0.5773 -0.5774
vn 0.8288 -0.5589 0.0266
vn 0.8288 0.5589 0.0266
vn -0.0256 -0.6018 0.7982
vn -0.0256 0.6018 0.7982
vn 0.0256 -0.6018 -0.7982
vn 0.0256 0.6018 -0.7982
vn -0.8288 -0.5589 -0.0266
vn -0.8288 0.5589 -0.0266
vn 0.0256 -0.6018 0.7982
vn 0.0256 0.6018 0.7982
vn -0.8288 -0.5589 0.0266
vn -0.8288 0.5589 0.0266
vn 0.8288 -0.5589 -0.0266
vn 0.8288 0.5589 -0.0266
vn -0.0256 -0.6018 -0.7982
vn -0.0256 0.6018 -0.7982
vt 0.510239 0.438525
vt 0.531672 0.621378
vt 0.510239 0.621378
vt 0.365707 0.438525
vt 0.548561 0.000000
vt 0.548561 0.438525
vt 0.488806 0.438525
vt 0.488806 0.621378
vt 0.182854 0.438525
vt 0.365707 0.000000
vt 0.365707 0.438525
vt 0.731415 -0.000000
vt 0.752847 0.438525
vt 0.731415 0.438525
vt 0.774281 0.438525
vt 0.752848 -0.000000
vt 0.774281 -0.000000
vt 1.000000 0.000000
vt 0.817146 0.015675
vt 0.817146 0.000000
vt 1.000000 0.015675
vt 0.817146 0.305097
vt 0.565450 0.743622
vt 0.748304 0.727947
vt 0.748304 0.743622
vt 0.565450 0.727947
vt 0.748304 0.438525
vt 0.399485 0.445796
vt 0.382596 0.792670
vt 0.382596 0.438525
vt 0.382596 0.792670
vt 0.365707 0.445796
vt 0.382596 0.438525
vt 0.000000 0.625869
vt 0.182854 0.610194
vt 0.182854 0.625869
vt 0.974023 0.438525
vt 0.791169 0.727946
vt 0.791169 0.438525
vt 0.974023 0.727946
vt 0.791169 0.743622
vt -0.000000 0.915290
vt 0.182854 0.915290
vt 0.565450 0.792670
vt 0.548561 0.445796
vt 0.565450 0.438525
vt 0.774281 0.792670
vt 0.791169 0.445796
vt 0.791169 0.799941
vt 0.467373 0.438525
vt 0.467373 0.621378
vt 0.182854 0.877050
vt 0.365707 0.438525
vt 0.365707 0.877050
vt 0.445940 0.438525
vt 0.445940 0.621378
vt 0.548561 0.438525
vt 0.731415 0.000000
vt 0.731414 0.438525
vt 0.817146 0.438525
vt 0.795713 0.000000
vt 0.817146 0.000000
vt 0.774280 0.000000
vt 0.795713 0.438525
vt 0.774280 0.438525
vt 0.000000 0.015675
vt 0.182854 -0.000000
vt 0.182854 0.015675
vt 0.000000 0.610193
vt 0.182854 0.320772
vt 0.182854 0.610193
vt 0.000000 0.320772
vt 0.182854 0.305097
vt 0.000000 0.305097
vt 0.548561 0.792670
vt 0.531672 0.445796
vt 0.757392 0.792670
vt 0.774280 0.445796
vt 0.774280 0.799941
vt 0.531672 0.438525
vt 0.365707 0.000000
vt 0.182854 0.000000
vt 0.752847 -0.000000
vt 0.752848 0.438525
vt 1.000000 0.305097
vt 0.565450 0.438525
vt 0.399485 0.799941
vt 0.365707 0.799941
vt 0.000000 0.610194
vt 0.974023 0.743622
vt 0.548561 0.799941
vt 0.774281 0.438525
vt 0.182854 0.438525
vt 0.548561 0.000000
vt 0.795713 0.438525
vt 0.795713 0.000000
vt 0.000000 -0.000000
vt 0.531672 0.799941
vt 0.757392 0.438525
s 1
f 2/1/2 3/2/3 1/3/1
f 4/4/4 7/5/7 3/6/3
f 8/7/8 5/3/5 7/8/7
f 6/9/6 1/10/1 5/11/5
f 7/12/7 1/13/1 3/14/3
f 4/15/4 6/16/6 8/17/8
f 10/18/10 11/19/11 9/20/9
f 12/21/12 15/22/15 11/19/11
f 16/23/16 13/24/13 15/25/15
f 14/26/14 9/27/9 13/24/13
f 11/28/11 13/29/13 9/30/9
f 12/31/12 14/32/14 16/33/16
f 18/34/18 19/35/19 17/36/17
f 20/37/20 23/38/23 19/39/19
f 24/40/24 21/41/21 23/38/23
f 22/42/22 17/36/17 21/43/21
f 23/44/23 17/45/17 19/46/19
f 24/47/24 18/48/18 22/49/22
f 26/50/2 27/8/3 25/51/1
f 28/52/4 31/53/7 27/54/3
f 32/55/8 29/51/5 31/56/7
f 30/57/6 25/58/1 29/59/5
f 31/60/7 25/61/1 27/62/3
f 28/63/4 30/64/6 32/65/8
f 35/66/18 36/67/19 34/68/17
f 37/69/20 40/70/23 36/71/19
f 41/72/24 38/73/21 40/70/23
f 39/74/22 34/68/17 38/73/21
f 40/75/23 34/76/17 36/6/19
f 41/77/24 35/78/18 39/79/22
f 2/1/2 4/80/4 3/2/3
f 4/4/4 8/81/8 7/5/7
f 8/7/8 6/1/6 5/3/5
f 6/9/6 2/82/2 1/10/1
f 7/12/7 5/83/5 1/13/1
f 4/15/4 2/84/2 6/16/6
f 10/18/10 12/21/12 11/19/11
f 12/21/12 16/85/16 15/22/15
f 16/23/16 14/26/14 13/24/13
f 14/26/14 10/86/10 9/27/9
f 11/28/11 15/87/15 13/29/13
f 12/31/12 10/88/10 14/32/14
f 18/34/18 20/89/20 19/35/19
f 20/37/20 24/40/24 23/38/23
f 24/40/24 22/90/22 21/41/21
f 22/42/22 18/34/18 17/36/17
f 23/44/23 21/91/21 17/45/17
f 24/47/24 20/92/20 18/48/18
f 26/50/2 28/7/4 27/8/3
f 28/52/4 32/93/8 31/53/7
f 32/55/8 30/50/6 29/51/5
f 30/57/6 26/94/2 25/58/1
f 31/60/7 29/95/5 25/61/1
f 28/63/4 26/96/2 30/64/6
f 35/66/18 37/97/20 36/67/19
f 37/69/20 41/72/24 40/70/23
f 41/72/24 39/74/22 38/73/21
f 39/74/22 35/66/18 34/68/17
f 40/75/23 38/98/21 34/76/17
f 41/77/24 37/99/20 35/78/18
l 29 33
