# Blender 4.5.4 LTS
# www.blender.org
o ParedTg1
v -5.450315 0.041309 -0.691352
v -5.450315 1.988454 -0.691352
v -6.232826 0.041309 -0.691352
v -6.232826 1.988454 -0.691352
v -5.450315 0.041309 -1.216439
v -5.450315 1.988454 -1.216439
v -6.232826 0.041309 -1.216439
v -6.232826 1.988454 -1.216439
v -5.450315 2.234632 -0.691352
v -6.232826 2.234632 -0.691352
v -6.232826 2.234632 -1.216439
v -5.450315 2.234632 -1.216439
vn 0.5773 -0.5774 0.5774
vn 0.7071 -0.0000 0.7071
vn -0.5774 -0.5774 0.5773
vn -0.7071 -0.0000 0.7071
vn 0.5774 -0.5774 -0.5773
vn 0.7071 -0.0000 -0.7071
vn -0.5773 -0.5774 -0.5774
vn -0.7071 -0.0000 -0.7071
vn 0.5773 0.5774 0.5774
vn -0.5774 0.5774 0.5773
vn -0.5773 0.5774 -0.5774
vn 0.5774 0.5774 -0.5773
vt -0.000000 0.082726
vt 0.262955 0.737045
vt -0.000000 0.737045
vt 0.525910 0.082726
vt 0.702361 0.737045
vt 0.525910 0.737045
vt 0.262955 0.082726
vt 0.525910 0.737045
vt 0.262955 0.737045
vt 0.702361 0.082726
vt 0.878811 0.737045
vt 0.702361 0.737045
vt 0.176450 0.737045
vt 0.000000 1.000000
vt 0.000000 0.737045
vt 0.525910 0.000000
vt 0.525910 0.082726
vt 0.176450 1.000000
vt 0.352901 0.737045
vt 0.352901 1.000000
vt 0.262955 0.000000
vt 0.262955 0.082726
vt 0.878811 0.000000
vt 0.878811 0.082726
vt 0.702361 -0.000000
vt 0.702361 0.082726
vt 0.176450 1.000000
vt 0.262955 0.000000
vt 0.176450 0.737045
vt -0.000000 0.000000
vt 0.702361 0.000000
vt 0.525910 -0.000000
s 1
f 2/1/2 3/2/3 1/3/1
f 4/4/4 7/5/7 3/6/3
f 8/7/8 5/8/5 7/9/7
f 6/10/6 1/11/1 5/12/5
f 7/13/7 1/14/1 3/15/3
f 8/7/8 12/16/12 6/17/6
f 10/18/10 12/19/12 11/20/11
f 2/1/2 10/21/10 4/22/4
f 6/10/6 9/23/9 2/24/2
f 4/4/4 11/25/11 8/26/8
f 2/1/2 4/22/4 3/2/3
f 4/4/4 8/26/8 7/5/7
f 8/7/8 6/17/6 5/8/5
f 6/10/6 2/24/2 1/11/1
f 7/13/7 5/27/5 1/14/1
f 8/7/8 11/28/11 12/16/12
f 10/18/10 9/29/9 12/19/12
f 2/1/2 9/30/9 10/21/10
f 6/10/6 12/31/12 9/23/9
f 4/4/4 10/32/10 11/25/11
